STARTFONT 2.1
COMMENT
COMMENT Converted from OpenType font "GenBasB.ttf" by "otf2bdf 3.0".
COMMENT
FONT -FreeType-Gentium Basic-Bold-R-Normal--40-400-72-72-P-200-ISO10646-1
SIZE 40 72 72
FONTBOUNDINGBOX 61 57 -20 -14
STARTPROPERTIES 19
FOUNDRY "FreeType"
FAMILY_NAME "Gentium Basic"
WEIGHT_NAME "Bold"
SLANT "R"
SETWIDTH_NAME "Normal"
ADD_STYLE_NAME ""
PIXEL_SIZE 40
POINT_SIZE 400
RESOLUTION_X 72
RESOLUTION_Y 72
SPACING "P"
AVERAGE_WIDTH 200
CHARSET_REGISTRY "ISO10646"
CHARSET_ENCODING "1"
FONT_ASCENT 34
FONT_DESCENT 11
COPYRIGHT "Copyright (c) SIL International, 2003-2008."
_OTF_FONTFILE "GenBasB.ttf"
_OTF_PSNAME "GentiumBasic-Bold"
ENDPROPERTIES
CHARS 704
STARTCHAR 0020
ENCODING 32
SWIDTH 250 0
DWIDTH 10 0
BBX 0 0 0 0
BITMAP
ENDCHAR
STARTCHAR 0021
ENCODING 33
SWIDTH 300 0
DWIDTH 12 0
BBX 6 30 3 -1
BITMAP
0C
3C
FC
FC
FC
7C
78
78
78
78
78
78
78
78
78
78
78
78
38
30
30
20
00
00
38
7C
FC
FC
FC
78
ENDCHAR
STARTCHAR 0022
ENCODING 34
SWIDTH 475 0
DWIDTH 19 0
BBX 13 13 3 16
BITMAP
1838
F8F8
F8F8
F8F8
F8F8
F8F8
F8F0
70F0
7070
7070
7070
7070
7070
ENDCHAR
STARTCHAR 0023
ENCODING 35
SWIDTH 500 0
DWIDTH 20 0
BBX 19 23 1 2
BITMAP
0061C0
00E380
00E380
00C380
01C300
01C700
1FFFE0
1FFFE0
238E00
038E00
030E00
070C00
071C00
071C00
7FFF80
FFFF80
0E3800
0C3800
1C3000
1C7000
187000
187000
20E000
ENDCHAR
STARTCHAR 0024
ENCODING 36
SWIDTH 525 0
DWIDTH 21 0
BBX 17 30 2 -3
BITMAP
00C000
01C000
01C000
03F000
1FFE00
3FFF80
71DF00
E1CF00
E1C700
E1C200
F1C000
FFC000
7FC000
3FF800
0FFC00
03FE00
01FF00
01DF80
01CF80
C1C780
C1C780
E1C780
F1CF00
FDCF00
FFFE00
3FFC00
07E000
01C000
01C000
018000
ENDCHAR
STARTCHAR 0025
ENCODING 37
SWIDTH 700 0
DWIDTH 28 0
BBX 26 25 1 0
BITMAP
00000300
0F800F00
3FC00E00
71E01C00
70E03800
E0707800
E0707000
E070E000
E071C000
E073C000
60678000
70670000
30CE3E00
1F1C6300
003CC380
0038C180
0071C1C0
00E1C1C0
01E1C1C0
01C1C1C0
0381C1C0
0700E180
0F00E380
0E007F00
1C003E00
ENDCHAR
STARTCHAR 0026
ENCODING 38
SWIDTH 700 0
DWIDTH 28 0
BBX 27 28 1 0
BITMAP
007E0000
01FF8000
038F8000
0707C000
0707C000
0F07C000
0F07C000
0F0F8000
0F9F0000
0FBF0000
07FE0000
07F80000
07F00000
0FF0FFE0
1FF1FFC0
3FF83D80
7DFC3C00
7CFE1C00
F8FE1C00
F87F1C00
F83FB800
F81FF800
F80FF000
FC07F800
7C03FC00
3F07FFC0
1FFE7F80
07F01C00
ENDCHAR
STARTCHAR 0027
ENCODING 39
SWIDTH 275 0
DWIDTH 11 0
BBX 5 13 3 16
BITMAP
18
F8
F8
F8
F8
F8
F8
70
70
70
70
70
70
ENDCHAR
STARTCHAR 0028
ENCODING 40
SWIDTH 325 0
DWIDTH 13 0
BBX 11 37 2 -6
BITMAP
0040
01E0
03C0
0780
0F00
0F00
1E00
1E00
3C00
3C00
7C00
7C00
7800
F800
F800
F800
F800
F800
F800
F800
F800
F800
F800
F800
7800
7C00
7C00
7C00
3C00
3E00
1E00
1F00
0F00
0780
03C0
01E0
0040
ENDCHAR
STARTCHAR 0029
ENCODING 41
SWIDTH 325 0
DWIDTH 13 0
BBX 11 37 0 -6
BITMAP
4000
F000
7800
3C00
1E00
1F00
0F00
0F80
0780
07C0
07C0
07C0
07C0
03E0
03E0
03E0
03E0
03E0
03E0
03E0
03E0
03E0
03E0
03C0
07C0
07C0
07C0
0780
0F80
0F00
0F00
1E00
1E00
3C00
7800
F000
4000
ENDCHAR
STARTCHAR 002A
ENCODING 42
SWIDTH 450 0
DWIDTH 18 0
BBX 16 16 1 14
BITMAP
00C0
03C0
03C0
638C
7B9E
7DBF
7FFC
0FE0
07E0
3FFC
FDBE
F99E
338E
03C0
03C0
0300
ENDCHAR
STARTCHAR 002B
ENCODING 43
SWIDTH 425 0
DWIDTH 17 0
BBX 15 14 1 4
BITMAP
0180
0380
0380
0380
0380
0380
7FFE
FFFC
0380
0380
0380
0380
0380
0300
ENDCHAR
STARTCHAR 002C
ENCODING 44
SWIDTH 275 0
DWIDTH 11 0
BBX 8 12 2 -7
BITMAP
1E
7F
FF
7F
1F
1F
1E
1E
3C
38
70
60
ENDCHAR
STARTCHAR 002D
ENCODING 45
SWIDTH 350 0
DWIDTH 14 0
BBX 12 2 1 9
BITMAP
7FF0
FFF0
ENDCHAR
STARTCHAR 002E
ENCODING 46
SWIDTH 275 0
DWIDTH 11 0
BBX 6 6 3 -1
BITMAP
38
7C
FC
FC
FC
78
ENDCHAR
STARTCHAR 002F
ENCODING 47
SWIDTH 475 0
DWIDTH 19 0
BBX 17 38 1 -7
BITMAP
000180
000780
000780
000F00
000F00
000F00
001E00
001E00
001C00
003C00
003C00
007800
007800
007800
00F000
00F000
00E000
01E000
01E000
03C000
03C000
03C000
078000
078000
070000
0F0000
0F0000
1E0000
1E0000
1E0000
3C0000
3C0000
380000
780000
780000
F00000
F00000
C00000
ENDCHAR
STARTCHAR 0030
ENCODING 48
SWIDTH 500 0
DWIDTH 20 0
BBX 18 24 1 0
BITMAP
03F000
07FC00
1E3E00
1C1F00
3C0F00
780F80
780F80
780780
F807C0
F807C0
F807C0
F807C0
F807C0
F807C0
F807C0
F807C0
780780
7C0780
7C0F80
3C0F00
3E0E00
1F1E00
0FF800
03E000
ENDCHAR
STARTCHAR 0031
ENCODING 49
SWIDTH 500 0
DWIDTH 20 0
BBX 16 24 2 0
BITMAP
0060
03E0
1FE0
FFE0
63E0
03E0
03E0
03E0
03E0
03E0
03E0
03E0
03E0
03E0
03E0
03E0
03E0
03E0
03E0
03E0
03E0
07F0
7FFF
7FFF
ENDCHAR
STARTCHAR 0032
ENCODING 50
SWIDTH 500 0
DWIDTH 20 0
BBX 16 24 2 0
BITMAP
03F8
0FFC
3C3E
7C3F
781F
F81F
701F
001F
003E
003C
007C
0078
00F0
01E0
03E0
03C0
0780
0F01
1E03
3C03
7803
7FFF
FFFF
FFFF
ENDCHAR
STARTCHAR 0033
ENCODING 51
SWIDTH 500 0
DWIDTH 20 0
BBX 16 24 2 0
BITMAP
07F0
1FF8
3C7C
783E
F83E
F83E
403E
003C
007C
00F0
07F0
07FC
00FE
003E
003F
001F
001F
001F
001F
001E
C03E
F07C
7FF8
0FC0
ENDCHAR
STARTCHAR 0034
ENCODING 52
SWIDTH 500 0
DWIDTH 20 0
BBX 17 24 1 0
BITMAP
000C00
007C00
007C00
00FC00
01FC00
01FC00
03BC00
07BC00
073C00
0E3C00
0E3C00
1C3C00
383C00
383C00
703C00
FFFF80
FFFF00
003C00
003C00
003C00
003C00
003C00
03FF80
03FF80
ENDCHAR
STARTCHAR 0035
ENCODING 53
SWIDTH 500 0
DWIDTH 20 0
BBX 17 24 1 0
BITMAP
1FFF00
1FFF80
1FFE00
1FFC00
180000
380000
380000
380000
380000
3FF000
3FFC00
307E00
601F00
001F00
000F80
000F80
000F80
000F80
000F80
001F00
601F00
F87E00
3FFC00
07E000
ENDCHAR
STARTCHAR 0036
ENCODING 54
SWIDTH 500 0
DWIDTH 20 0
BBX 17 24 2 0
BITMAP
000E00
007E00
01F000
07C000
0F8000
1E0000
3E0000
3C0000
7C0000
79F800
7FFE00
FE3F00
FC1F00
F80F80
F80F80
F80F80
F80F80
F80F80
7C0F80
7C0F00
3C1F00
1F1E00
0FFC00
03F000
ENDCHAR
STARTCHAR 0037
ENCODING 55
SWIDTH 500 0
DWIDTH 20 0
BBX 17 24 2 0
BITMAP
7FFF80
7FFF00
FFFF00
FFFF00
E00600
C00E00
800C00
001C00
001C00
003800
003800
007000
007000
00F000
00E000
01E000
01C000
03C000
03C000
078000
078000
0F8000
1F0000
1C0000
ENDCHAR
STARTCHAR 0038
ENCODING 56
SWIDTH 525 0
DWIDTH 21 0
BBX 17 24 2 0
BITMAP
03F000
0FFC00
1C3E00
181F00
381F00
381F00
381F00
3C3E00
3F3C00
1FF800
0FF000
07FC00
0EFE00
3E3F00
7C1F80
781F80
F80F80
F80F80
F80F80
F80F00
7C1F00
7E3E00
3FFC00
07E000
ENDCHAR
STARTCHAR 0039
ENCODING 57
SWIDTH 500 0
DWIDTH 20 0
BBX 17 25 2 -1
BITMAP
03F000
0FFC00
1E3E00
3C1E00
781F00
781F00
F80F80
F80F80
F80F80
F80F80
F80F80
7C1F80
7E3F80
3FFF80
0FCF00
000F00
001F00
001E00
003E00
007C00
00F800
01F000
0FC000
3F0000
380000
ENDCHAR
STARTCHAR 003A
ENCODING 58
SWIDTH 275 0
DWIDTH 11 0
BBX 6 19 3 -1
BITMAP
38
7C
FC
FC
FC
78
00
00
00
00
00
00
00
38
7C
FC
FC
FC
78
ENDCHAR
STARTCHAR 003B
ENCODING 59
SWIDTH 275 0
DWIDTH 11 0
BBX 8 26 2 -7
BITMAP
08
3E
7E
7E
7E
7C
00
00
00
00
00
00
00
00
1E
7F
FF
7F
1F
1F
1E
1E
3C
38
70
60
ENDCHAR
STARTCHAR 003C
ENCODING 60
SWIDTH 450 0
DWIDTH 18 0
BBX 16 13 1 5
BITMAP
0003
001F
00FF
03FC
1FE0
7F80
FC00
FE00
7FC0
0FF8
01FF
003F
0006
ENDCHAR
STARTCHAR 003D
ENCODING 61
SWIDTH 450 0
DWIDTH 18 0
BBX 16 8 1 7
BITMAP
7FFF
FFFF
0000
0000
0000
0000
7FFF
FFFF
ENDCHAR
STARTCHAR 003E
ENCODING 62
SWIDTH 450 0
DWIDTH 18 0
BBX 16 13 1 5
BITMAP
7000
FC00
FF80
1FF0
03FE
007F
003F
00FF
07F8
3FE0
7F00
F800
C000
ENDCHAR
STARTCHAR 003F
ENCODING 63
SWIDTH 450 0
DWIDTH 18 0
BBX 15 30 1 -1
BITMAP
07F0
1FF8
3C7C
787E
F83E
F83E
F83E
E03E
003E
007C
007C
00F8
00F0
01F0
01E0
01C0
03C0
0380
0380
0380
0380
0000
0000
0000
0380
07C0
0FC0
0FC0
0FC0
0780
ENDCHAR
STARTCHAR 0040
ENCODING 64
SWIDTH 875 0
DWIDTH 35 0
BBX 31 34 2 -8
BITMAP
0007F800
003FFF00
00FFFFC0
01F80FE0
03C001F0
078000F8
0F000078
1E00003C
3C03C33C
380FEE1C
781E7E1E
783C3E0E
70783E0E
F0783E0E
F0F83E0E
F0F83E0E
F0F83E0E
F0F83E0E
F0F83E0C
F0F83E1C
F0FC3E1C
F87C7E38
787FFFF0
787FBFE0
7C3F9FC0
3C1E0F00
3E000000
1F000000
1F800030
0FE000F0
07F807E0
01FFFFC0
007FFF00
000FF800
ENDCHAR
STARTCHAR 0041
ENCODING 65
SWIDTH 625 0
DWIDTH 25 0
BBX 25 25 0 0
BITMAP
00040000
001E0000
003E0000
007E0000
007F0000
006F0000
00EF8000
00EF8000
00C78000
01C7C000
01C7C000
0183C000
0383E000
0383E000
03FFE000
07FFF000
0700F000
0600F800
0E00F800
0E007800
0C007C00
1C007C00
1C007C00
FF81FF00
FF81FF80
ENDCHAR
STARTCHAR 0042
ENCODING 66
SWIDTH 600 0
DWIDTH 24 0
BBX 22 25 0 0
BITMAP
0FFE00
FFFF80
DF0FE0
1F03F0
1F01F0
1F01F0
1F01F0
1F01F0
1F01E0
1F03E0
1F0F80
1FFF00
1FFFE0
1F03F0
1F01F8
1F00F8
1F007C
1F007C
1F007C
1F007C
1F007C
1F00F8
1F03F0
7FFFE0
FFFF00
ENDCHAR
STARTCHAR 0043
ENCODING 67
SWIDTH 550 0
DWIDTH 22 0
BBX 20 25 1 0
BITMAP
007F80
03FFF0
0787E0
0F01E0
1E00C0
3C0040
3C0000
7C0000
780000
F80000
F80000
F80000
F80000
F80000
F80000
F80000
FC0000
7C0000
7C0000
7E0020
3F0070
1FC1E0
0FFFC0
07FF00
01FC00
ENDCHAR
STARTCHAR 0044
ENCODING 68
SWIDTH 625 0
DWIDTH 25 0
BBX 22 25 1 0
BITMAP
0FFC00
FFFF80
FF0FC0
1F03E0
1F01F0
1F01F8
1F00F8
1F00F8
1F007C
1F007C
1F007C
1F007C
1F007C
1F007C
1F007C
1F007C
1F0078
1F00F8
1F00F8
1F01F0
1F01F0
1F03E0
1F07C0
7FFF80
FFFC00
ENDCHAR
STARTCHAR 0045
ENCODING 69
SWIDTH 525 0
DWIDTH 21 0
BBX 19 25 1 0
BITMAP
FFFFC0
FFFFC0
3E01C0
1E01C0
1E0180
1E0180
1E0080
1E0000
1E0000
1E0000
1E0000
1FFF00
1FFE00
1E0600
1E0000
1E0000
1E0000
1E0000
1E0000
1E0060
1E0060
1E00E0
3F01E0
FFFFE0
FFFFC0
ENDCHAR
STARTCHAR 0046
ENCODING 70
SWIDTH 500 0
DWIDTH 20 0
BBX 18 25 1 0
BITMAP
FFFFC0
FFFFC0
3E01C0
1E01C0
1E01C0
1E00C0
1E0080
1E0000
1E0000
1E0000
1E0000
1FFE00
1FFE00
1E0400
1E0000
1E0000
1E0000
1E0000
1E0000
1E0000
1E0000
1E0000
3E0000
FFC000
FFE000
ENDCHAR
STARTCHAR 0047
ENCODING 71
SWIDTH 600 0
DWIDTH 24 0
BBX 22 25 1 0
BITMAP
007F80
01FFF0
0783F0
0F01E0
1E00E0
3C0040
3C0000
7C0000
780000
F80000
F80000
F80000
F80FFC
F80FFC
F801F0
F801F0
FC01F0
7C01F0
7C01F0
7E01F0
3F01F0
1F81F0
0FFFC0
07FF80
00FC00
ENDCHAR
STARTCHAR 0048
ENCODING 72
SWIDTH 675 0
DWIDTH 27 0
BBX 25 25 1 0
BITMAP
FFE3FF80
7FE3FF80
1F007C00
1F007C00
1F007C00
1F007C00
1F007C00
1F007C00
1F007C00
1F007C00
1F007C00
1FFFFC00
1FFFFC00
1F007C00
1F007C00
1F007C00
1F007C00
1F007C00
1F007C00
1F007C00
1F007C00
1F007C00
1F007C00
7FC3FF80
FFE3FF80
ENDCHAR
STARTCHAR 0049
ENCODING 73
SWIDTH 325 0
DWIDTH 13 0
BBX 11 25 1 0
BITMAP
FFE0
7FE0
1F00
1F00
1F00
1F00
1F00
1F00
1F00
1F00
1F00
1F00
1F00
1F00
1F00
1F00
1F00
1F00
1F00
1F00
1F00
1F00
1F00
7FC0
FFE0
ENDCHAR
STARTCHAR 004A
ENCODING 74
SWIDTH 325 0
DWIDTH 13 0
BBX 18 33 -5 -8
BITMAP
03FFC0
01FF80
003E00
003E00
003E00
003E00
003E00
003E00
003E00
003E00
003E00
003E00
003E00
003E00
003E00
003E00
003E00
003E00
003E00
003E00
003E00
003E00
003E00
003E00
003E00
003C00
003C00
003800
107800
387000
7FE000
FF8000
3E0000
ENDCHAR
STARTCHAR 004B
ENCODING 75
SWIDTH 625 0
DWIDTH 25 0
BBX 24 25 0 0
BITMAP
FFE3FE
7FC1FE
1F00F0
1F01E0
1F03C0
1F0780
1F0F00
1F0E00
1F1C00
1F3C00
1F7800
1FF000
1FF800
1F7C00
1F3C00
1F3E00
1F1F00
1F0F80
1F07C0
1F03E0
1F03F0
1F01F8
1F00FF
7FE07F
FFE03C
ENDCHAR
STARTCHAR 004C
ENCODING 76
SWIDTH 500 0
DWIDTH 20 0
BBX 20 25 0 0
BITMAP
FFE000
7FE000
1F0000
1F0000
1F0000
1F0000
1F0000
1F0000
1F0000
1F0000
1F0000
1F0000
1F0000
1F0000
1F0000
1F0000
1F0000
1F0000
1F0000
1F0030
1F0060
1F0060
1F80E0
7FFFE0
FFFFE0
ENDCHAR
STARTCHAR 004D
ENCODING 77
SWIDTH 850 0
DWIDTH 34 0
BBX 31 25 1 0
BITMAP
FF0001FE
7F0001FE
1F8001F0
1F8003F0
1FC003F0
1FC007F0
1FC007F0
1FE00EF0
1DE00EF0
1DF01EF0
1CF01CF0
1CF81CF0
1CF838F0
1C7C38F8
1C7C70F8
1C3C70F8
1C3EE0F8
1C1EE0F8
1C1FE0F8
1C1FC0F8
1C0FC0F8
1C0F80F8
1C0780F8
FF0707FE
FF0307FE
ENDCHAR
STARTCHAR 004E
ENCODING 78
SWIDTH 675 0
DWIDTH 27 0
BBX 25 25 1 0
BITMAP
FE00FF80
FF007F00
1F001C00
1F801C00
1FC01C00
1FC01C00
1FE01C00
1DF01C00
1DF81C00
1CF81C00
1C7C1C00
1C7E1C00
1C3E1C00
1C1F1C00
1C0F9C00
1C0F9C00
1C07DC00
1C03FC00
1C03FC00
1C01FC00
1C00FC00
1C00FC00
1C007C00
7F003C00
FF800C00
ENDCHAR
STARTCHAR 004F
ENCODING 79
SWIDTH 625 0
DWIDTH 25 0
BBX 23 25 1 0
BITMAP
007E00
03FFC0
0787E0
0E01F0
1E00F8
3C00F8
3C007C
7C007C
78007E
F8003E
F8003E
F8003E
F8003E
F8003E
F8003E
F8003E
FC003C
7C007C
7C0078
3E0078
3E00F0
1F01E0
0FC3C0
07FF00
00FC00
ENDCHAR
STARTCHAR 0050
ENCODING 80
SWIDTH 575 0
DWIDTH 23 0
BBX 21 25 1 0
BITMAP
0FFE00
FFFFC0
FF07E0
1F03F0
1F01F8
1F00F8
1F00F8
1F00F8
1F00F8
1F00F8
1F01F0
1F01F0
1F87E0
1F7F80
1F3E00
1F0000
1F0000
1F0000
1F0000
1F0000
1F0000
1F0000
1F0000
7FE000
FFE000
ENDCHAR
STARTCHAR 0051
ENCODING 81
SWIDTH 625 0
DWIDTH 25 0
BBX 27 31 1 -6
BITMAP
007E0000
03FFC000
0787E000
0E01F000
1E00F800
3C00F800
3C007C00
7C007C00
78007C00
F8003E00
F8003E00
F8003E00
F8003E00
F8003E00
F8003E00
F8003E00
FC003C00
7C007C00
7C007800
3E007800
3E00F000
1F01E000
0FC3C000
07FF8000
00FF0000
0007E000
0001F860
0000FFE0
00007FC0
00001F80
00000700
ENDCHAR
STARTCHAR 0052
ENCODING 82
SWIDTH 600 0
DWIDTH 24 0
BBX 23 25 1 0
BITMAP
0FFC00
FFFF80
FF0FC0
1F07C0
1F03E0
1F03E0
1F03E0
1F03E0
1F03E0
1F07C0
1F0780
1FFF00
1FFE00
1F7C00
1F1E00
1F0F00
1F0F00
1F0780
1F07C0
1F03E0
1F03E0
1F01F0
1F01FE
7FC0FE
FFE0F8
ENDCHAR
STARTCHAR 0053
ENCODING 83
SWIDTH 525 0
DWIDTH 21 0
BBX 17 25 2 0
BITMAP
03FC00
1FFF00
3C3F00
700E00
F00600
F00000
F80000
FC0000
FE0000
7F8000
3FE000
1FF800
07FE00
01FF00
007F00
001F80
000F80
000780
C00780
C00780
E00700
F00E00
FC1C00
FFF800
1FE000
ENDCHAR
STARTCHAR 0054
ENCODING 84
SWIDTH 575 0
DWIDTH 23 0
BBX 23 25 0 0
BITMAP
7FFFFC
7FFFFE
607C0E
E07C0C
C07C0C
C07C0C
C07C0C
007C00
007C00
007C00
007C00
007C00
007C00
007C00
007C00
007C00
007C00
007C00
007C00
007C00
007C00
007C00
007C00
03FF80
03FF80
ENDCHAR
STARTCHAR 0055
ENCODING 85
SWIDTH 675 0
DWIDTH 27 0
BBX 25 25 1 0
BITMAP
FFE0FF80
7FE0FF00
1F001C00
1F001C00
1F001C00
1F001C00
1F001C00
1F001C00
1F001C00
1F001C00
1F001C00
1F001C00
1F001C00
1F001C00
1F001C00
1F001C00
1F001C00
1F001C00
1F001800
0F803800
0F803800
07C07000
03E0E000
01FFC000
007F0000
ENDCHAR
STARTCHAR 0056
ENCODING 86
SWIDTH 675 0
DWIDTH 27 0
BBX 26 25 0 0
BITMAP
FFC03FC0
7FC03FC0
1F000E00
1F000E00
0F801C00
0F801C00
0F801C00
07C03800
07C03800
03E03000
03E07000
03E07000
01F0E000
01F0E000
00F0E000
00F9C000
00F9C000
007DC000
007F8000
003F8000
003F0000
003F0000
001F0000
001E0000
00080000
ENDCHAR
STARTCHAR 0057
ENCODING 87
SWIDTH 850 0
DWIDTH 34 0
BBX 34 25 0 0
BITMAP
FFC0E07FC0
7F80E03FC0
1E00E00E00
1F01F00E00
1F01F00C00
0F01F81C00
0F03F81C00
0F83F81C00
0F83FC1C00
07873C1800
07873C3800
07863E3800
07CE1E3800
03CE1F3800
03CC0F3000
03DC0F7000
03FC0FF000
03F807F000
01F807E000
01F807E000
01F003E000
01F003E000
00F001E000
00E001C000
00C0018000
ENDCHAR
STARTCHAR 0058
ENCODING 88
SWIDTH 625 0
DWIDTH 25 0
BBX 25 25 0 0
BITMAP
7FE1FF00
7FE1FF00
1F807C00
0F807000
0FC0F000
07E0E000
03E1C000
01F3C000
01FB8000
00FF0000
007F0000
007E0000
003E0000
007F0000
007F8000
00EFC000
01E7C000
01C3E000
0383F000
0781F000
0700F800
0E00FC00
1E00FE00
FF83FF80
FF83FF80
ENDCHAR
STARTCHAR 0059
ENCODING 89
SWIDTH 625 0
DWIDTH 25 0
BBX 24 25 0 0
BITMAP
7E00FF
FF00FF
1F0038
0F8038
0FC070
07C070
03E0E0
03E0E0
01F1C0
01F1C0
00FB80
00FB80
007F00
007F00
003E00
003E00
003E00
003E00
003E00
003E00
003E00
003E00
003E00
01FFC0
01FFC0
ENDCHAR
STARTCHAR 005A
ENCODING 90
SWIDTH 550 0
DWIDTH 22 0
BBX 19 25 1 0
BITMAP
3FFFE0
3FFFE0
7807C0
700FC0
600F80
601F80
203F00
003E00
007E00
007C00
00FC00
01F800
01F000
03F000
03E000
07E000
0FC000
0F8000
1F8020
1F0060
3F0060
7E0060
7C00E0
FFFFE0
FFFFE0
ENDCHAR
STARTCHAR 005B
ENCODING 91
SWIDTH 350 0
DWIDTH 14 0
BBX 11 37 2 -6
BITMAP
FFE0
FFE0
F800
F800
F800
F800
F800
F800
F800
F800
F800
F800
F800
F800
F800
F800
F800
F800
F800
F800
F800
F800
F800
F800
F800
F800
F800
F800
F800
F800
F800
F800
F800
F800
F800
FFE0
FFE0
ENDCHAR
STARTCHAR 005C
ENCODING 92
SWIDTH 475 0
DWIDTH 19 0
BBX 17 38 1 -7
BITMAP
C00000
F00000
700000
700000
780000
380000
3C0000
3C0000
1C0000
1E0000
1E0000
0E0000
0F0000
070000
078000
078000
038000
03C000
03C000
01C000
01E000
00E000
00E000
00F000
007000
007800
007800
003800
003C00
003C00
001C00
001E00
000E00
000F00
000F00
000700
000780
000180
ENDCHAR
STARTCHAR 005D
ENCODING 93
SWIDTH 325 0
DWIDTH 13 0
BBX 10 37 1 -6
BITMAP
FFC0
FFC0
03C0
03C0
03C0
03C0
03C0
03C0
03C0
03C0
03C0
03C0
03C0
03C0
03C0
03C0
03C0
03C0
03C0
03C0
03C0
03C0
03C0
03C0
03C0
03C0
03C0
03C0
03C0
03C0
03C0
03C0
03C0
03C0
03C0
FFC0
FFC0
ENDCHAR
STARTCHAR 005E
ENCODING 94
SWIDTH 500 0
DWIDTH 20 0
BBX 16 19 2 11
BITMAP
0080
0380
03C0
03C0
07E0
06E0
0EE0
0C70
0C70
1C78
1838
1838
301C
301C
701C
600E
600E
E007
8006
ENDCHAR
STARTCHAR 005F
ENCODING 95
SWIDTH 475 0
DWIDTH 19 0
BBX 17 2 1 -5
BITMAP
7FFF80
FFFF80
ENDCHAR
STARTCHAR 0060
ENCODING 96
SWIDTH 325 0
DWIDTH 13 0
BBX 9 10 0 20
BITMAP
3800
F800
FC00
7C00
3E00
1E00
0F00
0700
0380
0100
ENDCHAR
STARTCHAR 0061
ENCODING 97
SWIDTH 500 0
DWIDTH 20 0
BBX 19 18 1 0
BITMAP
01F800
0FFE00
3E3F00
7C1F00
7C1F00
701F00
001F00
01FF00
0FFF00
3F1F00
7C1F00
781F00
F81F00
F81F20
F87FE0
FFDFC0
7F9F80
3E0E00
ENDCHAR
STARTCHAR 0062
ENCODING 98
SWIDTH 525 0
DWIDTH 21 0
BBX 20 30 0 0
BITMAP
060000
FE0000
FE0000
3E0000
3E0000
3E0000
3E0000
3E0000
3E0000
3E0000
3E0000
3E0000
3E1F00
3E7FC0
3FFFC0
3FC7E0
3F01E0
3E01F0
3E00F0
3E00F0
3E00F0
3E00F0
3E00F0
3E00E0
3E01E0
3E01C0
3F8380
3FFF00
0FFC00
01F000
ENDCHAR
STARTCHAR 0063
ENCODING 99
SWIDTH 450 0
DWIDTH 18 0
BBX 16 18 1 0
BITMAP
01FC
07FF
1F1F
3C0F
3C07
7806
7800
F800
F800
F800
F800
F800
7C00
7E03
3F07
3FFE
0FFC
03F0
ENDCHAR
STARTCHAR 0064
ENCODING 100
SWIDTH 550 0
DWIDTH 22 0
BBX 21 30 1 0
BITMAP
0001C0
003FC0
003FC0
0007C0
0007C0
0007C0
0007C0
0007C0
0007C0
0007C0
0007C0
0007C0
03F7C0
0FFFC0
1E1FC0
3C0FC0
7C07C0
7807C0
F807C0
F807C0
F807C0
F807C0
F807C0
FC07C0
FC0FC0
7E1FC0
7FFFF8
3FF7F8
1FE7E0
078380
ENDCHAR
STARTCHAR 0065
ENCODING 101
SWIDTH 475 0
DWIDTH 19 0
BBX 17 18 1 0
BITMAP
01F000
0FFC00
1E3E00
3C1F00
780F00
780F80
F80F80
FFFF80
FFFE00
F80000
F80000
F80000
FC0000
7E0180
7F0700
3FFE00
1FFC00
07F000
ENDCHAR
STARTCHAR 0066
ENCODING 102
SWIDTH 350 0
DWIDTH 14 0
BBX 17 29 0 0
BITMAP
003F00
00FF80
038F00
078600
070000
0F0000
0F0000
1F0000
1F0000
1F0000
1F0000
7FFC00
FFF800
1F1000
1F0000
1F0000
1F0000
1F0000
1F0000
1F0000
1F0000
1F0000
1F0000
1F0000
1F0000
1F0000
1F0000
7FF000
FFF000
ENDCHAR
STARTCHAR 0067
ENCODING 103
SWIDTH 550 0
DWIDTH 22 0
BBX 21 27 0 -9
BITMAP
01F818
0FFFF8
1E1FF0
3C0F80
7C07C0
7C07C0
7C07C0
7C07C0
3E0780
3F0F00
1FFE00
03F800
078000
0F8000
1FC000
1FFF00
1FFFE0
07FFF0
1EFFF8
7C03F8
7800F8
F800F8
F800F0
FC01E0
7F03C0
1FFF00
03F800
ENDCHAR
STARTCHAR 0068
ENCODING 104
SWIDTH 575 0
DWIDTH 23 0
BBX 22 30 1 0
BITMAP
060000
FE0000
FE0000
3E0000
3E0000
3E0000
3E0000
3E0000
3E0000
3E0000
3E0000
3E0000
3E0F80
3E3FC0
3E7FE0
3EFFE0
3FC7E0
3F03E0
3E03E0
3E03E0
3E03E0
3E03E0
3E03E0
3E03E0
3E03E0
3E03E0
3E03E0
3E03E0
FF8FF8
FFDFFC
ENDCHAR
STARTCHAR 0069
ENCODING 105
SWIDTH 300 0
DWIDTH 12 0
BBX 10 27 1 0
BITMAP
1E00
3F00
3F00
3F00
1E00
0000
0000
0000
0000
0E00
FE00
FE00
3E00
3E00
3E00
3E00
3E00
3E00
3E00
3E00
3E00
3E00
3E00
3E00
3E00
FF80
FFC0
ENDCHAR
STARTCHAR 006A
ENCODING 106
SWIDTH 275 0
DWIDTH 11 0
BBX 15 36 -6 -9
BITMAP
003C
007E
007E
007E
003C
0000
0000
0000
0000
001C
03FC
03FC
007C
007C
007C
007C
007C
007C
007C
007C
007C
007C
007C
007C
007C
007C
007C
007C
007C
0078
0078
20F0
78E0
FFC0
FF80
3C00
ENDCHAR
STARTCHAR 006B
ENCODING 107
SWIDTH 550 0
DWIDTH 22 0
BBX 21 30 1 0
BITMAP
060000
FE0000
FE0000
3E0000
3E0000
3E0000
3E0000
3E0000
3E0000
3E0000
3E0000
3E0000
3E0FF0
3E07F0
3E0780
3E0F00
3E3E00
3E7800
3EF000
3FE000
3FF000
3EF800
3E7C00
3E3E00
3E1F00
3E1F80
3E0FC0
3E07E0
FF83F8
FF81E0
ENDCHAR
STARTCHAR 006C
ENCODING 108
SWIDTH 300 0
DWIDTH 12 0
BBX 10 30 1 0
BITMAP
0600
FE00
FE00
3E00
3E00
3E00
3E00
3E00
3E00
3E00
3E00
3E00
3E00
3E00
3E00
3E00
3E00
3E00
3E00
3E00
3E00
3E00
3E00
3E00
3E00
3E00
3E00
3E00
FF80
FFC0
ENDCHAR
STARTCHAR 006D
ENCODING 109
SWIDTH 850 0
DWIDTH 34 0
BBX 34 18 0 0
BITMAP
060FC0F800
FF3FE3FC00
FF7FFFFE00
1FE3FC7E00
1F81F83E00
1F01F03E00
1F01F03E00
1F01F03E00
1F01F03E00
1F01F03E00
1F01F03E00
1F01F03E00
1F01F03E00
1F01F03E00
1F01F03E00
1F01F03E00
7FC7FCFF80
FFC7FCFFC0
ENDCHAR
STARTCHAR 006E
ENCODING 110
SWIDTH 575 0
DWIDTH 23 0
BBX 22 18 1 0
BITMAP
0E0F80
FE3FC0
FEFFE0
3FFFE0
3FC7E0
3F03E0
3E03E0
3E03E0
3E03E0
3E03E0
3E03E0
3E03E0
3E03E0
3E03E0
3E03E0
3E03E0
FF8FF8
FFDFFC
ENDCHAR
STARTCHAR 006F
ENCODING 111
SWIDTH 525 0
DWIDTH 21 0
BBX 19 18 1 0
BITMAP
01F800
07FE00
1E1F80
3C0F80
7C07C0
7807C0
F803E0
F803E0
F803E0
F803E0
F803E0
F803C0
7C03C0
7C0780
3E0780
3F0F00
0FFC00
03F000
ENDCHAR
STARTCHAR 0070
ENCODING 112
SWIDTH 550 0
DWIDTH 22 0
BBX 20 27 1 -9
BITMAP
0E1F00
FE7F80
FEFFC0
3F87E0
3F03E0
3E01F0
3E00F0
3E00F0
3E00F0
3E00F0
3E00F0
3E00E0
3E00E0
3E01C0
3FC3C0
3FFF80
3EFF00
3E3C00
3E0000
3E0000
3E0000
3E0000
3E0000
3E0000
3E0000
FFC000
FFC000
ENDCHAR
STARTCHAR 0071
ENCODING 113
SWIDTH 550 0
DWIDTH 22 0
BBX 21 27 1 -9
BITMAP
01F040
07FCE0
0E1FC0
3C0FC0
3C07C0
7807C0
F807C0
F807C0
F807C0
F807C0
F807C0
FC07C0
FC0FC0
7E1FC0
7FFFC0
3FF7C0
1FE7C0
0787C0
0007C0
0007C0
0007C0
0007C0
0007C0
0007C0
0007C0
003FF0
003FF8
ENDCHAR
STARTCHAR 0072
ENCODING 114
SWIDTH 450 0
DWIDTH 18 0
BBX 16 18 1 0
BITMAP
0E1E
FE7F
FEFF
3FFF
3FCF
1F87
1F06
1E06
1E00
1E00
1E00
1E00
1E00
1E00
1E00
3E00
FFC0
FFE0
ENDCHAR
STARTCHAR 0073
ENCODING 115
SWIDTH 425 0
DWIDTH 17 0
BBX 14 18 2 0
BITMAP
0FC0
3FF8
78F8
F070
F030
F830
FE00
7F80
3FE0
0FF8
03F8
C0FC
C07C
E03C
E03C
F878
FFF0
3FC0
ENDCHAR
STARTCHAR 0074
ENCODING 116
SWIDTH 375 0
DWIDTH 15 0
BBX 15 25 0 0
BITMAP
0300
0700
0F00
1F00
1F00
1F00
1F00
7FFE
FFFC
1F08
1F00
1F00
1F00
1F00
1F00
1F00
1F00
1F00
1F00
1F00
1F8C
1FFE
1FF8
0FE0
0780
ENDCHAR
STARTCHAR 0075
ENCODING 117
SWIDTH 575 0
DWIDTH 23 0
BBX 22 18 1 0
BITMAP
0E00E0
FE1FE0
7E07E0
3E03E0
3E03E0
3E03E0
3E03E0
3E03E0
3E03E0
3E03E0
3E03E0
3E03E0
3E03E0
3E07E0
3F1FFC
1FFBFC
1FF3F0
0FC1C0
ENDCHAR
STARTCHAR 0076
ENCODING 118
SWIDTH 500 0
DWIDTH 20 0
BBX 20 18 0 0
BITMAP
FF83F0
7F03F0
3E01C0
1F01C0
1F0180
0F0380
0F8300
0F8700
07C700
07CE00
03EE00
03EC00
01FC00
01FC00
00F800
00F800
00F000
006000
ENDCHAR
STARTCHAR 0077
ENCODING 119
SWIDTH 725 0
DWIDTH 29 0
BBX 28 18 0 0
BITMAP
FF8303F0
7F0381F0
3E0380C0
1E07C1C0
1F07C1C0
1F0FC1C0
0F0FE380
0F9DE380
0F9DF380
0799F300
07F8FF00
07F0FF00
03F07E00
03F07E00
03E03E00
01E03C00
01C01C00
01801800
ENDCHAR
STARTCHAR 0078
ENCODING 120
SWIDTH 525 0
DWIDTH 21 0
BBX 21 18 0 0
BITMAP
FFC7F0
FFC7F0
3F83C0
0F8380
0FC700
07EE00
03FC00
01F800
01F800
00FC00
01FE00
03BE00
071F00
061F80
0C0FC0
1C07E0
7F1FF8
FF1FF8
ENDCHAR
STARTCHAR 0079
ENCODING 121
SWIDTH 500 0
DWIDTH 20 0
BBX 21 27 -1 -9
BITMAP
7FC1F8
3F81F8
1F00E0
0F80E0
0F81C0
07C1C0
07C180
07C380
03E380
03E700
01F700
01F600
00FE00
00FE00
00FC00
007C00
007800
003800
003800
007000
007000
00E000
21E000
7FC000
7F8000
FF0000
7C0000
ENDCHAR
STARTCHAR 007A
ENCODING 122
SWIDTH 475 0
DWIDTH 19 0
BBX 16 18 1 0
BITMAP
3FFF
3FFF
703E
707E
607C
60F8
01F8
01F0
03E0
07E0
07C0
0F80
1F81
1F03
3E03
7C03
7FFF
FFFF
ENDCHAR
STARTCHAR 007B
ENCODING 123
SWIDTH 350 0
DWIDTH 14 0
BBX 11 37 2 -6
BITMAP
0060
01E0
03C0
0780
0F00
1F00
1F00
1F00
1F00
1F00
1F80
0F80
0F80
0F80
0F80
0F00
1F00
3E00
FC00
FF00
1F00
0F80
0F80
0F80
0F80
0F80
1F80
1F00
1F00
1F00
1F00
1F00
0F00
0F80
07C0
01E0
0060
ENDCHAR
STARTCHAR 007C
ENCODING 124
SWIDTH 225 0
DWIDTH 9 0
BBX 3 41 3 -8
BITMAP
60
E0
E0
E0
E0
E0
E0
E0
E0
E0
E0
E0
E0
E0
E0
E0
E0
E0
E0
E0
E0
E0
E0
E0
E0
E0
E0
E0
E0
E0
E0
E0
E0
E0
E0
E0
E0
E0
E0
E0
C0
ENDCHAR
STARTCHAR 007D
ENCODING 125
SWIDTH 350 0
DWIDTH 14 0
BBX 11 37 1 -6
BITMAP
C000
F000
7C00
3E00
1E00
1F00
1F00
1F00
1F00
1F00
3F00
3E00
3E00
3E00
3E00
3E00
1F00
1FE0
07E0
0F80
1F00
1E00
3E00
3E00
3E00
3E00
3F00
1F00
1F00
1F00
1F00
1F00
1E00
3C00
7800
F000
C000
ENDCHAR
STARTCHAR 007E
ENCODING 126
SWIDTH 500 0
DWIDTH 20 0
BBX 18 6 1 9
BITMAP
0F00C0
1FC080
3FE100
63FF00
C0FE00
803800
ENDCHAR
STARTCHAR 00A0
ENCODING 160
SWIDTH 250 0
DWIDTH 10 0
BBX 0 0 0 0
BITMAP
ENDCHAR
STARTCHAR 00A1
ENCODING 161
SWIDTH 300 0
DWIDTH 12 0
BBX 6 29 3 -11
BITMAP
78
FC
FC
FC
F8
70
00
10
30
38
38
78
78
78
78
78
78
78
78
78
78
78
7C
7C
FC
FC
FC
F8
C0
ENDCHAR
STARTCHAR 00A2
ENCODING 162
SWIDTH 500 0
DWIDTH 20 0
BBX 16 25 2 -1
BITMAP
00C0
01C0
01C0
01F8
07FF
1FFF
3DDF
79C6
79C6
71C0
F1C0
F1C0
F1C0
F1C0
F1C0
F1C0
79C3
7DC7
3FCE
1FFC
0FF8
03C0
01C0
01C0
0180
ENDCHAR
STARTCHAR 00A3
ENCODING 163
SWIDTH 500 0
DWIDTH 20 0
BBX 19 25 1 -1
BITMAP
007F00
01FFC0
03C7C0
0783C0
0701C0
0F0180
0F0180
1F0000
1F0000
1F0000
1F0000
1F0000
7FFC00
FFF800
1F0000
1F0000
1F0000
1F0000
1E0060
1E00C0
1E00C0
3FFFC0
7FFFC0
FFFFC0
401F80
ENDCHAR
STARTCHAR 00A4
ENCODING 164
SWIDTH 500 0
DWIDTH 20 0
BBX 17 16 1 4
BITMAP
400080
E00180
73F380
3FFF00
1E1E00
1C0E00
380700
380700
380700
380700
380700
1C0E00
3E1F00
7FFF80
F3F380
600180
ENDCHAR
STARTCHAR 00A5
ENCODING 165
SWIDTH 500 0
DWIDTH 20 0
BBX 22 24 -2 0
BITMAP
FE03FC
FF03FC
1F00F0
1F80E0
0FC1C0
07C1C0
07E380
03E380
03F780
01F700
00FF00
00FE00
00FE00
007C00
1FFFF0
1FFFE0
007C00
007C00
007C00
007C00
007C00
007C00
03FF80
03FF80
ENDCHAR
STARTCHAR 00A6
ENCODING 166
SWIDTH 225 0
DWIDTH 9 0
BBX 3 41 3 -8
BITMAP
60
E0
E0
E0
E0
E0
E0
E0
E0
E0
E0
E0
E0
E0
E0
E0
E0
E0
80
00
00
00
40
E0
E0
E0
E0
E0
E0
E0
E0
E0
E0
E0
E0
E0
E0
E0
E0
E0
C0
ENDCHAR
STARTCHAR 00A7
ENCODING 167
SWIDTH 500 0
DWIDTH 20 0
BBX 16 28 2 0
BITMAP
07E0
1FFC
3C7C
7838
7818
7C18
7F00
3FC0
3FF0
7FF8
F3FC
F0FE
F03F
F01F
F80F
7E0F
7F0F
3FCE
0FFE
03FC
00FE
307E
303E
301E
381E
3C3C
3FF8
0FE0
ENDCHAR
STARTCHAR 00A8
ENCODING 168
SWIDTH 400 0
DWIDTH 16 0
BBX 14 6 1 21
BITMAP
7038
783C
F87C
F87C
F078
7038
ENDCHAR
STARTCHAR 00A9
ENCODING 169
SWIDTH 750 0
DWIDTH 30 0
BBX 27 26 1 0
BITMAP
003F8000
01FFF000
07C07C00
0F001E00
1E000F00
3C1F8780
387FE380
70E1C1C0
71C1C1C0
E1C0C1E0
E38080E0
E38000E0
E38000E0
E38000E0
E38000E0
E38000E0
E1C001E0
71E021C0
70F071C0
387FE380
3C1F0780
1E000F00
0F001E00
07C07C00
01FFF000
003F8000
ENDCHAR
STARTCHAR 00AA
ENCODING 170
SWIDTH 275 0
DWIDTH 11 0
BBX 9 14 1 11
BITMAP
1E00
3E00
6700
E700
0700
3F00
6700
E700
E700
FF80
7700
0000
FF80
FF80
ENDCHAR
STARTCHAR 00AB
ENCODING 171
SWIDTH 525 0
DWIDTH 21 0
BBX 17 18 1 0
BITMAP
008080
018180
030300
070700
0E0E00
1E1E00
3C3C00
7C7C00
F8F800
FCF800
7C7C00
3C3C00
1E1E00
0E0E00
070700
030300
018180
008080
ENDCHAR
STARTCHAR 00AC
ENCODING 172
SWIDTH 500 0
DWIDTH 20 0
BBX 17 9 2 3
BITMAP
FFFF80
FFFF80
000380
000380
000380
000380
000380
000380
000300
ENDCHAR
STARTCHAR 00AD
ENCODING 173
SWIDTH 350 0
DWIDTH 14 0
BBX 12 2 1 9
BITMAP
7FF0
FFF0
ENDCHAR
STARTCHAR 00AE
ENCODING 174
SWIDTH 350 0
DWIDTH 14 0
BBX 13 15 1 14
BITMAP
0F80
1FC0
3060
6030
5F10
8988
8988
8F88
8B08
8908
4990
7CF0
3060
1FC0
0F80
ENDCHAR
STARTCHAR 00AF
ENCODING 175
SWIDTH 500 0
DWIDTH 20 0
BBX 16 3 2 23
BITMAP
FFFF
FFFF
FFFE
ENDCHAR
STARTCHAR 00B0
ENCODING 176
SWIDTH 350 0
DWIDTH 14 0
BBX 10 10 2 15
BITMAP
0F00
3F80
73C0
61C0
E1C0
E1C0
E180
F380
7F00
3C00
ENDCHAR
STARTCHAR 00B1
ENCODING 177
SWIDTH 400 0
DWIDTH 16 0
BBX 15 18 1 3
BITMAP
0180
0380
0380
0380
0380
0380
7FFE
FFFC
0380
0380
0380
0380
0380
0300
0000
0000
7FFE
FFFC
ENDCHAR
STARTCHAR 00B2
ENCODING 178
SWIDTH 325 0
DWIDTH 13 0
BBX 11 15 1 12
BITMAP
07C0
1FE0
38E0
78E0
70E0
00C0
01C0
0380
0300
0600
0C00
1820
3060
7FE0
FFE0
ENDCHAR
STARTCHAR 00B3
ENCODING 179
SWIDTH 325 0
DWIDTH 13 0
BBX 11 15 0 12
BITMAP
0780
1FE0
38E0
38E0
20E0
01C0
0380
07C0
00E0
00E0
00E0
80E0
E1C0
7FC0
1F00
ENDCHAR
STARTCHAR 00B4
ENCODING 180
SWIDTH 325 0
DWIDTH 13 0
BBX 9 10 4 20
BITMAP
0E00
1F80
1F80
3F00
3E00
3C00
7800
7000
E000
4000
ENDCHAR
STARTCHAR 00B5
ENCODING 181
SWIDTH 575 0
DWIDTH 23 0
BBX 22 27 1 -9
BITMAP
0E0060
FE07E0
FE03E0
3E03E0
3E03E0
3E03E0
3E03E0
3E03E0
3E03E0
3E03E0
3E03E0
3E03E0
3F07E0
3F8FE0
3FFFE4
3FFBFC
3BF1F8
39E1E0
380000
380000
3C0000
3C0000
3C0000
3E0000
3F0000
3E0000
300000
ENDCHAR
STARTCHAR 00B6
ENCODING 182
SWIDTH 600 0
DWIDTH 24 0
BBX 22 30 1 -5
BITMAP
03FFFC
1FFFFC
3F1DF0
7C1CE0
7C1CE0
F81CE0
F81CE0
F81CE0
F81CE0
F81CE0
7C1CE0
7E1CE0
3F1CE0
1FFCE0
03FCE0
001CE0
001CE0
001CE0
001CE0
001CE0
001CE0
001CE0
001CE0
001CE0
001CE0
001CE0
001CE0
001CE0
007FF8
00FFFC
ENDCHAR
STARTCHAR 00B7
ENCODING 183
SWIDTH 200 0
DWIDTH 8 0
BBX 6 6 1 11
BITMAP
38
7C
FC
FC
FC
78
ENDCHAR
STARTCHAR 00B8
ENCODING 184
SWIDTH 225 0
DWIDTH 9 0
BBX 8 9 1 -9
BITMAP
18
38
3C
3F
7F
1F
1E
FC
E0
ENDCHAR
STARTCHAR 00B9
ENCODING 185
SWIDTH 350 0
DWIDTH 14 0
BBX 10 15 2 12
BITMAP
0600
3E00
FE00
0E00
0E00
0E00
0E00
0E00
0E00
0E00
0E00
0E00
0E00
3F00
FFC0
ENDCHAR
STARTCHAR 00BA
ENCODING 186
SWIDTH 275 0
DWIDTH 11 0
BBX 9 14 1 11
BITMAP
1E00
3F00
7700
E380
E380
E380
E380
E380
7700
7E00
3C00
0000
FF80
FF80
ENDCHAR
STARTCHAR 00BB
ENCODING 187
SWIDTH 525 0
DWIDTH 21 0
BBX 17 18 2 0
BITMAP
404000
E0E000
707000
383800
3C3C00
1E1E00
1F1F00
0F8F80
0F8F80
0F8F80
0F8F80
1F1F00
1E1E00
3C3C00
383800
707000
606000
C0C000
ENDCHAR
STARTCHAR 00BC
ENCODING 188
SWIDTH 625 0
DWIDTH 25 0
BBX 22 24 2 0
BITMAP
0C0018
FC0038
1C0070
1C00E0
1C01C0
1C01C0
1C0380
1C0700
1C0600
1C0E00
3E1C00
FFB800
003870
0070F0
00E1F0
01C170
01C370
038670
070470
0E0FFC
0E1FF8
1C0070
380070
7001FC
ENDCHAR
STARTCHAR 00BD
ENCODING 189
SWIDTH 625 0
DWIDTH 25 0
BBX 21 24 2 0
BITMAP
0C0038
FC0070
1C0070
1C00E0
1C01C0
1C0380
1C0380
1C0700
1C0E00
1C1C00
3E1C00
FFB800
0071F0
00E3F8
00E638
01CE38
038030
070060
0700E0
0E00C0
1C0188
3C0708
380FF8
700FF8
ENDCHAR
STARTCHAR 00BE
ENCODING 190
SWIDTH 625 0
DWIDTH 25 0
BBX 23 24 1 0
BITMAP
1F000C
3F801C
738038
E38070
0700E0
1F00E0
0381C0
038380
038300
878700
FF0E00
3C1C00
001C38
003878
0070F8
00E0B8
00E1B8
01C338
038238
0707FE
070FFC
0E0038
1C0038
3800FE
ENDCHAR
STARTCHAR 00BF
ENCODING 191
SWIDTH 450 0
DWIDTH 18 0
BBX 16 29 1 -11
BITMAP
03C0
07E0
07E0
07E0
07C0
0380
0000
0000
01C0
01C0
01C0
01C0
03C0
0380
0780
0F00
1F00
3E00
3C00
7C00
F800
F807
F81F
F81F
F81F
FC1E
7E3C
3FF8
0FE0
ENDCHAR
STARTCHAR 00C0
ENCODING 192
SWIDTH 625 0
DWIDTH 25 0
BBX 25 34 0 0
BITMAP
00C00000
03E00000
03F00000
03F80000
00FC0000
003E0000
000F0000
00020000
00000000
00040000
001E0000
003E0000
007E0000
007F0000
006F0000
00EF8000
00EF8000
00C78000
01C7C000
01C7C000
0183C000
0383E000
0383E000
03FFE000
07FFF000
0700F000
0600F800
0E00F800
0E007800
0C007C00
1C007C00
1C007C00
FF81FF00
FF81FF80
ENDCHAR
STARTCHAR 00C1
ENCODING 193
SWIDTH 625 0
DWIDTH 25 0
BBX 25 34 0 0
BITMAP
00018000
0003C000
0007E000
000FC000
001F0000
007C0000
00F00000
00400000
00000000
00040000
001E0000
003E0000
007E0000
007F0000
006F0000
00EF8000
00EF8000
00C78000
01C7C000
01C7C000
0183C000
0383E000
0383E000
03FFE000
07FFF000
0700F000
0600F800
0E00F800
0E007800
0C007C00
1C007C00
1C007C00
FF81FF00
FF81FF80
ENDCHAR
STARTCHAR 00C2
ENCODING 194
SWIDTH 625 0
DWIDTH 25 0
BBX 25 34 0 0
BITMAP
001C0000
003E0000
007F0000
00FF8000
01FF8000
01E3C000
0380E000
02004000
00000000
00040000
001E0000
003E0000
007E0000
007F0000
006F0000
00EF8000
00EF8000
00C78000
01C7C000
01C7C000
0183C000
0383E000
0383E000
03FFE000
07FFF000
0700F000
0600F800
0E00F800
0E007800
0C007C00
1C007C00
1C007C00
FF81FF00
FF81FF80
ENDCHAR
STARTCHAR 00C3
ENCODING 195
SWIDTH 625 0
DWIDTH 25 0
BBX 25 33 0 0
BITMAP
00F83000
01FEF000
03FFE000
03FFC000
061F8000
06030000
04000000
00000000
00040000
001E0000
003E0000
007E0000
007F0000
006F0000
00EF8000
00EF8000
00C78000
01C7C000
01C7C000
0183C000
0383E000
0383E000
03FFE000
07FFF000
0700F000
0600F800
0E00F800
0E007800
0C007C00
1C007C00
1C007C00
FF81FF00
FF81FF80
ENDCHAR
STARTCHAR 00C4
ENCODING 196
SWIDTH 625 0
DWIDTH 25 0
BBX 25 32 0 0
BITMAP
01C0E000
03C1E000
07C3E000
07C3E000
03C1E000
0181C000
00000000
00040000
001E0000
003E0000
007E0000
007F0000
006F0000
00EF8000
00EF8000
00C78000
01C7C000
01C7C000
0183C000
0383E000
0383E000
03FFE000
07FFF000
0700F000
0600F800
0E00F800
0E007800
0C007C00
1C007C00
1C007C00
FF81FF00
FF81FF80
ENDCHAR
STARTCHAR 00C5
ENCODING 197
SWIDTH 625 0
DWIDTH 25 0
BBX 25 34 0 0
BITMAP
001E0000
007F0000
00770000
00670000
00E70000
00770000
007E0000
00380000
00000000
00040000
001E0000
003E0000
007E0000
007F0000
006F0000
00EF8000
00EF8000
00C78000
01C7C000
01C7C000
0183C000
0383E000
0383E000
03FFE000
07FFF000
0700F000
0600F800
0E00F800
0E007800
0C007C00
1C007C00
1C007C00
FF81FF00
FF81FF80
ENDCHAR
STARTCHAR 00C6
ENCODING 198
SWIDTH 800 0
DWIDTH 32 0
BBX 32 25 0 0
BITMAP
00FFFFFC
00FFFFFC
001FF01C
003DF00C
003DF00C
0039F00C
0079F00C
0071F000
00F1F000
00E1F000
00E1F000
01FFFFF0
01FFFFF0
03C1F020
0381F000
0381F000
0781F000
0701F000
0F01F000
0E01F003
0E01F003
1E01F006
1C01F00E
FF07FFFE
FF0FFFFE
ENDCHAR
STARTCHAR 00C7
ENCODING 199
SWIDTH 550 0
DWIDTH 22 0
BBX 20 34 1 -9
BITMAP
007F80
03FFF0
0787E0
0F01E0
1E00C0
3C0040
3C0000
7C0000
780000
780000
F80000
F80000
F80000
F80000
F80000
F80000
F80000
FC0000
7C0000
7E0000
7F0060
3F81E0
1FFFC0
0FFF00
07FE00
01F000
00E000
00F800
00FC00
01FC00
007C00
007800
01F000
01C000
ENDCHAR
STARTCHAR 00C8
ENCODING 200
SWIDTH 525 0
DWIDTH 21 0
BBX 19 34 1 0
BITMAP
060000
1F0000
1F8000
1FC000
07E000
01F000
007800
001000
000000
FFFFC0
FFFFC0
3E01C0
1E01C0
1E0180
1E0180
1E0080
1E0000
1E0000
1E0000
1E0000
1FFF00
1FFE00
1E0600
1E0000
1E0000
1E0000
1E0000
1E0000
1E0060
1E0060
1E00E0
3F01E0
FFFFE0
FFFFC0
ENDCHAR
STARTCHAR 00C9
ENCODING 201
SWIDTH 525 0
DWIDTH 21 0
BBX 19 34 1 0
BITMAP
000C00
001F00
003F00
007E00
00F800
01E000
038000
020000
000000
FFFFC0
FFFFC0
3E01C0
1E01C0
1E0180
1E0180
1E0080
1E0000
1E0000
1E0000
1E0000
1FFF00
1FFE00
1E0600
1E0000
1E0000
1E0000
1E0000
1E0000
1E0060
1E0060
1E00E0
3F01E0
FFFFE0
FFFFC0
ENDCHAR
STARTCHAR 00CA
ENCODING 202
SWIDTH 525 0
DWIDTH 21 0
BBX 19 34 1 0
BITMAP
00E000
01F000
03F800
07FC00
0FFC00
0F1E00
1C0700
100200
000000
FFFFC0
FFFFC0
3E01C0
1E01C0
1E0180
1E0180
1E0080
1E0000
1E0000
1E0000
1E0000
1FFF00
1FFE00
1E0600
1E0000
1E0000
1E0000
1E0000
1E0000
1E0060
1E0060
1E00E0
3F01E0
FFFFE0
FFFFC0
ENDCHAR
STARTCHAR 00CB
ENCODING 203
SWIDTH 525 0
DWIDTH 21 0
BBX 19 32 1 0
BITMAP
0E0700
1E0F00
1F0F80
1E0F00
1E0F00
0C0600
000000
FFFFC0
FFFFC0
3E01C0
1E01C0
1E0180
1E0180
1E0080
1E0000
1E0000
1E0000
1E0000
1FFF00
1FFE00
1E0600
1E0000
1E0000
1E0000
1E0000
1E0000
1E0060
1E0060
1E00E0
3F01E0
FFFFE0
FFFFC0
ENDCHAR
STARTCHAR 00CC
ENCODING 204
SWIDTH 325 0
DWIDTH 13 0
BBX 12 34 0 0
BITMAP
3000
F800
FC00
FE00
3F00
0F80
03C0
0080
0000
7FF0
3FF0
0F80
0F80
0F80
0F80
0F80
0F80
0F80
0F80
0F80
0F80
0F80
0F80
0F80
0F80
0F80
0F80
0F80
0F80
0F80
0F80
0F80
3FE0
7FF0
ENDCHAR
STARTCHAR 00CD
ENCODING 205
SWIDTH 325 0
DWIDTH 13 0
BBX 12 34 1 0
BITMAP
00C0
01E0
03F0
07E0
1F80
3E00
7800
2000
0000
FFE0
7FE0
1F00
1F00
1F00
1F00
1F00
1F00
1F00
1F00
1F00
1F00
1F00
1F00
1F00
1F00
1F00
1F00
1F00
1F00
1F00
1F00
1F00
7FC0
FFE0
ENDCHAR
STARTCHAR 00CE
ENCODING 206
SWIDTH 325 0
DWIDTH 13 0
BBX 13 34 0 0
BITMAP
0700
0F80
1FC0
3FE0
7FE0
F8F0
E038
8010
0000
7FF0
3FF0
0F80
0F80
0F80
0F80
0F80
0F80
0F80
0F80
0F80
0F80
0F80
0F80
0F80
0F80
0F80
0F80
0F80
0F80
0F80
0F80
0F80
3FE0
7FF0
ENDCHAR
STARTCHAR 00CF
ENCODING 207
SWIDTH 325 0
DWIDTH 13 0
BBX 14 32 -1 0
BITMAP
381C
783C
F87C
F87C
783C
7038
0000
3FF8
1FF8
07C0
07C0
07C0
07C0
07C0
07C0
07C0
07C0
07C0
07C0
07C0
07C0
07C0
07C0
07C0
07C0
07C0
07C0
07C0
07C0
07C0
1FF0
3FF8
ENDCHAR
STARTCHAR 00D0
ENCODING 208
SWIDTH 625 0
DWIDTH 25 0
BBX 22 25 1 0
BITMAP
0FFC00
FFFF80
FF0FC0
1F03E0
1F01F0
1F01F8
1F00F8
1F00F8
1F007C
1F007C
1F007C
FFF87C
FFF87C
1F007C
1F007C
1F007C
1F0078
1F00F8
1F00F8
1F01F0
1F01F0
1F03E0
1F07C0
7FFF80
FFFC00
ENDCHAR
STARTCHAR 00D1
ENCODING 209
SWIDTH 675 0
DWIDTH 27 0
BBX 25 33 1 0
BITMAP
00F03000
01FEE000
03FFE000
03FFC000
061F8000
06030000
04000000
00000000
FE00FF80
FF007F00
1F001C00
1F801C00
1FC01C00
1FC01C00
1FE01C00
1DF01C00
1DF81C00
1CF81C00
1C7C1C00
1C7E1C00
1C3E1C00
1C1F1C00
1C0F9C00
1C0F9C00
1C07DC00
1C03FC00
1C03FC00
1C01FC00
1C00FC00
1C00FC00
1C007C00
7F003C00
FF800C00
ENDCHAR
STARTCHAR 00D2
ENCODING 210
SWIDTH 625 0
DWIDTH 25 0
BBX 23 34 1 0
BITMAP
018000
07C000
07E000
07F000
01F800
007C00
001E00
000400
000000
007E00
03FFC0
0787E0
0E01F0
1E00F8
3C00F8
3C007C
7C007C
78007E
F8003E
F8003E
F8003E
F8003E
F8003E
F8003E
F8003E
FC003C
7C007C
7C0078
3E0078
3E00F0
1F01E0
0FC3C0
07FF00
00FC00
ENDCHAR
STARTCHAR 00D3
ENCODING 211
SWIDTH 625 0
DWIDTH 25 0
BBX 23 34 1 0
BITMAP
000300
0007C0
000FC0
001F80
003E00
007800
00E000
008000
000000
007E00
03FFC0
0787E0
0E01F0
1E00F8
3C00F8
3C007C
7C007C
78007E
F8003E
F8003E
F8003E
F8003E
F8003E
F8003E
F8003E
FC003C
7C007C
7C0078
3E0078
3E00F0
1F01E0
0FC3C0
07FF00
00FC00
ENDCHAR
STARTCHAR 00D4
ENCODING 212
SWIDTH 625 0
DWIDTH 25 0
BBX 23 34 1 0
BITMAP
003800
007C00
00FE00
01FF00
03FF00
03C780
0701C0
040080
000000
007E00
03FFC0
0787E0
0E01F0
1E00F8
3C00F8
3C007C
7C007C
78007E
F8003E
F8003E
F8003E
F8003E
F8003E
F8003E
F8003E
FC003C
7C007C
7C0078
3E0078
3E00F0
1F01E0
0FC3C0
07FF00
00FC00
ENDCHAR
STARTCHAR 00D5
ENCODING 213
SWIDTH 625 0
DWIDTH 25 0
BBX 23 33 1 0
BITMAP
01F060
03FCE0
07FFC0
07FF80
0E3F80
0C0600
080000
000000
007E00
03FFC0
0787E0
0E01F0
1E00F8
3C00F8
3C007C
7C007C
78007E
F8003E
F8003E
F8003E
F8003E
F8003E
F8003E
F8003E
FC003C
7C007C
7C0078
3E0078
3E00F0
1F01E0
0FC3C0
07FF00
00FC00
ENDCHAR
STARTCHAR 00D6
ENCODING 214
SWIDTH 625 0
DWIDTH 25 0
BBX 23 32 1 0
BITMAP
0381C0
0783C0
07C3E0
0783C0
0783C0
030180
000000
007E00
03FFC0
0787E0
0E01F0
1E00F8
3C00F8
3C007C
7C007C
78007E
F8003E
F8003E
F8003E
F8003E
F8003E
F8003E
F8003E
FC003C
7C007C
7C0078
3E0078
3E00F0
1F01E0
0FC3C0
07FF00
00FC00
ENDCHAR
STARTCHAR 00D7
ENCODING 215
SWIDTH 425 0
DWIDTH 17 0
BBX 13 12 2 5
BITMAP
6030
F078
78F0
3DE0
1FC0
0F80
0F80
1FC0
39E0
78F0
F078
6030
ENDCHAR
STARTCHAR 00D8
ENCODING 216
SWIDTH 625 0
DWIDTH 25 0
BBX 23 26 1 -1
BITMAP
007E1E
03FFFC
0787F8
0E03F0
1E01F8
3C01FC
3C03FC
7C07FC
780FFE
F80F7E
F81E3E
F83E3E
F83C3E
F8783E
F8F03E
F8F03E
FDE03C
7FC07C
7F8078
7F8078
3F00F0
1F81E0
3FC3C0
7FFF00
F0FC00
C00000
ENDCHAR
STARTCHAR 00D9
ENCODING 217
SWIDTH 675 0
DWIDTH 27 0
BBX 25 34 1 0
BITMAP
00C00000
03E00000
03F00000
03F80000
00FC0000
001E0000
00070000
00020000
00000000
FFE0FF80
7FE0FF00
1F001C00
1F001C00
1F001C00
1F001C00
1F001C00
1F001C00
1F001C00
1F001C00
1F001C00
1F001C00
1F001C00
1F001C00
1F001C00
1F001C00
1F001C00
1F001C00
1F001800
0F803800
0F803800
07C07000
03E0E000
01FFC000
007F0000
ENDCHAR
STARTCHAR 00DA
ENCODING 218
SWIDTH 675 0
DWIDTH 27 0
BBX 25 34 1 0
BITMAP
00018000
0003E000
0007E000
000FC000
001F0000
003C0000
00700000
00400000
00000000
FFE0FF80
7FE0FF00
1F001C00
1F001C00
1F001C00
1F001C00
1F001C00
1F001C00
1F001C00
1F001C00
1F001C00
1F001C00
1F001C00
1F001C00
1F001C00
1F001C00
1F001C00
1F001C00
1F001800
0F803800
0F803800
07C07000
03E0E000
01FFC000
007F0000
ENDCHAR
STARTCHAR 00DB
ENCODING 219
SWIDTH 675 0
DWIDTH 27 0
BBX 25 34 1 0
BITMAP
001C0000
003E0000
007F0000
00FF8000
01FFC000
01E3C000
0380E000
02004000
00000000
FFE0FF80
7FE0FF00
1F001C00
1F001C00
1F001C00
1F001C00
1F001C00
1F001C00
1F001C00
1F001C00
1F001C00
1F001C00
1F001C00
1F001C00
1F001C00
1F001C00
1F001C00
1F001C00
1F001800
0F803800
0F803800
07C07000
03E0E000
01FFC000
007F0000
ENDCHAR
STARTCHAR 00DC
ENCODING 220
SWIDTH 675 0
DWIDTH 27 0
BBX 25 32 1 0
BITMAP
01C0E000
03E1F000
03E1F000
03C1E000
03C1E000
0180C000
00000000
FFE0FF80
7FE0FF00
1F001C00
1F001C00
1F001C00
1F001C00
1F001C00
1F001C00
1F001C00
1F001C00
1F001C00
1F001C00
1F001C00
1F001C00
1F001C00
1F001C00
1F001C00
1F001C00
1F001800
0F803800
0F803800
07C07000
03E0E000
01FFC000
007F0000
ENDCHAR
STARTCHAR 00DD
ENCODING 221
SWIDTH 625 0
DWIDTH 25 0
BBX 24 34 0 0
BITMAP
000180
0003C0
0007E0
001FC0
003F00
007C00
00F000
004000
000000
7E00FF
FF00FF
1F0038
0F8038
0FC070
07C070
03E0E0
03E0E0
01F1C0
01F1C0
00FB80
00FB80
007F00
007F00
003E00
003E00
003E00
003E00
003E00
003E00
003E00
003E00
003E00
01FFC0
01FFC0
ENDCHAR
STARTCHAR 00DE
ENCODING 222
SWIDTH 575 0
DWIDTH 23 0
BBX 21 25 1 0
BITMAP
FFE000
7FE000
1F0000
1F0000
1F0000
1FFE00
1FFFC0
1F07E0
1F03F0
1F01F8
1F00F8
1F00F8
1F00F8
1F00F8
1F00F8
1F01F0
1F01F0
1F87E0
1F7F80
1F3E00
1F0000
1F0000
1F0000
7FE000
FFE000
ENDCHAR
STARTCHAR 00DF
ENCODING 223
SWIDTH 625 0
DWIDTH 25 0
BBX 23 30 0 0
BITMAP
001F80
00FFE0
01C3F0
0380F8
0780F8
0F007C
0F007C
0F007C
1F007C
1F00F8
1F01F8
1F07F0
1F0F80
1F1F00
1F1E00
1F1E00
1F1F00
1F1F80
1F0FE0
1F07F8
1F03FC
1F00FC
1F007E
1F303E
1F301E
1F301E
1F381C
1F3C3C
7F3FF8
FF0FE0
ENDCHAR
STARTCHAR 00E0
ENCODING 224
SWIDTH 500 0
DWIDTH 20 0
BBX 19 30 1 0
BITMAP
070000
1F8000
0F8000
0FC000
07C000
03E000
01E000
00E000
007000
003000
000000
000000
01F800
0FFE00
3E3F00
7C1F00
7C1F00
701F00
001F00
01FF00
0FFF00
3F1F00
7C1F00
781F00
F81F00
F81F20
F87FE0
FFDFC0
7F9F80
3E0E00
ENDCHAR
STARTCHAR 00E1
ENCODING 225
SWIDTH 500 0
DWIDTH 20 0
BBX 19 30 1 0
BITMAP
003800
003E00
007E00
007C00
00F800
00F000
01E000
01C000
038000
010000
000000
000000
01F800
0FFE00
3E3F00
7C1F00
7C1F00
701F00
001F00
01FF00
0FFF00
3F1F00
7C1F00
781F00
F81F00
F81F20
F87FE0
FFDFC0
7F9F80
3E0E00
ENDCHAR
STARTCHAR 00E2
ENCODING 226
SWIDTH 500 0
DWIDTH 20 0
BBX 19 29 1 0
BITMAP
01E000
01E000
03F000
07F800
07FC00
0F3C00
1E1E00
380700
100200
000000
000000
01F800
0FFE00
3E3F00
7C1F00
7C1F00
701F00
001F00
01FF00
0FFF00
3F1F00
7C1F00
781F00
F81F00
F81F20
F87FE0
FFDFC0
7F9F80
3E0E00
ENDCHAR
STARTCHAR 00E3
ENCODING 227
SWIDTH 500 0
DWIDTH 20 0
BBX 19 27 1 0
BITMAP
078180
0FE300
1FFF00
3FFE00
31FC00
603800
000000
000000
000000
01F800
0FFE00
3E3F00
7C1F00
7C1F00
701F00
001F00
01FF00
0FFF00
3F1F00
7C1F00
781F00
F81F00
F81F20
F87FE0
FFDFC0
7F9F80
3E0E00
ENDCHAR
STARTCHAR 00E4
ENCODING 228
SWIDTH 500 0
DWIDTH 20 0
BBX 19 27 1 0
BITMAP
0C0600
1E0F00
3E1F00
3E1F00
3E1F00
1C0E00
000000
000000
000000
01F800
0FFE00
3E3F00
7C1F00
7C1F00
701F00
001F00
01FF00
0FFF00
3F1F00
7C1F00
781F00
F81F00
F81F20
F87FE0
FFDFC0
7F9F80
3E0E00
ENDCHAR
STARTCHAR 00E5
ENCODING 229
SWIDTH 500 0
DWIDTH 20 0
BBX 19 28 1 0
BITMAP
00F000
03F800
03B800
073800
073800
073800
03F000
01E000
000000
000000
01F800
0FFE00
3E3F00
7C1F00
7C1F00
701F00
001F00
01FF00
0FFF00
3F1F00
7C1F00
781F00
F81F00
F81F20
F87FE0
FFDFC0
7F9F80
3E0E00
ENDCHAR
STARTCHAR 00E6
ENCODING 230
SWIDTH 725 0
DWIDTH 29 0
BBX 27 18 1 0
BITMAP
00FC3E00
07FEFF80
0FBFC780
1E0F83C0
3E0F81C0
7C0F01E0
000F01E0
00FFFFE0
0FFFFFC0
1F0F0000
7C0F0000
780F0000
F80F8000
F81F8060
FC7FE1E0
FFE3FFC0
7FC1FF00
3F007C00
ENDCHAR
STARTCHAR 00E7
ENCODING 231
SWIDTH 450 0
DWIDTH 18 0
BBX 17 27 1 -9
BITMAP
01FC00
07FF00
1F1F00
3C0F00
3C0700
780600
780000
F80000
F80000
F80000
F80000
F80000
FC0000
7E0100
7F0780
3FFE00
1FFC00
07F000
01C000
01C000
01F000
03F800
00F800
00F800
01F000
03E000
070000
ENDCHAR
STARTCHAR 00E8
ENCODING 232
SWIDTH 475 0
DWIDTH 19 0
BBX 17 30 1 0
BITMAP
038000
0F8000
1FC000
07C000
03C000
01E000
00E000
007000
003000
003800
000000
000000
01F000
0FFC00
1E3E00
3C1F00
780F00
780F80
F80F80
FFFF80
FFFE00
F80000
F80000
F80000
FC0000
7E0180
7F0700
3FFE00
1FFC00
07F000
ENDCHAR
STARTCHAR 00E9
ENCODING 233
SWIDTH 475 0
DWIDTH 19 0
BBX 17 30 1 0
BITMAP
003C00
003F00
003E00
007C00
007800
00F000
00F000
01E000
01C000
018000
000000
000000
01F000
0FFC00
1E3E00
3C1F00
780F00
780F80
F80F80
FFFF80
FFFE00
F80000
F80000
F80000
FC0000
7E0180
7F0700
3FFE00
1FFC00
07F000
ENDCHAR
STARTCHAR 00EA
ENCODING 234
SWIDTH 475 0
DWIDTH 19 0
BBX 17 29 1 0
BITMAP
00E000
01F000
03F800
03F800
07FC00
0F1E00
0E0E00
1C0700
180300
000000
000000
01F000
0FFC00
1E3E00
3C1F00
780F00
780F80
F80F80
FFFF80
FFFE00
F80000
F80000
F80000
FC0000
7E0180
7F0700
3FFE00
1FFC00
07F000
ENDCHAR
STARTCHAR 00EB
ENCODING 235
SWIDTH 475 0
DWIDTH 19 0
BBX 17 27 1 0
BITMAP
0E0700
1E0F00
1F0F80
1E0F00
1E0F00
1C0E00
000000
000000
000000
01F000
0FFC00
1E3E00
3C1F00
780F00
780F80
F80F80
FFFF80
FFFE00
F80000
F80000
F80000
FC0000
7E0180
7F0700
3FFE00
1FFC00
07F000
ENDCHAR
STARTCHAR 00EC
ENCODING 236
SWIDTH 300 0
DWIDTH 12 0
BBX 11 30 0 0
BITMAP
3800
FC00
7C00
3E00
3E00
1F00
0F00
0780
0380
0180
0000
0000
0700
7F00
7F00
1F00
1F00
1F00
1F00
1F00
1F00
1F00
1F00
1F00
1F00
1F00
1F00
1F00
7FC0
7FE0
ENDCHAR
STARTCHAR 00ED
ENCODING 237
SWIDTH 300 0
DWIDTH 12 0
BBX 11 30 1 0
BITMAP
0380
03E0
07E0
07C0
0F80
0F00
1E00
1C00
1800
3000
0000
0000
0E00
FE00
FE00
3E00
3E00
3E00
3E00
3E00
3E00
3E00
3E00
3E00
3E00
3E00
3E00
3E00
FF80
FFC0
ENDCHAR
STARTCHAR 00EE
ENCODING 238
SWIDTH 300 0
DWIDTH 12 0
BBX 14 29 -1 0
BITMAP
0780
07C0
0FC0
1FE0
1FF0
3CF0
7878
701C
C008
0000
0000
0380
3F80
3F80
0F80
0F80
0F80
0F80
0F80
0F80
0F80
0F80
0F80
0F80
0F80
0F80
0F80
3FE0
3FF0
ENDCHAR
STARTCHAR 00EF
ENCODING 239
SWIDTH 300 0
DWIDTH 12 0
BBX 14 27 -1 0
BITMAP
3018
783C
F87C
F87C
F87C
7038
0000
0000
0000
0380
3F80
3F80
0F80
0F80
0F80
0F80
0F80
0F80
0F80
0F80
0F80
0F80
0F80
0F80
0F80
3FE0
3FF0
ENDCHAR
STARTCHAR 00F0
ENCODING 240
SWIDTH 500 0
DWIDTH 20 0
BBX 18 29 1 0
BITMAP
030000
1FC000
3FE7C0
03FF00
00FC00
03FC00
0FFC00
1E1E00
001F00
000F00
000F80
03E780
0FFF80
1E3FC0
3C1FC0
7C0FC0
7807C0
F807C0
F807C0
F807C0
F807C0
F80780
F80780
7C0F80
7C0F00
7E0E00
3F1C00
0FF800
03E000
ENDCHAR
STARTCHAR 00F1
ENCODING 241
SWIDTH 575 0
DWIDTH 23 0
BBX 22 27 1 0
BITMAP
01C040
03F8E0
07FFC0
0FFF80
0C7F00
181E00
000000
000000
000000
0E0F80
FE3FC0
FEFFE0
3FFFE0
3FC7E0
3F03E0
3E03E0
3E03E0
3E03E0
3E03E0
3E03E0
3E03E0
3E03E0
3E03E0
3E03E0
3E03E0
FF8FF8
FFDFFC
ENDCHAR
STARTCHAR 00F2
ENCODING 242
SWIDTH 525 0
DWIDTH 21 0
BBX 19 30 1 0
BITMAP
038000
0FC000
0FC000
07C000
03E000
01E000
00F000
007000
003800
001000
000000
000000
01F800
07FE00
1E1F80
3C0F80
7C07C0
7807C0
F803E0
F803E0
F803E0
F803E0
F803E0
F803C0
7C03C0
7C0780
3E0780
3F0F00
0FFC00
03F000
ENDCHAR
STARTCHAR 00F3
ENCODING 243
SWIDTH 525 0
DWIDTH 21 0
BBX 19 30 1 0
BITMAP
001C00
003F00
003F00
003E00
007C00
007800
00F000
00E000
01C000
008000
000000
000000
01F800
07FE00
1E1F80
3C0F80
7C07C0
7807C0
F803E0
F803E0
F803E0
F803E0
F803E0
F803C0
7C03C0
7C0780
3E0780
3F0F00
0FFC00
03F000
ENDCHAR
STARTCHAR 00F4
ENCODING 244
SWIDTH 525 0
DWIDTH 21 0
BBX 19 29 1 0
BITMAP
00F000
00F000
01F800
03FC00
07FC00
079E00
0F0F00
1C0300
080180
000000
000000
01F800
07FE00
1E1F80
3C0F80
7C07C0
7807C0
F803E0
F803E0
F803E0
F803E0
F803E0
F803C0
7C03C0
7C0780
3E0780
3F0F00
0FFC00
03F000
ENDCHAR
STARTCHAR 00F5
ENCODING 245
SWIDTH 525 0
DWIDTH 21 0
BBX 19 27 1 0
BITMAP
038080
07F1C0
0FFF80
1FFF00
18FE00
303C00
000000
000000
000000
01F800
07FE00
1E1F80
3C0F80
7C07C0
7807C0
F803E0
F803E0
F803E0
F803E0
F803E0
F803C0
7C03C0
7C0780
3E0780
3F0F00
0FFC00
03F000
ENDCHAR
STARTCHAR 00F6
ENCODING 246
SWIDTH 525 0
DWIDTH 21 0
BBX 19 27 1 0
BITMAP
0E0700
0F0780
1F0F80
1F0F80
1E0F00
0E0700
000000
000000
000000
01F800
07FE00
1E1F80
3C0F80
7C07C0
7807C0
F803E0
F803E0
F803E0
F803E0
F803E0
F803C0
7C03C0
7C0780
3E0780
3F0F00
0FFC00
03F000
ENDCHAR
STARTCHAR 00F7
ENCODING 247
SWIDTH 425 0
DWIDTH 17 0
BBX 15 15 1 3
BITMAP
0300
0700
0700
0700
0600
0000
7FFE
FFFC
0000
0000
0300
0700
0700
0700
0600
ENDCHAR
STARTCHAR 00F8
ENCODING 248
SWIDTH 525 0
DWIDTH 21 0
BBX 19 20 1 -1
BITMAP
000020
01F8E0
07FFC0
1E1F80
3C0FC0
3C1FC0
781FE0
783BE0
F873E0
F8E3E0
F9E3E0
F9C3E0
FB83C0
7F03C0
7E0780
3E0780
3F0F00
3FFC00
63F000
C00000
ENDCHAR
STARTCHAR 00F9
ENCODING 249
SWIDTH 575 0
DWIDTH 23 0
BBX 22 30 1 0
BITMAP
038000
07C000
0FC000
03E000
01E000
00F000
00F000
007800
003800
001800
000000
000000
0E00E0
FE1FE0
7E07E0
3E03E0
3E03E0
3E03E0
3E03E0
3E03E0
3E03E0
3E03E0
3E03E0
3E03E0
3E03E0
3E07E0
3F1FFC
1FFBFC
1FF3F0
0FC1C0
ENDCHAR
STARTCHAR 00FA
ENCODING 250
SWIDTH 575 0
DWIDTH 23 0
BBX 22 30 1 0
BITMAP
001E00
001F00
003F80
003E00
007C00
007800
007000
00E000
00E000
01C000
000000
000000
0E00E0
FE1FE0
7E07E0
3E03E0
3E03E0
3E03E0
3E03E0
3E03E0
3E03E0
3E03E0
3E03E0
3E03E0
3E03E0
3E07E0
3F1FFC
1FFBFC
1FF3F0
0FC1C0
ENDCHAR
STARTCHAR 00FB
ENCODING 251
SWIDTH 575 0
DWIDTH 23 0
BBX 22 29 1 0
BITMAP
007000
00F800
01F800
03FC00
03FE00
079E00
0F0700
0E0380
080100
000000
000000
0E00E0
FE1FE0
7E07E0
3E03E0
3E03E0
3E03E0
3E03E0
3E03E0
3E03E0
3E03E0
3E03E0
3E03E0
3E03E0
3E07E0
3F1FFC
1FFBFC
1FF3F0
0FC1C0
ENDCHAR
STARTCHAR 00FC
ENCODING 252
SWIDTH 575 0
DWIDTH 23 0
BBX 22 27 1 0
BITMAP
070380
0F0780
1F0F80
1F0F80
1F0F80
0E0700
000000
000000
000000
0E00E0
FE1FE0
7E07E0
3E03E0
3E03E0
3E03E0
3E03E0
3E03E0
3E03E0
3E03E0
3E03E0
3E03E0
3E03E0
3E07E0
3F1FFC
1FFBFC
1FF3F0
0FC1C0
ENDCHAR
STARTCHAR 00FD
ENCODING 253
SWIDTH 500 0
DWIDTH 20 0
BBX 21 39 -1 -9
BITMAP
000700
000FC0
000F80
001F00
001F00
003E00
003C00
007800
007000
006000
000000
000000
7FC1F8
3F81F8
1F00E0
0F80E0
0F81C0
07C1C0
07C180
07C380
03E380
03E700
01F700
01F600
00FE00
00FE00
00FC00
007C00
007800
003800
003800
007000
007000
00E000
21E000
7FC000
7F8000
FF0000
7C0000
ENDCHAR
STARTCHAR 00FE
ENCODING 254
SWIDTH 550 0
DWIDTH 22 0
BBX 20 39 1 -9
BITMAP
060000
FE0000
FE0000
3E0000
3E0000
3E0000
3E0000
3E0000
3E0000
3E0000
3E0000
3E0000
3E1F00
3E7F80
3EFFC0
3F87E0
3F03E0
3E01F0
3E00F0
3E00F0
3E00F0
3E00F0
3E00F0
3E00E0
3E00E0
3E01C0
3FC3C0
3FFF80
3EFF00
3E3C00
3E0000
3E0000
3E0000
3E0000
3E0000
3E0000
3E0000
FFC000
FFC000
ENDCHAR
STARTCHAR 00FF
ENCODING 255
SWIDTH 500 0
DWIDTH 20 0
BBX 21 36 -1 -9
BITMAP
0381C0
07C3E0
07C3E0
07C3E0
0783C0
070380
000000
000000
000000
7FC1F8
3F81F8
1F00E0
0F80E0
0F81C0
07C1C0
07C180
07C380
03E380
03E700
01F700
01F600
00FE00
00FE00
00FC00
007C00
007800
003800
003800
007000
007000
00E000
21E000
7FC000
7F8000
FF0000
7C0000
ENDCHAR
STARTCHAR 0100
ENCODING 256
SWIDTH 625 0
DWIDTH 25 0
BBX 25 31 0 0
BITMAP
07FFF800
0FFFF000
07FFF000
00000000
00000000
00000000
00040000
001E0000
003E0000
007E0000
007F0000
006F0000
00EF8000
00EF8000
00C78000
01C7C000
01C7C000
0183C000
0383E000
0383E000
03FFE000
07FFF000
0700F000
0600F800
0E00F800
0E007800
0C007C00
1C007C00
1C007C00
FF81FF00
FF81FF80
ENDCHAR
STARTCHAR 0101
ENCODING 257
SWIDTH 500 0
DWIDTH 20 0
BBX 19 26 1 0
BITMAP
3FFFC0
7FFF80
7FFF80
000000
000000
000000
000000
000000
01F800
0FFE00
3E3F00
7C1F00
7C1F00
701F00
001F00
01FF00
0FFF00
3F1F00
7C1F00
781F00
F81F00
F81F20
F87FE0
FFDFC0
7F9F80
3E0E00
ENDCHAR
STARTCHAR 0102
ENCODING 258
SWIDTH 625 0
DWIDTH 25 0
BBX 25 34 0 0
BITMAP
02006000
0780E000
03E3E000
01FFC000
01FF8000
007F0000
001C0000
00000000
00000000
00040000
001E0000
003E0000
007E0000
007F0000
006F0000
00EF8000
00EF8000
00C78000
01C7C000
01C7C000
0183C000
0383E000
0383E000
03FFE000
07FFF000
0700F000
0600F800
0E00F800
0E007800
0C007C00
1C007C00
1C007C00
FF81FF00
FF81FF80
ENDCHAR
STARTCHAR 0103
ENCODING 259
SWIDTH 500 0
DWIDTH 20 0
BBX 19 28 1 0
BITMAP
100200
380700
1E1E00
1FFE00
0FFC00
07F800
01E000
000000
000000
000000
01F800
0FFE00
3E3F00
7C1F00
7C1F00
701F00
001F00
01FF00
0FFF00
3F1F00
7C1F00
781F00
F81F00
F81F20
F87FE0
FFDFC0
7F9F80
3E0E00
ENDCHAR
STARTCHAR 0106
ENCODING 262
SWIDTH 550 0
DWIDTH 22 0
BBX 20 34 1 0
BITMAP
000300
0007C0
000FC0
001F80
003E00
007800
00E000
008000
000000
007F80
03FFF0
0787E0
0F01E0
1E00C0
3C0040
3C0000
7C0000
780000
F80000
F80000
F80000
F80000
F80000
F80000
F80000
FC0000
7C0000
7C0000
7E0020
3F0070
1FC1E0
0FFFC0
07FF00
01FC00
ENDCHAR
STARTCHAR 0107
ENCODING 263
SWIDTH 450 0
DWIDTH 18 0
BBX 16 30 1 0
BITMAP
0038
003E
007E
007C
00F8
00F0
01E0
01C0
0380
0100
0000
0000
01FC
07FF
1F1F
3C0F
3C07
7806
7800
F800
F800
F800
F800
F800
7C00
7E03
3F07
3FFE
0FFC
03F0
ENDCHAR
STARTCHAR 0108
ENCODING 264
SWIDTH 550 0
DWIDTH 22 0
BBX 20 34 1 0
BITMAP
003800
007C00
00FE00
01FF00
03FF00
03C780
0701C0
040080
000000
007F80
03FFF0
0787E0
0F01E0
1E00C0
3C0040
3C0000
7C0000
780000
F80000
F80000
F80000
F80000
F80000
F80000
F80000
FC0000
7C0000
7C0000
7E0020
3F0070
1FC1E0
0FFFC0
07FF00
01FC00
ENDCHAR
STARTCHAR 0109
ENCODING 265
SWIDTH 450 0
DWIDTH 18 0
BBX 16 29 1 0
BITMAP
01E0
01E0
03F0
07F8
0FF8
0F3C
1E1E
3807
1002
0000
0000
01FC
07FF
1F1F
3C0F
3C07
7806
7800
F800
F800
F800
F800
F800
7C00
7E03
3F07
3FFE
0FFC
03F0
ENDCHAR
STARTCHAR 010A
ENCODING 266
SWIDTH 550 0
DWIDTH 22 0
BBX 20 32 1 0
BITMAP
003800
007800
007C00
00F800
007800
003000
000000
007F80
03FFF0
0787E0
0F01E0
1E00C0
3C0040
3C0000
7C0000
780000
F80000
F80000
F80000
F80000
F80000
F80000
F80000
FC0000
7C0000
7C0000
7E0020
3F0070
1FC1E0
0FFFC0
07FF00
01FC00
ENDCHAR
STARTCHAR 010B
ENCODING 267
SWIDTH 450 0
DWIDTH 18 0
BBX 16 27 1 0
BITMAP
01C0
01E0
03E0
03E0
03E0
01C0
0000
0000
0000
01FC
07FF
1F1F
3C0F
3C07
7806
7800
F800
F800
F800
F800
F800
7C00
7E03
3F07
3FFE
0FFC
03F0
ENDCHAR
STARTCHAR 010C
ENCODING 268
SWIDTH 550 0
DWIDTH 22 0
BBX 20 34 1 0
BITMAP
0600C0
078380
03C780
01FF00
00FE00
007C00
003800
000000
000000
007F80
03FFF0
0787E0
0F01E0
1E00C0
3C0040
3C0000
7C0000
780000
F80000
F80000
F80000
F80000
F80000
F80000
F80000
FC0000
7C0000
7C0000
7E0020
3F0070
1FC1E0
0FFFC0
07FF00
01FC00
ENDCHAR
STARTCHAR 010D
ENCODING 269
SWIDTH 450 0
DWIDTH 18 0
BBX 16 30 1 0
BITMAP
1002
380F
1E1E
0F3C
0FF8
07F8
03F0
01E0
01E0
0000
0000
0000
01FC
07FF
1F1F
3C0F
3C07
7806
7800
F800
F800
F800
F800
F800
7C00
7E03
3F07
3FFE
0FFC
03F0
ENDCHAR
STARTCHAR 010E
ENCODING 270
SWIDTH 625 0
DWIDTH 25 0
BBX 22 34 1 0
BITMAP
0C0180
0F0780
078F00
03FE00
01FC00
00F800
007000
000000
000000
0FFC00
FFFF80
FF0FC0
1F03E0
1F01F0
1F01F8
1F00F8
1F00F8
1F007C
1F007C
1F007C
1F007C
1F007C
1F007C
1F007C
1F007C
1F0078
1F00F8
1F00F8
1F01F0
1F01F0
1F03E0
1F07C0
7FFF80
FFFC00
ENDCHAR
STARTCHAR 0110
ENCODING 272
SWIDTH 625 0
DWIDTH 25 0
BBX 22 25 1 0
BITMAP
0FFC00
FFFF80
FF0FC0
1F03E0
1F01F0
1F01F8
1F00F8
1F00F8
1F007C
1F007C
1F007C
FFF87C
FFF87C
1F007C
1F007C
1F007C
1F0078
1F00F8
1F00F8
1F01F0
1F01F0
1F03E0
1F07C0
7FFF80
FFFC00
ENDCHAR
STARTCHAR 0111
ENCODING 273
SWIDTH 550 0
DWIDTH 22 0
BBX 21 30 1 0
BITMAP
0001C0
003FC0
003FC0
0007C0
0007C0
0007C0
01FFF8
01FFF8
0007C0
0007C0
0007C0
0007C0
03F7C0
0FFFC0
1E1FC0
3C0FC0
7C07C0
7807C0
F807C0
F807C0
F807C0
F807C0
F807C0
FC07C0
FC0FC0
7E1FC0
7FFFF8
3FF7F8
1FE7E0
078380
ENDCHAR
STARTCHAR 0112
ENCODING 274
SWIDTH 525 0
DWIDTH 21 0
BBX 19 31 1 0
BITMAP
3FFFC0
3FFFC0
7FFF80
000000
000000
000000
FFFFC0
FFFFC0
3E01C0
1E01C0
1E0180
1E0180
1E0080
1E0000
1E0000
1E0000
1E0000
1FFF00
1FFE00
1E0600
1E0000
1E0000
1E0000
1E0000
1E0000
1E0060
1E0060
1E00E0
3F01E0
FFFFE0
FFFFC0
ENDCHAR
STARTCHAR 0113
ENCODING 275
SWIDTH 475 0
DWIDTH 19 0
BBX 18 26 1 0
BITMAP
3FFFC0
3FFFC0
7FFF80
000000
000000
000000
000000
000000
01F000
0FFC00
1E3E00
3C1F00
780F00
780F80
F80F80
FFFF80
FFFE00
F80000
F80000
F80000
FC0000
7E0180
7F0700
3FFE00
1FFC00
07F000
ENDCHAR
STARTCHAR 0114
ENCODING 276
SWIDTH 525 0
DWIDTH 21 0
BBX 19 34 1 0
BITMAP
180300
1C0700
1F1F00
0FFE00
07FC00
03F800
00E000
000000
000000
FFFFC0
FFFFC0
3E01C0
1E01C0
1E0180
1E0180
1E0080
1E0000
1E0000
1E0000
1E0000
1FFF00
1FFE00
1E0600
1E0000
1E0000
1E0000
1E0000
1E0000
1E0060
1E0060
1E00E0
3F01E0
FFFFE0
FFFFC0
ENDCHAR
STARTCHAR 0115
ENCODING 277
SWIDTH 475 0
DWIDTH 19 0
BBX 17 28 1 0
BITMAP
100100
180300
1E0F00
0FFE00
0FFE00
07FC00
01F000
000000
000000
000000
01F000
0FFC00
1E3E00
3C1F00
780F00
780F80
F80F80
FFFF80
FFFE00
F80000
F80000
F80000
FC0000
7E0180
7F0700
3FFE00
1FFC00
07F000
ENDCHAR
STARTCHAR 0116
ENCODING 278
SWIDTH 525 0
DWIDTH 21 0
BBX 19 32 1 0
BITMAP
00E000
01E000
01F000
01E000
01E000
00C000
000000
FFFFC0
FFFFC0
3E01C0
1E01C0
1E0180
1E0180
1E0080
1E0000
1E0000
1E0000
1E0000
1FFF00
1FFE00
1E0600
1E0000
1E0000
1E0000
1E0000
1E0000
1E0060
1E0060
1E00E0
3F01E0
FFFFE0
FFFFC0
ENDCHAR
STARTCHAR 0117
ENCODING 279
SWIDTH 475 0
DWIDTH 19 0
BBX 17 27 1 0
BITMAP
00E000
01E000
01F000
01E000
01E000
01C000
000000
000000
000000
01F000
0FFC00
1E3E00
3C1F00
780F00
780F80
F80F80
FFFF80
FFFE00
F80000
F80000
F80000
FC0000
7E0180
7F0700
3FFE00
1FFC00
07F000
ENDCHAR
STARTCHAR 011A
ENCODING 282
SWIDTH 525 0
DWIDTH 21 0
BBX 19 34 1 0
BITMAP
180300
1E0F00
0F1E00
07FC00
03F800
01F000
00E000
000000
000000
FFFFC0
FFFFC0
3E01C0
1E01C0
1E0180
1E0180
1E0080
1E0000
1E0000
1E0000
1E0000
1FFF00
1FFE00
1E0600
1E0000
1E0000
1E0000
1E0000
1E0000
1E0060
1E0060
1E00E0
3F01E0
FFFFE0
FFFFC0
ENDCHAR
STARTCHAR 011B
ENCODING 283
SWIDTH 475 0
DWIDTH 19 0
BBX 17 30 1 0
BITMAP
180200
1C0700
0E0E00
0F3E00
07FC00
03F800
03F800
01F000
00E000
000000
000000
000000
01F000
0FFC00
1E3E00
3C1F00
780F00
780F80
F80F80
FFFF80
FFFE00
F80000
F80000
F80000
FC0000
7E0180
7F0700
3FFE00
1FFC00
07F000
ENDCHAR
STARTCHAR 011C
ENCODING 284
SWIDTH 600 0
DWIDTH 24 0
BBX 22 34 1 0
BITMAP
003C00
007C00
00FE00
00FF00
01FF80
03C7C0
0781C0
020040
000000
007F80
01FFF0
0783F0
0F01E0
1E00E0
3C0040
3C0000
7C0000
780000
F80000
F80000
F80000
F80FFC
F80FFC
F801F0
F801F0
FC01F0
7C01F0
7C01F0
7E01F0
3F01F0
1F81F0
0FFFC0
07FF80
00FC00
ENDCHAR
STARTCHAR 011D
ENCODING 285
SWIDTH 525 0
DWIDTH 21 0
BBX 21 38 0 -9
BITMAP
007000
00F800
01F800
03FC00
03FE00
079E00
0F0700
0E0380
180100
000000
000000
01F818
0FFFF8
1E1FF0
3C0F80
7C07C0
7C07C0
7C07C0
7C07C0
3E0780
3F0F00
1FFE00
03F800
078000
0F8000
1FC000
1FFF00
1FFFE0
07FFF0
1EFFF8
7C03F8
7800F8
F800F8
F800F0
FC01E0
7F03C0
1FFF00
03F800
ENDCHAR
STARTCHAR 011E
ENCODING 286
SWIDTH 600 0
DWIDTH 24 0
BBX 22 34 1 0
BITMAP
060040
0700E0
03C7C0
03FF80
01FF80
00FF00
003800
000000
000000
007F80
01FFF0
0783F0
0F01E0
1E00E0
3C0040
3C0000
7C0000
780000
F80000
F80000
F80000
F80FFC
F80FFC
F801F0
F801F0
FC01F0
7C01F0
7C01F0
7E01F0
3F01F0
1F81F0
0FFFC0
07FF80
00FC00
ENDCHAR
STARTCHAR 011F
ENCODING 287
SWIDTH 525 0
DWIDTH 21 0
BBX 21 37 0 -9
BITMAP
080100
1C0380
0F0780
0FFF00
07FE00
03FC00
00F800
000000
000000
000000
01F818
0FFFF8
1E1FF0
3C0F80
7C07C0
7C07C0
7C07C0
7C07C0
3E0780
3F0F00
1FFE00
03F800
078000
0F8000
1FC000
1FFF00
1FFFE0
07FFF0
1EFFF8
7C03F8
7800F8
F800F8
F800F0
FC01E0
7F03C0
1FFF00
03F800
ENDCHAR
STARTCHAR 0120
ENCODING 288
SWIDTH 600 0
DWIDTH 24 0
BBX 22 32 1 0
BITMAP
003800
007C00
007C00
007C00
007800
003000
000000
007F80
01FFF0
0783F0
0F01E0
1E00E0
3C0040
3C0000
7C0000
780000
F80000
F80000
F80000
F80FFC
F80FFC
F801F0
F801F0
FC01F0
7C01F0
7C01F0
7E01F0
3F01F0
1F81F0
0FFFC0
07FF80
00FC00
ENDCHAR
STARTCHAR 0121
ENCODING 289
SWIDTH 525 0
DWIDTH 21 0
BBX 21 36 0 -9
BITMAP
007000
00F000
01F000
01F000
01F000
00E000
000000
000000
000000
01F818
0FFFF8
1E1FF0
3C0F80
7C07C0
7C07C0
7C07C0
7C07C0
3E0780
3F0F00
1FFE00
03F800
078000
0F8000
1FC000
1FFF00
1FFFE0
07FFF0
1EFFF8
7C03F8
7800F8
F800F8
F800F0
FC01E0
7F03C0
1FFF00
03F800
ENDCHAR
STARTCHAR 0124
ENCODING 292
SWIDTH 675 0
DWIDTH 27 0
BBX 25 34 1 0
BITMAP
001C0000
003E0000
007F0000
00FF8000
01FF8000
01E3C000
0380E000
02004000
00000000
FFE3FF80
7FE3FF80
1F007C00
1F007C00
1F007C00
1F007C00
1F007C00
1F007C00
1F007C00
1F007C00
1F007C00
1FFFFC00
1FFFFC00
1F007C00
1F007C00
1F007C00
1F007C00
1F007C00
1F007C00
1F007C00
1F007C00
1F007C00
1F007C00
7FC3FF80
FFE3FF80
ENDCHAR
STARTCHAR 0125
ENCODING 293
SWIDTH 575 0
DWIDTH 23 0
BBX 22 39 1 0
BITMAP
007800
00F800
00FC00
01FE00
03FF00
078F80
0F0380
040080
000000
060000
FE0000
FE0000
3E0000
3E0000
3E0000
3E0000
3E0000
3E0000
3E0000
3E0000
3E0000
3E0F80
3E3FC0
3E7FE0
3EFFE0
3FC7E0
3F03E0
3E03E0
3E03E0
3E03E0
3E03E0
3E03E0
3E03E0
3E03E0
3E03E0
3E03E0
3E03E0
FF8FF8
FFDFFC
ENDCHAR
STARTCHAR 0128
ENCODING 296
SWIDTH 325 0
DWIDTH 13 0
BBX 15 33 -1 0
BITMAP
1E06
3FDC
7FFC
7FF8
C3F0
C060
8000
0000
3FF8
1FF8
07C0
07C0
07C0
07C0
07C0
07C0
07C0
07C0
07C0
07C0
07C0
07C0
07C0
07C0
07C0
07C0
07C0
07C0
07C0
07C0
07C0
1FF0
3FF8
ENDCHAR
STARTCHAR 0129
ENCODING 297
SWIDTH 300 0
DWIDTH 12 0
BBX 16 27 -2 0
BITMAP
0F03
1FC6
3FFE
7FFC
61F8
C070
0000
0000
0000
01C0
1FC0
1FC0
07C0
07C0
07C0
07C0
07C0
07C0
07C0
07C0
07C0
07C0
07C0
07C0
07C0
1FF0
1FF8
ENDCHAR
STARTCHAR 012A
ENCODING 298
SWIDTH 325 0
DWIDTH 13 0
BBX 13 32 0 0
BITMAP
7FF8
7FF0
FFF0
0000
0000
0000
0000
7FF0
3FF0
0F80
0F80
0F80
0F80
0F80
0F80
0F80
0F80
0F80
0F80
0F80
0F80
0F80
0F80
0F80
0F80
0F80
0F80
0F80
0F80
0F80
3FE0
7FF0
ENDCHAR
STARTCHAR 012B
ENCODING 299
SWIDTH 300 0
DWIDTH 12 0
BBX 13 26 0 0
BITMAP
7FF0
7FF8
FFF0
0000
0000
0000
0000
0000
0700
7F00
7F00
1F00
1F00
1F00
1F00
1F00
1F00
1F00
1F00
1F00
1F00
1F00
1F00
1F00
7FC0
7FE0
ENDCHAR
STARTCHAR 012C
ENCODING 300
SWIDTH 325 0
DWIDTH 13 0
BBX 14 34 -1 0
BITMAP
400C
F01C
7C7C
3FF8
3FF0
0FE0
0380
0000
0000
3FF8
1FF8
07C0
07C0
07C0
07C0
07C0
07C0
07C0
07C0
07C0
07C0
07C0
07C0
07C0
07C0
07C0
07C0
07C0
07C0
07C0
07C0
07C0
1FF0
3FF8
ENDCHAR
STARTCHAR 012D
ENCODING 301
SWIDTH 300 0
DWIDTH 12 0
BBX 14 28 -1 0
BITMAP
4008
E01C
783C
7FF8
3FF0
1FE0
07C0
0000
0000
0000
0380
3F80
3F80
0F80
0F80
0F80
0F80
0F80
0F80
0F80
0F80
0F80
0F80
0F80
0F80
0F80
3FE0
3FF0
ENDCHAR
STARTCHAR 0130
ENCODING 304
SWIDTH 325 0
DWIDTH 13 0
BBX 11 32 1 0
BITMAP
0E00
1E00
3E00
3E00
1E00
1C00
0000
FFE0
7FE0
1F00
1F00
1F00
1F00
1F00
1F00
1F00
1F00
1F00
1F00
1F00
1F00
1F00
1F00
1F00
1F00
1F00
1F00
1F00
1F00
1F00
7FC0
FFE0
ENDCHAR
STARTCHAR 0131
ENCODING 305
SWIDTH 300 0
DWIDTH 12 0
BBX 10 18 1 0
BITMAP
0E00
FE00
FE00
3E00
3E00
3E00
3E00
3E00
3E00
3E00
3E00
3E00
3E00
3E00
3E00
3E00
FF80
FFC0
ENDCHAR
STARTCHAR 0132
ENCODING 306
SWIDTH 650 0
DWIDTH 26 0
BBX 25 33 1 -8
BITMAP
FFE7FF80
7FE3FF80
1F007C00
1F007C00
1F007C00
1F007C00
1F007C00
1F007C00
1F007C00
1F007C00
1F007C00
1F007C00
1F007C00
1F007C00
1F007C00
1F007C00
1F007C00
1F007C00
1F007C00
1F007C00
1F007C00
1F007C00
1F007C00
7FC07C00
FFE07C00
00007800
00007800
00007800
0020F000
0070E000
00FFC000
01FF8000
007C0000
ENDCHAR
STARTCHAR 0133
ENCODING 307
SWIDTH 600 0
DWIDTH 24 0
BBX 20 36 1 -9
BITMAP
1E01E0
3F03F0
3F03F0
3F03F0
1E01E0
000000
000000
000000
000000
0E00E0
FE1FE0
FE1FE0
3E03E0
3E03E0
3E03E0
3E03E0
3E03E0
3E03E0
3E03E0
3E03E0
3E03E0
3E03E0
3E03E0
3E03E0
3E03E0
FF83E0
FFC3E0
0003E0
0003E0
0003C0
0003C0
010780
03C700
07FE00
07FC00
01E000
ENDCHAR
STARTCHAR 0139
ENCODING 313
SWIDTH 500 0
DWIDTH 20 0
BBX 20 34 0 0
BITMAP
000C00
001F00
003F80
007F00
00FC00
01F000
03C000
010000
000000
FFE000
7FE000
1F0000
1F0000
1F0000
1F0000
1F0000
1F0000
1F0000
1F0000
1F0000
1F0000
1F0000
1F0000
1F0000
1F0000
1F0000
1F0000
1F0000
1F0030
1F0060
1F0060
1F80E0
7FFFE0
FFFFE0
ENDCHAR
STARTCHAR 013A
ENCODING 314
SWIDTH 300 0
DWIDTH 12 0
BBX 12 41 1 0
BITMAP
0100
01C0
03F0
07F0
0FC0
1F80
3E00
7800
2000
0000
0000
0600
FE00
FE00
3E00
3E00
3E00
3E00
3E00
3E00
3E00
3E00
3E00
3E00
3E00
3E00
3E00
3E00
3E00
3E00
3E00
3E00
3E00
3E00
3E00
3E00
3E00
3E00
3E00
FF80
FFC0
ENDCHAR
STARTCHAR 0141
ENCODING 321
SWIDTH 500 0
DWIDTH 20 0
BBX 20 25 0 0
BITMAP
FFE000
7FE000
1F0000
1F0000
1F0000
1F0000
1F0000
1F0000
1F0C00
1F3C00
1FF800
1FE000
1F8000
3F0000
7F0000
FF0000
9F0000
1F0000
1F0000
1F0030
1F0060
1F0060
1F80E0
7FFFE0
FFFFE0
ENDCHAR
STARTCHAR 0142
ENCODING 322
SWIDTH 325 0
DWIDTH 13 0
BBX 11 30 1 0
BITMAP
0300
7F00
7F00
1F00
1F00
1F00
1F00
1F00
1F00
1F00
1F20
1FE0
1FE0
1FC0
1F80
1F00
7F00
7F00
EF00
CF00
1F00
1F00
1F00
1F00
1F00
1F00
1F00
1F00
7FC0
7FE0
ENDCHAR
STARTCHAR 0143
ENCODING 323
SWIDTH 675 0
DWIDTH 27 0
BBX 25 34 1 0
BITMAP
00018000
0003C000
0007E000
001FC000
003F0000
007C0000
00F00000
00400000
00000000
FE00FF80
FF007F00
1F001C00
1F801C00
1FC01C00
1FC01C00
1FE01C00
1DF01C00
1DF81C00
1CF81C00
1C7C1C00
1C7E1C00
1C3E1C00
1C1F1C00
1C0F9C00
1C0F9C00
1C07DC00
1C03FC00
1C03FC00
1C01FC00
1C00FC00
1C00FC00
1C007C00
7F003C00
FF800C00
ENDCHAR
STARTCHAR 0144
ENCODING 324
SWIDTH 575 0
DWIDTH 23 0
BBX 22 30 1 0
BITMAP
000E00
001F80
001F80
001F00
003E00
003C00
007800
007000
00E000
004000
000000
000000
0E0F80
FE3FC0
FEFFE0
3FFFE0
3FC7E0
3F03E0
3E03E0
3E03E0
3E03E0
3E03E0
3E03E0
3E03E0
3E03E0
3E03E0
3E03E0
3E03E0
FF8FF8
FFDFFC
ENDCHAR
STARTCHAR 0147
ENCODING 327
SWIDTH 675 0
DWIDTH 27 0
BBX 25 34 1 0
BITMAP
03006000
0381C000
01E38000
00FF8000
007F0000
003E0000
001C0000
00000000
00000000
FE00FF80
FF007F00
1F001C00
1F801C00
1FC01C00
1FC01C00
1FE01C00
1DF01C00
1DF81C00
1CF81C00
1C7C1C00
1C7E1C00
1C3E1C00
1C1F1C00
1C0F9C00
1C0F9C00
1C07DC00
1C03FC00
1C03FC00
1C01FC00
1C00FC00
1C00FC00
1C007C00
7F003C00
FF800C00
ENDCHAR
STARTCHAR 0148
ENCODING 328
SWIDTH 575 0
DWIDTH 23 0
BBX 22 30 1 0
BITMAP
040080
0E03C0
078780
03CF00
03FE00
01FE00
00FC00
00F800
007000
000000
000000
000000
0E0F80
FE3FC0
FEFFE0
3FFFE0
3FC7E0
3F03E0
3E03E0
3E03E0
3E03E0
3E03E0
3E03E0
3E03E0
3E03E0
3E03E0
3E03E0
3E03E0
FF8FF8
FFDFFC
ENDCHAR
STARTCHAR 014A
ENCODING 330
SWIDTH 650 0
DWIDTH 26 0
BBX 23 33 1 -8
BITMAP
0603F0
FE0FFC
FE3FFC
3E7FFE
3EF87E
3FE03E
3FC03E
3F803E
3E003E
3E003E
3E003E
3E003E
3E003E
3E003E
3E003E
3E003E
3E003E
3E003E
3E003E
3E003E
3E003E
3E003E
3E003E
FF803E
FFC03C
00003C
000078
008078
00E0F0
01F0E0
03FFC0
07FF00
00FC00
ENDCHAR
STARTCHAR 014B
ENCODING 331
SWIDTH 550 0
DWIDTH 22 0
BBX 19 27 1 -9
BITMAP
060F80
FE3FC0
FEFFE0
3FFFE0
3FC7E0
3F03E0
3E03E0
3E03E0
3E03E0
3E03E0
3E03E0
3E03E0
3E03E0
3E03E0
3E03E0
3E03E0
FF83E0
FFC3E0
0003E0
0003E0
0003C0
0207C0
070780
0F8F00
1FFE00
1FF800
07E000
ENDCHAR
STARTCHAR 014C
ENCODING 332
SWIDTH 625 0
DWIDTH 25 0
BBX 23 31 1 0
BITMAP
0FFFF0
0FFFF0
1FFFE0
000000
000000
000000
007E00
03FFC0
0787E0
0E01F0
1E00F8
3C00F8
3C007C
7C007C
78007E
F8003E
F8003E
F8003E
F8003E
F8003E
F8003E
F8003E
FC003C
7C007C
7C0078
3E0078
3E00F0
1F01E0
0FC3C0
07FF00
00FC00
ENDCHAR
STARTCHAR 014D
ENCODING 333
SWIDTH 525 0
DWIDTH 21 0
BBX 19 26 1 0
BITMAP
1FFFC0
3FFFC0
3FFFC0
000000
000000
000000
000000
000000
01F800
07FE00
1E1F80
3C0F80
7C07C0
7807C0
F803E0
F803E0
F803E0
F803E0
F803E0
F803C0
7C03C0
7C0780
3E0780
3F0F00
0FFC00
03F000
ENDCHAR
STARTCHAR 014E
ENCODING 334
SWIDTH 625 0
DWIDTH 25 0
BBX 23 34 1 0
BITMAP
0600C0
0701C0
07C7C0
03FF80
01FF00
00FE00
003800
000000
000000
007E00
03FFC0
0787E0
0E01F0
1E00F8
3C00F8
3C007C
7C007C
78007E
F8003E
F8003E
F8003E
F8003E
F8003E
F8003E
F8003E
FC003C
7C007C
7C0078
3E0078
3E00F0
1F01E0
0FC3C0
07FF00
00FC00
ENDCHAR
STARTCHAR 014F
ENCODING 335
SWIDTH 525 0
DWIDTH 21 0
BBX 19 28 1 0
BITMAP
080100
1C0380
0F0F00
0FFF00
07FE00
03FC00
01F000
000000
000000
000000
01F800
07FE00
1E1F80
3C0F80
7C07C0
7807C0
F803E0
F803E0
F803E0
F803E0
F803E0
F803C0
7C03C0
7C0780
3E0780
3F0F00
0FFC00
03F000
ENDCHAR
STARTCHAR 0150
ENCODING 336
SWIDTH 625 0
DWIDTH 25 0
BBX 23 35 1 0
BITMAP
0078E0
007DF0
0079E0
00F3C0
00E3C0
01E380
01C700
018600
010200
000000
007E00
03FFC0
0787E0
0E01F0
1E00F8
3C00F8
3C007C
7C007C
78007E
F8003E
F8003E
F8003E
F8003E
F8003E
F8003E
F8003E
FC003C
7C007C
7C0078
3E0078
3E00F0
1F01E0
0FC3C0
07FF00
00FC00
ENDCHAR
STARTCHAR 0151
ENCODING 337
SWIDTH 525 0
DWIDTH 21 0
BBX 19 29 1 0
BITMAP
00E3C0
01F3C0
01E7C0
01E780
03C700
038F00
038E00
070C00
021800
000000
000000
01F800
07FE00
1E1F80
3C0F80
7C07C0
7807C0
F803E0
F803E0
F803E0
F803E0
F803E0
F803C0
7C03C0
7C0780
3E0780
3F0F00
0FFC00
03F000
ENDCHAR
STARTCHAR 0152
ENCODING 338
SWIDTH 850 0
DWIDTH 34 0
BBX 32 25 1 0
BITMAP
00FFFFFC
03FFFFFC
0787FFFC
0E01F01C
1E01F00C
3C01F00C
7C01F00C
7801F000
7801F000
F801F000
F801F000
F801FFF0
F801FFF0
F801F020
F801F000
F801F000
FC01F000
7C01F000
7C01F000
3E01F003
3E01F006
1F01F006
0FC7F00E
07FFFFFE
01FFFFFE
ENDCHAR
STARTCHAR 0153
ENCODING 339
SWIDTH 800 0
DWIDTH 32 0
BBX 30 18 1 0
BITMAP
01F00FC0
0FFC3FE0
1E3F70F0
3C1FE078
7C0FE038
780FC03C
F807C03C
F807FFFC
F807FFF0
F807C000
F807C000
F807C000
7C07E000
7C0FF018
7E0FF87C
3F1EFFF0
0FF87FE0
03E01F80
ENDCHAR
STARTCHAR 0154
ENCODING 340
SWIDTH 600 0
DWIDTH 24 0
BBX 23 34 1 0
BITMAP
000C00
001F00
003F80
007F00
00FC00
01F000
03C000
010000
000000
0FFC00
FFFF80
FF0FC0
1F07C0
1F03E0
1F03E0
1F03E0
1F03E0
1F03E0
1F07C0
1F0780
1FFF00
1FFE00
1F7C00
1F1E00
1F0F00
1F0F00
1F0780
1F07C0
1F03E0
1F03E0
1F01F0
1F01FE
7FC0FE
FFE0F8
ENDCHAR
STARTCHAR 0155
ENCODING 341
SWIDTH 450 0
DWIDTH 18 0
BBX 16 30 1 0
BITMAP
0038
007E
007E
00FC
00F8
00F0
01E0
01C0
0380
0100
0000
0000
0E1E
FE7F
FEFF
3FFF
3FCF
1F87
1F06
1E06
1E00
1E00
1E00
1E00
1E00
1E00
1E00
3E00
FFC0
FFE0
ENDCHAR
STARTCHAR 0158
ENCODING 344
SWIDTH 600 0
DWIDTH 24 0
BBX 23 34 1 0
BITMAP
0C0300
1E0780
079E00
03FC00
01F800
01F000
00E000
000000
000000
0FFC00
FFFF80
FF0FC0
1F07C0
1F03E0
1F03E0
1F03E0
1F03E0
1F03E0
1F07C0
1F0780
1FFF00
1FFE00
1F7C00
1F1E00
1F0F00
1F0F00
1F0780
1F07C0
1F03E0
1F03E0
1F01F0
1F01FE
7FC0FE
FFE0F8
ENDCHAR
STARTCHAR 0159
ENCODING 345
SWIDTH 450 0
DWIDTH 18 0
BBX 16 30 1 0
BITMAP
1002
380F
1C1E
0F3C
0FF8
07F8
03F0
03E0
01C0
0000
0000
0000
0E1E
FE7F
FEFF
3FFF
3FCF
1F87
1F06
1E06
1E00
1E00
1E00
1E00
1E00
1E00
1E00
3E00
FFC0
FFE0
ENDCHAR
STARTCHAR 015A
ENCODING 346
SWIDTH 525 0
DWIDTH 21 0
BBX 17 34 2 0
BITMAP
001800
003E00
007E00
00FC00
01F000
03C000
070000
040000
000000
03FC00
1FFF00
3C3F00
700E00
F00600
F00000
F80000
FC0000
FE0000
7F8000
3FE000
1FF800
07FE00
01FF00
007F00
001F80
000F80
000780
C00780
C00780
E00700
F00E00
FC1C00
FFF800
1FE000
ENDCHAR
STARTCHAR 015B
ENCODING 347
SWIDTH 425 0
DWIDTH 17 0
BBX 14 30 2 0
BITMAP
01E0
01F0
03F8
03E0
03C0
0780
0700
0F00
0E00
0C00
0000
0000
0FC0
3FF8
78F8
F070
F030
F830
FE00
7F80
3FE0
0FF8
03F8
C0FC
C07C
E03C
E03C
F878
FFF0
3FC0
ENDCHAR
STARTCHAR 015C
ENCODING 348
SWIDTH 525 0
DWIDTH 21 0
BBX 17 34 2 0
BITMAP
01C000
03E000
07F000
0FF800
1FF800
1E3C00
380E00
200400
000000
03FC00
1FFF00
3C3F00
700E00
F00600
F00000
F80000
FC0000
FE0000
7F8000
3FE000
1FF800
07FE00
01FF00
007F00
001F80
000F80
000780
C00780
C00780
E00700
F00E00
FC1C00
FFF800
1FE000
ENDCHAR
STARTCHAR 015D
ENCODING 349
SWIDTH 425 0
DWIDTH 17 0
BBX 14 29 2 0
BITMAP
0700
0F80
1F80
1FC0
3FE0
79F0
F070
E038
C010
0000
0000
0FC0
3FF8
78F8
F070
F030
F830
FE00
7F80
3FE0
0FF8
03F8
C0FC
C07C
E03C
E03C
F878
FFF0
3FC0
ENDCHAR
STARTCHAR 0160
ENCODING 352
SWIDTH 525 0
DWIDTH 21 0
BBX 17 34 2 0
BITMAP
300600
3C1C00
1E3C00
0FF800
07F000
03E000
01C000
000000
000000
03FC00
1FFF00
3C3F00
700E00
F00600
F00000
F80000
FC0000
FE0000
7F8000
3FE000
1FF800
07FE00
01FF00
007F00
001F80
000F80
000780
C00780
C00780
E00700
F00E00
FC1C00
FFF800
1FE000
ENDCHAR
STARTCHAR 0161
ENCODING 353
SWIDTH 425 0
DWIDTH 17 0
BBX 14 30 2 0
BITMAP
8010
E038
F070
79F0
3FE0
1FC0
1F80
0F80
0700
0000
0000
0000
0FC0
3FF8
78F8
F070
F030
F830
FE00
7F80
3FE0
0FF8
03F8
C0FC
C07C
E03C
E03C
F878
FFF0
3FC0
ENDCHAR
STARTCHAR 0164
ENCODING 356
SWIDTH 575 0
DWIDTH 23 0
BBX 23 34 0 0
BITMAP
0600C0
070380
03C700
01FF00
00FE00
007C00
003800
000000
000000
7FFFFC
7FFFFE
607C0E
E07C0C
C07C0C
C07C0C
C07C0C
007C00
007C00
007C00
007C00
007C00
007C00
007C00
007C00
007C00
007C00
007C00
007C00
007C00
007C00
007C00
007C00
03FF80
03FF80
ENDCHAR
STARTCHAR 0168
ENCODING 360
SWIDTH 675 0
DWIDTH 27 0
BBX 25 33 1 0
BITMAP
00F83000
01FE7000
03FFE000
03FFC000
071FC000
06030000
04000000
00000000
FFE0FF80
7FE0FF00
1F001C00
1F001C00
1F001C00
1F001C00
1F001C00
1F001C00
1F001C00
1F001C00
1F001C00
1F001C00
1F001C00
1F001C00
1F001C00
1F001C00
1F001C00
1F001C00
1F001800
0F803800
0F803800
07C07000
03E0E000
01FFC000
007F0000
ENDCHAR
STARTCHAR 0169
ENCODING 361
SWIDTH 575 0
DWIDTH 23 0
BBX 22 27 1 0
BITMAP
03C0C0
07F1C0
0FFF80
0FFF00
187F00
101C00
000000
000000
000000
0E00E0
FE1FE0
7E07E0
3E03E0
3E03E0
3E03E0
3E03E0
3E03E0
3E03E0
3E03E0
3E03E0
3E03E0
3E03E0
3E07E0
3F1FFC
1FFBFC
1FF3F0
0FC1C0
ENDCHAR
STARTCHAR 016A
ENCODING 362
SWIDTH 675 0
DWIDTH 27 0
BBX 25 31 1 0
BITMAP
07FFF800
07FFF800
0FFFF000
00000000
00000000
00000000
FFE0FF80
7FE0FF00
1F001C00
1F001C00
1F001C00
1F001C00
1F001C00
1F001C00
1F001C00
1F001C00
1F001C00
1F001C00
1F001C00
1F001C00
1F001C00
1F001C00
1F001C00
1F001C00
1F001800
0F803800
0F803800
07C07000
03E0E000
01FFC000
007F0000
ENDCHAR
STARTCHAR 016B
ENCODING 363
SWIDTH 575 0
DWIDTH 23 0
BBX 22 26 1 0
BITMAP
1FFFE0
3FFFC0
3FFFC0
000000
000000
000000
000000
000000
0E00E0
FE1FE0
7E07E0
3E03E0
3E03E0
3E03E0
3E03E0
3E03E0
3E03E0
3E03E0
3E03E0
3E03E0
3E03E0
3E07E0
3F1FFC
1FFBFC
1FF3F0
0FC1C0
ENDCHAR
STARTCHAR 016C
ENCODING 364
SWIDTH 675 0
DWIDTH 27 0
BBX 25 34 1 0
BITMAP
03006000
0380E000
03E3E000
01FFC000
00FF8000
007F0000
001C0000
00000000
00000000
FFE0FF80
7FE0FF00
1F001C00
1F001C00
1F001C00
1F001C00
1F001C00
1F001C00
1F001C00
1F001C00
1F001C00
1F001C00
1F001C00
1F001C00
1F001C00
1F001C00
1F001C00
1F001C00
1F001800
0F803800
0F803800
07C07000
03E0E000
01FFC000
007F0000
ENDCHAR
STARTCHAR 016D
ENCODING 365
SWIDTH 575 0
DWIDTH 23 0
BBX 22 28 1 0
BITMAP
080100
1C0380
0F0780
0FFF00
07FE00
03FC00
00F800
000000
000000
000000
0E00E0
FE1FE0
7E07E0
3E03E0
3E03E0
3E03E0
3E03E0
3E03E0
3E03E0
3E03E0
3E03E0
3E03E0
3E03E0
3E07E0
3F1FFC
1FFBFC
1FF3F0
0FC1C0
ENDCHAR
STARTCHAR 016E
ENCODING 366
SWIDTH 675 0
DWIDTH 27 0
BBX 25 34 1 0
BITMAP
001E0000
003F0000
00778000
00738000
00770000
00770000
007E0000
00180000
00000000
FFE0FF80
7FE0FF00
1F001C00
1F001C00
1F001C00
1F001C00
1F001C00
1F001C00
1F001C00
1F001C00
1F001C00
1F001C00
1F001C00
1F001C00
1F001C00
1F001C00
1F001C00
1F001C00
1F001800
0F803800
0F803800
07C07000
03E0E000
01FFC000
007F0000
ENDCHAR
STARTCHAR 016F
ENCODING 367
SWIDTH 575 0
DWIDTH 23 0
BBX 22 28 1 0
BITMAP
007800
00FC00
01DC00
039C00
039C00
03DC00
01F800
00F000
000000
000000
0E00E0
FE1FE0
7E07E0
3E03E0
3E03E0
3E03E0
3E03E0
3E03E0
3E03E0
3E03E0
3E03E0
3E03E0
3E03E0
3E07E0
3F1FFC
1FFBFC
1FF3F0
0FC1C0
ENDCHAR
STARTCHAR 0170
ENCODING 368
SWIDTH 675 0
DWIDTH 27 0
BBX 25 35 1 0
BITMAP
003C7000
003EF800
003CF000
0078E000
0071E000
0071C000
00E38000
00C38000
00410000
00000000
FFE0FF80
7FE0FF00
1F001C00
1F001C00
1F001C00
1F001C00
1F001C00
1F001C00
1F001C00
1F001C00
1F001C00
1F001C00
1F001C00
1F001C00
1F001C00
1F001C00
1F001C00
1F001C00
1F001800
0F803800
0F803800
07C07000
03E0E000
01FFC000
007F0000
ENDCHAR
STARTCHAR 0171
ENCODING 369
SWIDTH 575 0
DWIDTH 23 0
BBX 22 29 1 0
BITMAP
00F3C0
00F3E0
01F3C0
01E780
01C780
03C700
038E00
030C00
060C00
000000
000000
0E00E0
FE1FE0
7E07E0
3E03E0
3E03E0
3E03E0
3E03E0
3E03E0
3E03E0
3E03E0
3E03E0
3E03E0
3E03E0
3E07E0
3F1FFC
1FFBFC
1FF3F0
0FC1C0
ENDCHAR
STARTCHAR 0174
ENCODING 372
SWIDTH 850 0
DWIDTH 34 0
BBX 34 34 0 0
BITMAP
0001E00000
0003F00000
0003F80000
0007F80000
000FFC0000
001E1E0000
003C0F0000
0010020000
0000000000
FFC0E07FC0
7F80E03FC0
1E00E00E00
1F01F00E00
1F01F00C00
0F01F81C00
0F03F81C00
0F83F81C00
0F83FC1C00
07873C1800
07873C3800
07863E3800
07CE1E3800
03CE1F3800
03CC0F3000
03DC0F7000
03FC0FF000
03F807F000
01F807E000
01F807E000
01F003E000
01F003E000
00F001E000
00E001C000
00C0018000
ENDCHAR
STARTCHAR 0175
ENCODING 373
SWIDTH 725 0
DWIDTH 29 0
BBX 28 29 0 0
BITMAP
00078000
000F8000
000FC000
001FE000
003FE000
003CF000
00787800
00E03800
00400800
00000000
00000000
FF8303F0
7F0381F0
3E0380C0
1E07C1C0
1F07C1C0
1F0FC1C0
0F0FE380
0F9DE380
0F9DF380
0799F300
07F8FF00
07F0FF00
03F07E00
03F07E00
03E03E00
01E03C00
01C01C00
01801800
ENDCHAR
STARTCHAR 0176
ENCODING 374
SWIDTH 625 0
DWIDTH 25 0
BBX 24 34 0 0
BITMAP
003C00
003E00
007F00
00FF00
01FF80
03E3C0
0380E0
020040
000000
7E00FF
FF00FF
1F0038
0F8038
0FC070
07C070
03E0E0
03E0E0
01F1C0
01F1C0
00FB80
00FB80
007F00
007F00
003E00
003E00
003E00
003E00
003E00
003E00
003E00
003E00
003E00
01FFC0
01FFC0
ENDCHAR
STARTCHAR 0177
ENCODING 375
SWIDTH 500 0
DWIDTH 20 0
BBX 21 38 -1 -9
BITMAP
003800
007C00
007E00
00FE00
01FF00
03E780
038380
0701C0
0200C0
000000
000000
7FC1F8
3F81F8
1F00E0
0F80E0
0F81C0
07C1C0
07C180
07C380
03E380
03E700
01F700
01F600
00FE00
00FE00
00FC00
007C00
007800
003800
003800
007000
007000
00E000
21E000
7FC000
7F8000
FF0000
7C0000
ENDCHAR
STARTCHAR 0178
ENCODING 376
SWIDTH 625 0
DWIDTH 25 0
BBX 24 32 0 0
BITMAP
03C1E0
03C1E0
07C3E0
07C3E0
07C3E0
030180
000000
7E00FF
FF00FF
1F0038
0F8038
0FC070
07C070
03E0E0
03E0E0
01F1C0
01F1C0
00FB80
00FB80
007F00
007F00
003E00
003E00
003E00
003E00
003E00
003E00
003E00
003E00
003E00
01FFC0
01FFC0
ENDCHAR
STARTCHAR 0179
ENCODING 377
SWIDTH 550 0
DWIDTH 22 0
BBX 19 34 1 0
BITMAP
000600
000F00
001F80
003F00
00FC00
01F000
03C000
010000
000000
3FFFE0
3FFFE0
7807C0
700FC0
600F80
601F80
203F00
003E00
007E00
007C00
00FC00
01F800
01F000
03F000
03E000
07E000
0FC000
0F8000
1F8020
1F0060
3F0060
7E0060
7C00E0
FFFFE0
FFFFE0
ENDCHAR
STARTCHAR 017A
ENCODING 378
SWIDTH 475 0
DWIDTH 19 0
BBX 16 30 1 0
BITMAP
0038
007E
007E
007C
00F8
00F0
01E0
01C0
0380
0100
0000
0000
3FFF
3FFF
703E
707E
607C
60F8
01F8
01F0
03E0
07E0
07C0
0F80
1F81
1F03
3E03
7C03
7FFF
FFFF
ENDCHAR
STARTCHAR 017B
ENCODING 379
SWIDTH 550 0
DWIDTH 22 0
BBX 19 32 1 0
BITMAP
00F000
00F000
01F000
01F000
00F000
00E000
000000
3FFFE0
3FFFE0
7807C0
700FC0
600F80
601F80
203F00
003E00
007E00
007C00
00FC00
01F800
01F000
03F000
03E000
07E000
0FC000
0F8000
1F8020
1F0060
3F0060
7E0060
7C00E0
FFFFE0
FFFFE0
ENDCHAR
STARTCHAR 017C
ENCODING 380
SWIDTH 475 0
DWIDTH 19 0
BBX 16 27 1 0
BITMAP
01C0
01E0
03E0
03E0
03C0
01C0
0000
0000
0000
3FFF
3FFF
703E
707E
607C
60F8
01F8
01F0
03E0
07E0
07C0
0F80
1F81
1F03
3E03
7C03
7FFF
FFFF
ENDCHAR
STARTCHAR 017D
ENCODING 381
SWIDTH 550 0
DWIDTH 22 0
BBX 19 34 1 0
BITMAP
0C0180
0E0700
078E00
03FE00
01FC00
00F800
007000
000000
000000
3FFFE0
3FFFE0
7807C0
700FC0
600F80
601F80
203F00
003E00
007E00
007C00
00FC00
01F800
01F000
03F000
03E000
07E000
0FC000
0F8000
1F8020
1F0060
3F0060
7E0060
7C00E0
FFFFE0
FFFFE0
ENDCHAR
STARTCHAR 017E
ENCODING 382
SWIDTH 475 0
DWIDTH 19 0
BBX 16 30 1 0
BITMAP
1002
380F
1E1E
0F3C
0FF8
07F8
03F0
03E0
01E0
0000
0000
0000
3FFF
3FFF
703E
707E
607C
60F8
01F8
01F0
03E0
07E0
07C0
0F80
1F81
1F03
3E03
7C03
7FFF
FFFF
ENDCHAR
STARTCHAR 0181
ENCODING 385
SWIDTH 725 0
DWIDTH 29 0
BBX 27 25 0 0
BITMAP
01FFF000
0FFFFE00
3FFC3F00
7C7C1F80
F87C0F80
F87C0F80
F87C0F80
FC7C0F80
787C0F00
607C1F00
007C7C00
007FF800
007FFF00
007C1F80
007C07C0
007C07C0
007C03E0
007C03E0
007C03E0
007C03E0
007C03E0
007C07C0
007C1F80
01FFFF00
03FFF800
ENDCHAR
STARTCHAR 0186
ENCODING 390
SWIDTH 550 0
DWIDTH 22 0
BBX 20 25 1 0
BITMAP
07F800
3FFE00
783F00
E00F80
8007C0
0007E0
0003E0
0003E0
0001F0
0001F0
0001F0
0001F0
0001F0
0001F0
0401F0
1E01F0
7C01E0
F803E0
F803E0
F803C0
F80780
FC0700
7E1E00
3FFC00
0FF000
ENDCHAR
STARTCHAR 0189
ENCODING 393
SWIDTH 625 0
DWIDTH 25 0
BBX 22 25 1 0
BITMAP
0FFC00
FFFF80
FF0FC0
1F03E0
1F01F0
1F01F8
1F00F8
1F00F8
1F007C
1F007C
1F007C
FFF87C
FFF87C
1F007C
1F007C
1F007C
1F0078
1F00F8
1F00F8
1F01F0
1F01F0
1F03E0
1F07C0
7FFF80
FFFC00
ENDCHAR
STARTCHAR 018A
ENCODING 394
SWIDTH 775 0
DWIDTH 31 0
BBX 29 25 0 0
BITMAP
01FFF800
0FFFFE00
3FFC3F80
7C7C0FC0
F87C03E0
F87C03F0
F87C01F0
FC7C01F0
787C00F8
607C00F8
007C00F8
007C00F8
007C00F8
007C00F8
007C00F8
007C00F8
007C00F0
007C01F0
007C01F0
007C03E0
007C03E0
007C07C0
007E1F80
01FFFE00
03FFF800
ENDCHAR
STARTCHAR 018E
ENCODING 398
SWIDTH 525 0
DWIDTH 21 0
BBX 19 25 1 0
BITMAP
3FFFE0
3FFFE0
380F80
300F00
200F00
200F00
000F00
000F00
000F00
000F00
040F00
0FFF00
1FFF00
000F00
000F00
000F00
000F00
000F00
600F00
600F00
600F00
600F00
E01F80
FFFFE0
FFFFE0
ENDCHAR
STARTCHAR 0190
ENCODING 400
SWIDTH 525 0
DWIDTH 21 0
BBX 19 25 1 0
BITMAP
01FE00
07FFC0
1E0FC0
3C0780
380380
780100
780000
780000
7C0000
7E0000
3F8000
1FF000
0FF000
1F8000
3E0000
7C0000
780000
F80000
F80000
F80040
FC00E0
7F03C0
7FFF00
1FFE00
07F000
ENDCHAR
STARTCHAR 0192
ENCODING 402
SWIDTH 325 0
DWIDTH 13 0
BBX 23 38 -6 -9
BITMAP
0000FC
0003FE
000E3C
001E18
001C00
003C00
003C00
007C00
007C00
007C00
007C00
01FFF0
03FFE0
007C40
007C00
007C00
007C00
007C00
007C00
007C00
007C00
007C00
007C00
007C00
007C00
007C00
007C00
007C00
007C00
007C00
007800
007800
007800
20F000
38E000
FFC000
FF8000
3E0000
ENDCHAR
STARTCHAR 0197
ENCODING 407
SWIDTH 325 0
DWIDTH 13 0
BBX 11 25 1 0
BITMAP
FFE0
FFE0
1F00
1F00
1F00
1F00
1F00
1F00
1F00
1F00
1F00
FFE0
FFE0
1F00
1F00
1F00
1F00
1F00
1F00
1F00
1F00
1F00
1F00
7FC0
FFE0
ENDCHAR
STARTCHAR 0198
ENCODING 408
SWIDTH 650 0
DWIDTH 26 0
BBX 24 25 1 0
BITMAP
FFE07C
7FE0FE
1F01FF
1F03CF
1F078F
1F0F0F
1F0E0F
1F1C1E
1F3C10
1F7800
1F7000
1FF000
1FF000
1F7800
1F7C00
1F3E00
1F1F00
1F0F80
1F07C0
1F07E0
1F03F0
1F01F0
1F00FE
7FC0FF
FFE078
ENDCHAR
STARTCHAR 0199
ENCODING 409
SWIDTH 550 0
DWIDTH 22 0
BBX 22 29 0 0
BITMAP
001F80
007FF0
01C3E0
0381E0
078080
0F8000
0F0000
0F0000
1F0000
1F0000
1F0000
1F07F8
1F03F8
1F03C0
1F0780
1F0F00
1F3C00
1F7800
1FF000
1FF800
1F7C00
1F3E00
1F1F00
1F0F80
1F0FC0
1F07E0
1F03F0
7FC1FC
FFC0F8
ENDCHAR
STARTCHAR 019A
ENCODING 410
SWIDTH 350 0
DWIDTH 14 0
BBX 13 30 0 0
BITMAP
0180
3F80
3F80
0F80
0F80
0F80
0F80
0F80
0F80
0F80
0F80
0F80
0F80
0F80
7FF8
FFF0
0F80
0F80
0F80
0F80
0F80
0F80
0F80
0F80
0F80
0F80
0F80
0F80
3FE0
3FF0
ENDCHAR
STARTCHAR 019D
ENCODING 413
SWIDTH 675 0
DWIDTH 27 0
BBX 32 33 -6 -8
BITMAP
01FC01FF
01FE00FE
007E0038
003F0038
003F8038
003F8038
003FC038
003BE038
003BF038
0039F038
0038F838
0038FC38
00387C38
00383E38
00383F38
00381F38
00380FB8
00380FF8
003807F8
003803F8
003801F8
003801F8
003800F8
00380078
00380038
00380000
00380000
00300000
10700000
38E00000
7FC00000
FF800000
3E000000
ENDCHAR
STARTCHAR 019F
ENCODING 415
SWIDTH 625 0
DWIDTH 25 0
BBX 23 25 1 0
BITMAP
007E00
03FFC0
0787E0
0E01F0
1E00F8
3C00F8
3C007C
7C007C
78007E
F8003E
F8003E
FFFFFE
FFFFFE
F8003E
F8003E
F8003E
FC003C
7C007C
7C0078
3E0078
3E00F0
1F01E0
0FC3C0
07FF00
00FC00
ENDCHAR
STARTCHAR 01A0
ENCODING 416
SWIDTH 625 0
DWIDTH 25 0
BBX 24 30 1 0
BITMAP
000002
00000F
00003F
00001F
00001F
007E1E
03FFFC
0787F8
0E01F0
1E00F8
3C00FC
3C007C
7C007C
78007E
F8003E
F8003E
F8003E
F8003E
F8003E
F8003E
F8003E
FC003C
7C007C
7C0078
3E0078
3E00F0
1F01E0
0FC3C0
07FF00
00FC00
ENDCHAR
STARTCHAR 01A1
ENCODING 417
SWIDTH 625 0
DWIDTH 25 0
BBX 23 23 1 0
BITMAP
00000C
00003E
0000FE
00007E
00003C
01F83C
07FE70
1E1FE0
3C0FC0
7C07C0
7807E0
F803E0
F803E0
F803E0
F803E0
F803E0
F803C0
7C03C0
7C0780
3E0780
3F0F00
0FFC00
03F000
ENDCHAR
STARTCHAR 01A9
ENCODING 425
SWIDTH 550 0
DWIDTH 22 0
BBX 20 25 1 0
BITMAP
FFFFE0
7FFFE0
7E00E0
3E00E0
1F0060
1F8060
0F8000
07C000
07E000
03E000
03F000
01F000
00E000
01E000
01C000
038000
078000
070030
0E0070
1E0060
3C00E0
3FFFE0
7FFFE0
FFFFE0
FFFFE0
ENDCHAR
STARTCHAR 01AA
ENCODING 426
SWIDTH 400 0
DWIDTH 16 0
BBX 20 39 1 -9
BITMAP
0FC000
3FE000
71F000
E1F000
E0F800
F1F800
FFF800
7FF800
3CF800
00F800
00F800
00F800
00F800
00F800
00F000
01F000
01F000
01F000
01F000
01F000
01F000
01F000
03F000
03E000
03E000
03E000
03E000
03E000
03E000
03E000
03E000
03E000
03E010
03E0F0
01E1F0
01F1F0
01F1E0
00FFC0
003F00
ENDCHAR
STARTCHAR 01AF
ENCODING 431
SWIDTH 725 0
DWIDTH 29 0
BBX 28 30 1 0
BITMAP
00000020
000000F0
000003F0
000001F0
000001F0
FFE0FFE0
7FE0FFC0
1F001F00
1F001E00
1F001C00
1F001C00
1F001C00
1F001C00
1F001C00
1F001C00
1F001C00
1F001C00
1F001C00
1F001C00
1F001C00
1F001C00
1F001C00
1F001C00
1F001800
0F803800
0F803800
07C07000
03E0E000
01FFC000
007F0000
ENDCHAR
STARTCHAR 01B0
ENCODING 432
SWIDTH 675 0
DWIDTH 27 0
BBX 26 23 1 0
BITMAP
00000080
000007C0
00000FC0
000007C0
06006780
FE1FE780
FE1FEF00
3E03FC00
3E03F800
3E03E000
3E03E000
3E03E000
3E03E000
3E03E000
3E03E000
3E03E000
3E03E000
3E03E000
3E07E000
3F1FFC00
1FFFFC00
1FF3F000
07C1C000
ENDCHAR
STARTCHAR 01B3
ENCODING 435
SWIDTH 700 0
DWIDTH 28 0
BBX 27 26 0 0
BITMAP
00000700
FE001FC0
FF001FE0
1F003BE0
0F8071E0
0FC071E0
07C0E1E0
03E0E3C0
03E1C300
01F1C000
01F18000
00FB8000
00FF0000
007F0000
007F0000
003E0000
003E0000
003E0000
003E0000
003E0000
003E0000
003E0000
003E0000
003E0000
01FFC000
01FFC000
ENDCHAR
STARTCHAR 01B4
ENCODING 436
SWIDTH 500 0
DWIDTH 20 0
BBX 29 35 -1 -9
BITMAP
000001F0
000007F8
00000FF8
00001FF0
00003C20
00003800
00007000
00007000
7FC06000
3F80E000
1F00E000
0F81C000
0F81C000
07C1C000
07C38000
07C38000
03E30000
03E70000
01F70000
01F60000
00FE0000
00FE0000
00FC0000
007C0000
00780000
00380000
00380000
00700000
00700000
00E00000
21E00000
7FC00000
FF800000
FF000000
7C000000
ENDCHAR
STARTCHAR 01B7
ENCODING 439
SWIDTH 550 0
DWIDTH 22 0
BBX 18 25 2 0
BITMAP
7FFF80
7FFF80
701F00
603E00
607E00
607C00
40F800
01F800
01F000
03E000
07FE00
0FFF00
0E1F80
000F80
0007C0
0003C0
0003C0
0003C0
0003C0
200380
700780
780700
FE1E00
7FFC00
0FE000
ENDCHAR
STARTCHAR 01CD
ENCODING 461
SWIDTH 625 0
DWIDTH 25 0
BBX 25 34 0 0
BITMAP
03006000
03C1C000
01E3C000
00FF8000
007F0000
003E0000
001C0000
00000000
00000000
00040000
001E0000
003E0000
007E0000
007F0000
006F0000
00EF8000
00EF8000
00C78000
01C7C000
01C7C000
0183C000
0383E000
0383E000
03FFE000
07FFF000
0700F000
0600F800
0E00F800
0E007800
0C007C00
1C007C00
1C007C00
FF81FF00
FF81FF80
ENDCHAR
STARTCHAR 01CE
ENCODING 462
SWIDTH 500 0
DWIDTH 20 0
BBX 19 30 1 0
BITMAP
100200
380F00
1E1E00
0F3C00
07FC00
07F800
03F000
01E000
01E000
000000
000000
000000
01F800
0FFE00
3E3F00
7C1F00
7C1F00
701F00
001F00
01FF00
0FFF00
3F1F00
7C1F00
781F00
F81F00
F81F20
F87FE0
FFDFC0
7F9F80
3E0E00
ENDCHAR
STARTCHAR 01CF
ENCODING 463
SWIDTH 325 0
DWIDTH 13 0
BBX 13 34 0 0
BITMAP
C018
F070
78E0
3FE0
1FC0
0F80
0700
0000
0000
7FF0
3FF0
0F80
0F80
0F80
0F80
0F80
0F80
0F80
0F80
0F80
0F80
0F80
0F80
0F80
0F80
0F80
0F80
0F80
0F80
0F80
0F80
0F80
3FE0
7FF0
ENDCHAR
STARTCHAR 01D0
ENCODING 464
SWIDTH 300 0
DWIDTH 12 0
BBX 14 30 -1 0
BITMAP
4008
F01C
7878
3CF0
1FF0
1FE0
0FC0
0780
0780
0000
0000
0000
0380
3F80
3F80
0F80
0F80
0F80
0F80
0F80
0F80
0F80
0F80
0F80
0F80
0F80
0F80
0F80
3FE0
3FF0
ENDCHAR
STARTCHAR 01D1
ENCODING 465
SWIDTH 625 0
DWIDTH 25 0
BBX 23 36 1 0
BITMAP
0600C0
0701C0
038780
03EF00
01FF00
00FE00
00FC00
007C00
003800
000000
000000
007E00
03FFC0
0787E0
0E01F0
1E00F8
3C00F8
3C007C
7C007C
78007E
F8003E
F8003E
F8003E
F8003E
F8003E
F8003E
F8003E
FC003C
7C007C
7C0078
3E0078
3E00F0
1F01E0
0FC3C0
07FF00
00FC00
ENDCHAR
STARTCHAR 01D2
ENCODING 466
SWIDTH 525 0
DWIDTH 21 0
BBX 19 30 1 0
BITMAP
080100
1C0780
0F0F00
079E00
07FC00
03FC00
01F800
01F000
00F000
000000
000000
000000
01F800
07FE00
1E1F80
3C0F80
7C07C0
7807C0
F803E0
F803E0
F803E0
F803E0
F803E0
F803C0
7C03C0
7C0780
3E0780
3F0F00
0FFC00
03F000
ENDCHAR
STARTCHAR 01D3
ENCODING 467
SWIDTH 675 0
DWIDTH 27 0
BBX 25 34 1 0
BITMAP
03006000
03C1E000
01E3C000
00FF8000
007F0000
003E0000
001C0000
00000000
00000000
FFE0FF80
7FE0FF00
1F001C00
1F001C00
1F001C00
1F001C00
1F001C00
1F001C00
1F001C00
1F001C00
1F001C00
1F001C00
1F001C00
1F001C00
1F001C00
1F001C00
1F001C00
1F001C00
1F001800
0F803800
0F803800
07C07000
03E0E000
01FFC000
007F0000
ENDCHAR
STARTCHAR 01D4
ENCODING 468
SWIDTH 575 0
DWIDTH 23 0
BBX 22 30 1 0
BITMAP
080100
0E0380
0F0F00
079E00
03FE00
03FC00
01F800
00F800
00F000
000000
000000
000000
0E00E0
FE1FE0
7E07E0
3E03E0
3E03E0
3E03E0
3E03E0
3E03E0
3E03E0
3E03E0
3E03E0
3E03E0
3E03E0
3E07E0
3F1FFC
1FFBFC
1FF3F0
0FC1C0
ENDCHAR
STARTCHAR 01D5
ENCODING 469
SWIDTH 675 0
DWIDTH 27 0
BBX 25 38 1 0
BITMAP
07FFF800
07FFF800
0FFFF000
00000000
00000000
00000000
01C0E000
03E1F000
03E1F000
03C1E000
03C1E000
0180C000
00000000
FFE0FF80
7FE0FF00
1F001C00
1F001C00
1F001C00
1F001C00
1F001C00
1F001C00
1F001C00
1F001C00
1F001C00
1F001C00
1F001C00
1F001C00
1F001C00
1F001C00
1F001C00
1F001C00
1F001800
0F803800
0F803800
07C07000
03E0E000
01FFC000
007F0000
ENDCHAR
STARTCHAR 01D6
ENCODING 470
SWIDTH 575 0
DWIDTH 23 0
BBX 22 33 1 0
BITMAP
1FFFE0
3FFFC0
3FFFC0
000000
000000
000000
070380
0F0780
1F0F80
1F0F80
1F0F80
0E0700
000000
000000
000000
0E00E0
FE1FE0
7E07E0
3E03E0
3E03E0
3E03E0
3E03E0
3E03E0
3E03E0
3E03E0
3E03E0
3E03E0
3E03E0
3E07E0
3F1FFC
1FFBFC
1FF3F0
0FC1C0
ENDCHAR
STARTCHAR 01D7
ENCODING 471
SWIDTH 675 0
DWIDTH 27 0
BBX 25 41 1 0
BITMAP
00010000
0003C000
0007E000
000FE000
001FC000
003F0000
007C0000
00700000
00000000
01C0E000
03E1F000
03E1F000
03C1E000
03C1E000
0180C000
00000000
FFE0FF80
7FE0FF00
1F001C00
1F001C00
1F001C00
1F001C00
1F001C00
1F001C00
1F001C00
1F001C00
1F001C00
1F001C00
1F001C00
1F001C00
1F001C00
1F001C00
1F001C00
1F001C00
1F001800
0F803800
0F803800
07C07000
03E0E000
01FFC000
007F0000
ENDCHAR
STARTCHAR 01D8
ENCODING 472
SWIDTH 575 0
DWIDTH 23 0
BBX 22 37 1 0
BITMAP
001E00
001F00
003F80
003E00
007C00
007800
00F000
00E000
00C000
018000
070380
0F0780
1F0F80
1F0F80
1F0F80
0E0700
000000
000000
000000
0E00E0
FE1FE0
7E07E0
3E03E0
3E03E0
3E03E0
3E03E0
3E03E0
3E03E0
3E03E0
3E03E0
3E03E0
3E03E0
3E07E0
3F1FFC
1FFBFC
1FF3F0
0FC1C0
ENDCHAR
STARTCHAR 01D9
ENCODING 473
SWIDTH 675 0
DWIDTH 27 0
BBX 25 41 1 0
BITMAP
02004000
0380E000
01C1C000
00F78000
007F0000
003F0000
003E0000
00000000
00000000
01C0E000
03E1F000
03E1F000
03C1E000
03C1E000
0180C000
00000000
FFE0FF80
7FE0FF00
1F001C00
1F001C00
1F001C00
1F001C00
1F001C00
1F001C00
1F001C00
1F001C00
1F001C00
1F001C00
1F001C00
1F001C00
1F001C00
1F001C00
1F001C00
1F001C00
1F001800
0F803800
0F803800
07C07000
03E0E000
01FFC000
007F0000
ENDCHAR
STARTCHAR 01DA
ENCODING 474
SWIDTH 575 0
DWIDTH 23 0
BBX 22 37 1 0
BITMAP
0C0100
0E0780
0F0F00
079E00
03FE00
01FC00
01F800
00F000
007000
000000
070380
0F0780
1F0F80
1F0F80
1F0F80
0E0700
000000
000000
000000
0E00E0
FE1FE0
7E07E0
3E03E0
3E03E0
3E03E0
3E03E0
3E03E0
3E03E0
3E03E0
3E03E0
3E03E0
3E03E0
3E07E0
3F1FFC
1FFBFC
1FF3F0
0FC1C0
ENDCHAR
STARTCHAR 01DB
ENCODING 475
SWIDTH 675 0
DWIDTH 27 0
BBX 25 41 1 0
BITMAP
00800000
01C00000
03E00000
03F00000
01F80000
007E0000
001F0000
00070000
00000000
01C0E000
03E1F000
03E1F000
03C1E000
03C1E000
0180C000
00000000
FFE0FF80
7FE0FF00
1F001C00
1F001C00
1F001C00
1F001C00
1F001C00
1F001C00
1F001C00
1F001C00
1F001C00
1F001C00
1F001C00
1F001C00
1F001C00
1F001C00
1F001C00
1F001C00
1F001800
0F803800
0F803800
07C07000
03E0E000
01FFC000
007F0000
ENDCHAR
STARTCHAR 01DC
ENCODING 476
SWIDTH 575 0
DWIDTH 23 0
BBX 22 37 1 0
BITMAP
078000
0FC000
07C000
03E000
01E000
00F000
007000
003800
001800
001000
070380
0F0780
1F0F80
1F0F80
1F0F80
0E0700
000000
000000
000000
0E00E0
FE1FE0
7E07E0
3E03E0
3E03E0
3E03E0
3E03E0
3E03E0
3E03E0
3E03E0
3E03E0
3E03E0
3E03E0
3E07E0
3F1FFC
1FFBFC
1FF3F0
0FC1C0
ENDCHAR
STARTCHAR 01DD
ENCODING 477
SWIDTH 475 0
DWIDTH 19 0
BBX 17 18 1 0
BITMAP
07F000
1FFC00
3FFE00
707F00
C01F00
001F80
000F80
000F80
3FFF80
7FFF80
F80F80
F80F80
F80F00
F81F00
7C1E00
7E3C00
1FF800
07E000
ENDCHAR
STARTCHAR 01DE
ENCODING 478
SWIDTH 625 0
DWIDTH 25 0
BBX 25 38 0 0
BITMAP
07FFF000
07FFF800
0FFFF000
00000000
00000000
00000000
01C0E000
03C1E000
07C3E000
07C3E000
03C1E000
0181C000
00000000
00040000
001E0000
003E0000
007E0000
007F0000
006F0000
00EF8000
00EF8000
00C78000
01C7C000
01C7C000
0183C000
0383E000
0383E000
03FFE000
07FFF000
0700F000
0600F800
0E00F800
0E007800
0C007C00
1C007C00
1C007C00
FF81FF00
FF81FF80
ENDCHAR
STARTCHAR 01DF
ENCODING 479
SWIDTH 500 0
DWIDTH 20 0
BBX 19 33 1 0
BITMAP
3FFFC0
7FFF80
7FFF80
000000
000000
000000
0C0600
1E0F00
3E1F00
3E1F00
3E1F00
1C0E00
000000
000000
000000
01F800
0FFE00
3E3F00
7C1F00
7C1F00
701F00
001F00
01FF00
0FFF00
3F1F00
7C1F00
781F00
F81F00
F81F20
F87FE0
FFDFC0
7F9F80
3E0E00
ENDCHAR
STARTCHAR 01E0
ENCODING 480
SWIDTH 625 0
DWIDTH 25 0
BBX 25 38 0 0
BITMAP
07FFF000
07FFF800
0FFFF000
07FFF000
00000000
00000000
001C0000
003C0000
007C0000
007C0000
003C0000
00180000
00000000
00040000
001E0000
003E0000
007E0000
007F0000
006F0000
00EF8000
00EF8000
00C78000
01C7C000
01C7C000
0183C000
0383E000
0383E000
03FFE000
07FFF000
0700F000
0600F800
0E00F800
0E007800
0C007C00
1C007C00
1C007C00
FF81FF00
FF81FF80
ENDCHAR
STARTCHAR 01E1
ENCODING 481
SWIDTH 500 0
DWIDTH 20 0
BBX 19 33 1 0
BITMAP
3FFFC0
7FFF80
7FFF80
000000
000000
000000
00C000
01E000
03E000
03E000
03E000
01C000
000000
000000
000000
01F800
0FFE00
3E3F00
7C1F00
7C1F00
701F00
001F00
01FF00
0FFF00
3F1F00
7C1F00
781F00
F81F00
F81F20
F87FE0
FFDFC0
7F9F80
3E0E00
ENDCHAR
STARTCHAR 01E2
ENCODING 482
SWIDTH 800 0
DWIDTH 32 0
BBX 32 31 0 0
BITMAP
001FFFE0
001FFFE0
001FFFC0
00000000
00000000
00000000
00FFFFFC
00FFFFFC
001FF01C
003DF00C
003DF00C
0039F00C
0079F00C
0071F000
00F1F000
00E1F000
00E1F000
01FFFFF0
01FFFFF0
03C1F020
0381F000
0381F000
0781F000
0701F000
0F01F000
0E01F003
0E01F003
1E01F006
1C01F00E
FF07FFFE
FF0FFFFE
ENDCHAR
STARTCHAR 01E3
ENCODING 483
SWIDTH 725 0
DWIDTH 29 0
BBX 27 26 1 0
BITMAP
01FFFE00
03FFFC00
03FFFC00
00000000
00000000
00000000
00000000
00000000
00FC3E00
07FEFF80
0FBFC780
1E0F83C0
3E0F81C0
7C0F01E0
000F01E0
00FFFFE0
0FFFFFC0
1F0F0000
7C0F0000
780F0000
F80F8000
F81F8060
FC7FE1E0
FFE3FFC0
7FC1FF00
3F007C00
ENDCHAR
STARTCHAR 01E6
ENCODING 486
SWIDTH 600 0
DWIDTH 24 0
BBX 22 34 1 0
BITMAP
0600C0
0381C0
01C780
00FF00
00FE00
007C00
003800
000000
000000
007F80
01FFF0
0783F0
0F01E0
1E00E0
3C0040
3C0000
7C0000
780000
F80000
F80000
F80000
F80FFC
F80FFC
F801F0
F801F0
FC01F0
7C01F0
7C01F0
7E01F0
3F01F0
1F81F0
0FFFC0
07FF80
00FC00
ENDCHAR
STARTCHAR 01E7
ENCODING 487
SWIDTH 525 0
DWIDTH 21 0
BBX 21 39 0 -9
BITMAP
080100
0E0380
0F0F00
079E00
03FE00
03FC00
01F800
00F800
00F000
000000
000000
000000
01F818
0FFFF8
1E1FF0
3C0F80
7C07C0
7C07C0
7C07C0
7C07C0
3E0780
3F0F00
1FFE00
03F800
078000
0F8000
1FC000
1FFF00
1FFFE0
07FFF0
1EFFF8
7C03F8
7800F8
F800F8
F800F0
FC01E0
7F03C0
1FFF00
03F800
ENDCHAR
STARTCHAR 01E8
ENCODING 488
SWIDTH 625 0
DWIDTH 25 0
BBX 24 34 0 0
BITMAP
030060
0381C0
01E380
00FF80
007F00
003E00
001C00
000000
000000
FFE3FE
7FC1FE
1F00F0
1F01E0
1F03C0
1F0780
1F0F00
1F0E00
1F1C00
1F3C00
1F7800
1FF000
1FF800
1F7C00
1F3C00
1F3E00
1F1F00
1F0F80
1F07C0
1F03E0
1F03F0
1F01F8
1F00FF
7FE07F
FFE03C
ENDCHAR
STARTCHAR 01E9
ENCODING 489
SWIDTH 550 0
DWIDTH 22 0
BBX 21 39 1 0
BITMAP
0C0180
0F0380
078F00
03FE00
01FC00
00F800
007000
000000
000000
060000
FE0000
FE0000
3E0000
3E0000
3E0000
3E0000
3E0000
3E0000
3E0000
3E0000
3E0000
3E0FF0
3E07F0
3E0780
3E0F00
3E3E00
3E7800
3EF000
3FE000
3FF000
3EF800
3E7C00
3E3E00
3E1F00
3E1F80
3E0FC0
3E07E0
FF83F8
FF81E0
ENDCHAR
STARTCHAR 01EE
ENCODING 494
SWIDTH 550 0
DWIDTH 22 0
BBX 18 36 2 0
BITMAP
100600
3C0F00
1E1E00
0F7C00
07F800
07F000
03F000
01E000
01C000
000000
000000
7FFF80
7FFF80
701F00
603E00
607E00
607C00
40F800
01F800
01F000
03E000
07FE00
0FFF00
0E1F80
000F80
0007C0
0003C0
0003C0
0003C0
0003C0
200380
700780
780700
FE1E00
7FFC00
0FE000
ENDCHAR
STARTCHAR 01EF
ENCODING 495
SWIDTH 475 0
DWIDTH 19 0
BBX 18 37 0 -9
BITMAP
100200
1C0F00
0E1E00
07FC00
03F800
01F000
01E000
000000
000000
000000
3FFF80
3FFFC0
301F00
703E00
607E00
607C00
00F800
01F000
03E000
03E000
07C000
0FF800
1FFE00
083F00
001F80
000F80
0007C0
0007C0
0007C0
0007C0
0007C0
180780
780F80
FC0F00
FE1E00
7FF800
0FE000
ENDCHAR
STARTCHAR 01F4
ENCODING 500
SWIDTH 600 0
DWIDTH 24 0
BBX 22 34 1 0
BITMAP
000300
0007C0
000FE0
001FC0
003F00
007C00
00F000
004000
000000
007F80
01FFF0
0783F0
0F01E0
1E00E0
3C0040
3C0000
7C0000
780000
F80000
F80000
F80000
F80FFC
F80FFC
F801F0
F801F0
FC01F0
7C01F0
7C01F0
7E01F0
3F01F0
1F81F0
0FFFC0
07FF80
00FC00
ENDCHAR
STARTCHAR 01F5
ENCODING 501
SWIDTH 525 0
DWIDTH 21 0
BBX 21 39 0 -9
BITMAP
001E00
001F00
003F80
003E00
007C00
007800
007000
00E000
00E000
01C000
000000
000000
01F818
0FFFF8
1E1FF0
3C0F80
7C07C0
7C07C0
7C07C0
7C07C0
3E0780
3F0F00
1FFE00
03F800
078000
0F8000
1FC000
1FFF00
1FFFE0
07FFF0
1EFFF8
7C03F8
7800F8
F800F8
F800F0
FC01E0
7F03C0
1FFF00
03F800
ENDCHAR
STARTCHAR 01F8
ENCODING 504
SWIDTH 675 0
DWIDTH 27 0
BBX 25 34 1 0
BITMAP
00C00000
03E00000
03F00000
07F80000
00FC0000
003E0000
000F0000
00020000
00000000
FE00FF80
FF007F00
1F001C00
1F801C00
1FC01C00
1FC01C00
1FE01C00
1DF01C00
1DF81C00
1CF81C00
1C7C1C00
1C7E1C00
1C3E1C00
1C1F1C00
1C0F9C00
1C0F9C00
1C07DC00
1C03FC00
1C03FC00
1C01FC00
1C00FC00
1C00FC00
1C007C00
7F003C00
FF800C00
ENDCHAR
STARTCHAR 01F9
ENCODING 505
SWIDTH 575 0
DWIDTH 23 0
BBX 22 30 1 0
BITMAP
01C000
07C000
07E000
03E000
01F000
00F000
007800
003800
001C00
000800
000000
000000
0E0F80
FE3FC0
FEFFE0
3FFFE0
3FC7E0
3F03E0
3E03E0
3E03E0
3E03E0
3E03E0
3E03E0
3E03E0
3E03E0
3E03E0
3E03E0
3E03E0
FF8FF8
FFDFFC
ENDCHAR
STARTCHAR 01FA
ENCODING 506
SWIDTH 625 0
DWIDTH 25 0
BBX 25 43 0 0
BITMAP
00010000
0003C000
0007E000
000FE000
001F8000
003E0000
00780000
00E00000
00000000
001E0000
007F0000
00770000
00670000
00E70000
00770000
007E0000
00380000
00000000
00040000
001E0000
003E0000
007E0000
007F0000
006F0000
00EF8000
00EF8000
00C78000
01C7C000
01C7C000
0183C000
0383E000
0383E000
03FFE000
07FFF000
0700F000
0600F800
0E00F800
0E007800
0C007C00
1C007C00
1C007C00
FF81FF00
FF81FF80
ENDCHAR
STARTCHAR 01FB
ENCODING 507
SWIDTH 500 0
DWIDTH 20 0
BBX 19 39 1 0
BITMAP
002000
003E00
007E00
007C00
00F800
00F000
00F000
01E000
01C000
038000
000000
00F000
03F800
03B800
073800
073800
073800
03F000
01E000
000000
000000
01F800
0FFE00
3E3F00
7C1F00
7C1F00
701F00
001F00
01FF00
0FFF00
3F1F00
7C1F00
781F00
F81F00
F81F20
F87FE0
FFDFC0
7F9F80
3E0E00
ENDCHAR
STARTCHAR 01FC
ENCODING 508
SWIDTH 800 0
DWIDTH 32 0
BBX 32 34 0 0
BITMAP
00000600
00000F80
00001FC0
00003F80
00007E00
0000F800
0001E000
00008000
00000000
00FFFFFC
00FFFFFC
001FF01C
003DF00C
003DF00C
0039F00C
0079F00C
0071F000
00F1F000
00E1F000
00E1F000
01FFFFF0
01FFFFF0
03C1F020
0381F000
0381F000
0781F000
0701F000
0F01F000
0E01F003
0E01F003
1E01F006
1C01F00E
FF07FFFE
FF0FFFFE
ENDCHAR
STARTCHAR 01FD
ENCODING 509
SWIDTH 725 0
DWIDTH 29 0
BBX 27 30 1 0
BITMAP
0001E000
0001F000
0003F800
0003E000
0007C000
00078000
00070000
000E0000
000E0000
001C0000
00000000
00000000
00FC3E00
07FEFF80
0FBFC780
1E0F83C0
3E0F81C0
7C0F01E0
000F01E0
00FFFFE0
0FFFFFC0
1F0F0000
7C0F0000
780F0000
F80F8000
F81F8060
FC7FE1E0
FFE3FFC0
7FC1FF00
3F007C00
ENDCHAR
STARTCHAR 01FE
ENCODING 510
SWIDTH 625 0
DWIDTH 25 0
BBX 23 35 1 -1
BITMAP
000300
000780
000FC0
003F80
007E00
00F800
01E000
008000
000000
007E1E
03FFFC
0787F8
0E03F0
1E01F8
3C01FC
3C03FC
7C07FC
780FFE
F80F7E
F81E3E
F83E3E
F83C3E
F8783E
F8F03E
F8F03E
FDE03C
7FC07C
7F8078
7F8078
3F00F0
1F81E0
3FC3C0
7FFF00
F0FC00
C00000
ENDCHAR
STARTCHAR 01FF
ENCODING 511
SWIDTH 525 0
DWIDTH 21 0
BBX 19 31 1 -1
BITMAP
001C00
003F00
003E00
007E00
007C00
00F800
00F000
00E000
01C000
018000
000000
000020
01F8E0
07FFC0
1E1F80
3C0FC0
3C1FC0
781FE0
783BE0
F873E0
F8E3E0
F9E3E0
F9C3E0
FB83C0
7F03C0
7E0780
3E0780
3F0F00
3FFC00
63F000
C00000
ENDCHAR
STARTCHAR 021E
ENCODING 542
SWIDTH 675 0
DWIDTH 27 0
BBX 25 34 1 0
BITMAP
03006000
03C1E000
01E3C000
00FF8000
007F0000
003E0000
001C0000
00000000
00000000
FFE3FF80
7FE3FF80
1F007C00
1F007C00
1F007C00
1F007C00
1F007C00
1F007C00
1F007C00
1F007C00
1F007C00
1FFFFC00
1FFFFC00
1F007C00
1F007C00
1F007C00
1F007C00
1F007C00
1F007C00
1F007C00
1F007C00
1F007C00
1F007C00
7FC3FF80
FFE3FF80
ENDCHAR
STARTCHAR 021F
ENCODING 543
SWIDTH 575 0
DWIDTH 23 0
BBX 22 39 1 0
BITMAP
040180
0F0380
038F00
03FE00
01FC00
00F800
007800
000000
000000
060000
FE0000
FE0000
3E0000
3E0000
3E0000
3E0000
3E0000
3E0000
3E0000
3E0000
3E0000
3E0F80
3E3FC0
3E7FE0
3EFFE0
3FC7E0
3F03E0
3E03E0
3E03E0
3E03E0
3E03E0
3E03E0
3E03E0
3E03E0
3E03E0
3E03E0
3E03E0
FF8FF8
FFDFFC
ENDCHAR
STARTCHAR 0226
ENCODING 550
SWIDTH 625 0
DWIDTH 25 0
BBX 25 32 0 0
BITMAP
001C0000
003C0000
007C0000
007C0000
003C0000
00180000
00000000
00040000
001E0000
003E0000
007E0000
007F0000
006F0000
00EF8000
00EF8000
00C78000
01C7C000
01C7C000
0183C000
0383E000
0383E000
03FFE000
07FFF000
0700F000
0600F800
0E00F800
0E007800
0C007C00
1C007C00
1C007C00
FF81FF00
FF81FF80
ENDCHAR
STARTCHAR 0227
ENCODING 551
SWIDTH 500 0
DWIDTH 20 0
BBX 19 27 1 0
BITMAP
00C000
01E000
03E000
03E000
03E000
01C000
000000
000000
000000
01F800
0FFE00
3E3F00
7C1F00
7C1F00
701F00
001F00
01FF00
0FFF00
3F1F00
7C1F00
781F00
F81F00
F81F20
F87FE0
FFDFC0
7F9F80
3E0E00
ENDCHAR
STARTCHAR 0228
ENCODING 552
SWIDTH 525 0
DWIDTH 21 0
BBX 19 34 1 -9
BITMAP
FFFFC0
FFFFC0
3E01C0
1E01C0
1E0180
1E0180
1E0080
1E0000
1E0000
1E0000
1E0000
1FFF00
1FFE00
1E0600
1E0000
1E0000
1E0000
1E0000
1E0000
1E0060
1E0060
1E00E0
3F01E0
FFFFE0
FFFFC0
00E000
00C000
00F000
01F800
00F800
007800
00F800
03E000
038000
ENDCHAR
STARTCHAR 0229
ENCODING 553
SWIDTH 475 0
DWIDTH 19 0
BBX 17 27 1 -9
BITMAP
01F000
0FFC00
1E3E00
3C1F00
780F00
780F80
F80F80
FFFF80
FFFE00
F80000
F80000
F80000
FC0000
7E0380
7F0700
3FFE00
1FFC00
07F000
00C000
01C000
01F000
01F800
00F800
00F800
00F000
03E000
070000
ENDCHAR
STARTCHAR 022A
ENCODING 554
SWIDTH 625 0
DWIDTH 25 0
BBX 23 38 1 0
BITMAP
0FFFF0
0FFFF0
1FFFE0
000000
000000
000000
0381C0
0783C0
07C3E0
0783C0
0783C0
030180
000000
007E00
03FFC0
0787E0
0E01F0
1E00F8
3C00F8
3C007C
7C007C
78007E
F8003E
F8003E
F8003E
F8003E
F8003E
F8003E
F8003E
FC003C
7C007C
7C0078
3E0078
3E00F0
1F01E0
0FC3C0
07FF00
00FC00
ENDCHAR
STARTCHAR 022B
ENCODING 555
SWIDTH 525 0
DWIDTH 21 0
BBX 19 33 1 0
BITMAP
1FFFC0
3FFFC0
3FFFC0
000000
000000
000000
0E0700
0F0780
1F0F80
1F0F80
1E0F00
0E0700
000000
000000
000000
01F800
07FE00
1E1F80
3C0F80
7C07C0
7807C0
F803E0
F803E0
F803E0
F803E0
F803E0
F803C0
7C03C0
7C0780
3E0780
3F0F00
0FFC00
03F000
ENDCHAR
STARTCHAR 022C
ENCODING 556
SWIDTH 625 0
DWIDTH 25 0
BBX 23 38 1 0
BITMAP
0FFFF0
0FFFF0
1FFFE0
000000
000000
01F060
03FCE0
07FFC0
07FF80
0E3F80
0C0600
080000
000000
007E00
03FFC0
0787E0
0E01F0
1E00F8
3C00F8
3C007C
7C007C
78007E
F8003E
F8003E
F8003E
F8003E
F8003E
F8003E
F8003E
FC003C
7C007C
7C0078
3E0078
3E00F0
1F01E0
0FC3C0
07FF00
00FC00
ENDCHAR
STARTCHAR 022D
ENCODING 557
SWIDTH 525 0
DWIDTH 21 0
BBX 19 34 1 0
BITMAP
1FFFC0
3FFFE0
3FFFC0
000000
000000
000000
000000
038080
07F1C0
0FFF80
1FFF00
18FE00
303C00
000000
000000
000000
01F800
07FE00
1E1F80
3C0F80
7C07C0
7807C0
F803E0
F803E0
F803E0
F803E0
F803E0
F803C0
7C03C0
7C0780
3E0780
3F0F00
0FFC00
03F000
ENDCHAR
STARTCHAR 022E
ENCODING 558
SWIDTH 625 0
DWIDTH 25 0
BBX 23 32 1 0
BITMAP
003800
007800
007C00
007800
007800
003000
000000
007E00
03FFC0
0787E0
0E01F0
1E00F8
3C00F8
3C007C
7C007C
78007E
F8003E
F8003E
F8003E
F8003E
F8003E
F8003E
F8003E
FC003C
7C007C
7C0078
3E0078
3E00F0
1F01E0
0FC3C0
07FF00
00FC00
ENDCHAR
STARTCHAR 022F
ENCODING 559
SWIDTH 525 0
DWIDTH 21 0
BBX 19 27 1 0
BITMAP
00E000
00F000
01F000
01F000
01E000
00E000
000000
000000
000000
01F800
07FE00
1E1F80
3C0F80
7C07C0
7807C0
F803E0
F803E0
F803E0
F803E0
F803E0
F803C0
7C03C0
7C0780
3E0780
3F0F00
0FFC00
03F000
ENDCHAR
STARTCHAR 0230
ENCODING 560
SWIDTH 625 0
DWIDTH 25 0
BBX 23 38 1 0
BITMAP
0FFFE0
0FFFF0
1FFFE0
0FFFE0
000000
000000
003800
007800
007C00
007800
007800
003000
000000
007E00
03FFC0
0787E0
0E01F0
1E00F8
3C00F8
3C007C
7C007C
78007E
F8003E
F8003E
F8003E
F8003E
F8003E
F8003E
F8003E
FC003C
7C007C
7C0078
3E0078
3E00F0
1F01E0
0FC3C0
07FF00
00FC00
ENDCHAR
STARTCHAR 0231
ENCODING 561
SWIDTH 525 0
DWIDTH 21 0
BBX 19 33 1 0
BITMAP
1FFFC0
3FFFC0
3FFFC0
000000
000000
000000
00E000
00F000
01F000
01F000
01E000
00E000
000000
000000
000000
01F800
07FE00
1E1F80
3C0F80
7C07C0
7807C0
F803E0
F803E0
F803E0
F803E0
F803E0
F803C0
7C03C0
7C0780
3E0780
3F0F00
0FFC00
03F000
ENDCHAR
STARTCHAR 0232
ENCODING 562
SWIDTH 625 0
DWIDTH 25 0
BBX 24 31 0 0
BITMAP
07FFF8
0FFFF0
0FFFF0
000000
000000
000000
7E00FF
FF00FF
1F0038
0F8038
0FC070
07C070
03E0E0
03E0E0
01F1C0
01F1C0
00FB80
00FB80
007F00
007F00
003E00
003E00
003E00
003E00
003E00
003E00
003E00
003E00
003E00
01FFC0
01FFC0
ENDCHAR
STARTCHAR 0233
ENCODING 563
SWIDTH 500 0
DWIDTH 20 0
BBX 21 35 -1 -9
BITMAP
0FFFF0
0FFFF0
1FFFE0
000000
000000
000000
000000
000000
7FC1F8
3F81F8
1F00E0
0F80E0
0F81C0
07C1C0
07C180
07C380
03E380
03E700
01F700
01F600
00FE00
00FE00
00FC00
007C00
007800
003800
003800
007000
007000
00E000
21E000
7FC000
7F8000
FF0000
7C0000
ENDCHAR
STARTCHAR 0237
ENCODING 567
SWIDTH 300 0
DWIDTH 12 0
BBX 14 27 -5 -9
BITMAP
001C
03FC
03FC
007C
007C
007C
007C
007C
007C
007C
007C
007C
007C
007C
007C
007C
007C
007C
007C
007C
0078
0078
20F0
78E0
FFC0
FF80
3C00
ENDCHAR
STARTCHAR 023D
ENCODING 573
SWIDTH 500 0
DWIDTH 20 0
BBX 20 25 0 0
BITMAP
FFE000
7FE000
1F0000
1F0000
1F0000
1F0000
1F0000
1F0000
1F0000
1F0000
1F0000
1F0000
7FFC00
FFFC00
1F0000
1F0000
1F0000
1F0000
1F0000
1F0030
1F0060
1F0060
1F80E0
FFFFE0
FFFFE0
ENDCHAR
STARTCHAR 0241
ENCODING 577
SWIDTH 500 0
DWIDTH 20 0
BBX 18 25 1 0
BITMAP
03FC00
1FFF00
3E1F80
7C0F80
F807C0
F807C0
F807C0
F807C0
8007C0
000F80
001F00
007E00
00F800
01F000
01E000
03E000
03E000
03E000
03E000
03E000
03E000
03E000
03E000
1FFC00
1FFC00
ENDCHAR
STARTCHAR 0242
ENCODING 578
SWIDTH 425 0
DWIDTH 17 0
BBX 15 18 1 0
BITMAP
07F0
3FFC
7C7C
783E
F83E
F83E
F03C
007C
00F0
01E0
03C0
07C0
07C0
07C0
07C0
07C0
3FF0
3FF8
ENDCHAR
STARTCHAR 0244
ENCODING 580
SWIDTH 675 0
DWIDTH 27 0
BBX 25 25 1 0
BITMAP
FFE0FF80
FFE0FF80
1F001C00
1F001C00
1F001C00
1F001C00
1F001C00
1F001C00
1F001C00
1F001C00
1F001C00
7FFFFF80
FFFFFF00
1F001C00
1F001C00
1F001C00
1F001C00
1F001C00
1F001800
0F803800
0F803800
07C07000
07E0E000
01FFC000
007F0000
ENDCHAR
STARTCHAR 0245
ENCODING 581
SWIDTH 675 0
DWIDTH 27 0
BBX 26 25 0 0
BITMAP
00060000
001E0000
003E0000
003F0000
003F0000
007F8000
007F8000
00678000
00E7C000
00E7C000
00C3E000
01C3E000
01C3E000
0381F000
0381F000
0380F800
0700F800
0700F800
07007C00
0E007C00
0E003E00
0C003E00
1C003E00
7F00FFC0
FF80FFC0
ENDCHAR
STARTCHAR 024A
ENCODING 586
SWIDTH 650 0
DWIDTH 26 0
BBX 30 34 1 -9
BITMAP
007E0800
01FF9C00
0787F800
0F01F800
1E00F800
1C00F800
3C00F800
7C00F800
7800F800
7800F800
F800F800
F800F800
F800F800
F800F800
F800F800
F800F800
FC00F800
7C00F800
7E01F800
7F03F800
3F8FF800
3FFEF800
1FFCF800
0FF8F800
03E0F800
0000F800
0000F800
0000F80C
0000F87C
0000F87C
0000F878
00007CF0
00007FE0
00001F80
ENDCHAR
STARTCHAR 024B
ENCODING 587
SWIDTH 550 0
DWIDTH 22 0
BBX 27 27 1 -9
BITMAP
01F04000
07FCE000
0E1FC000
3C0FC000
3C07C000
7807C000
F807C000
F807C000
F807C000
F807C000
F807C000
FC07C000
FC0FC000
7E1FC000
7FFFC000
3FF7C000
1FE7C000
0787C000
0007C000
0007C000
0007C060
0007C3E0
0007C3E0
0007C3C0
0003E7C0
0003FF00
0000FC00
ENDCHAR
STARTCHAR 0251
ENCODING 593
SWIDTH 525 0
DWIDTH 21 0
BBX 20 18 1 0
BITMAP
03F080
0FF980
1E1F80
3C0F80
7C0F80
780F80
F80F80
F80F80
F80F80
F80F80
F80F80
FC0F80
FC0F80
7E3F80
7FFFF0
3FEFF0
1FCFC0
0F8700
ENDCHAR
STARTCHAR 0253
ENCODING 595
SWIDTH 525 0
DWIDTH 21 0
BBX 18 29 2 0
BITMAP
00FE00
03FF80
0E1F80
1E0F00
3C0600
7C0000
780000
780000
F80000
F80000
F80000
F87C00
F9FF00
FFFF00
FE1F80
FC0780
F807C0
F803C0
F803C0
F803C0
F803C0
F803C0
F80380
F80780
F80700
FE0E00
FFFC00
3FF000
07C000
ENDCHAR
STARTCHAR 0254
ENCODING 596
SWIDTH 475 0
DWIDTH 19 0
BBX 17 18 1 0
BITMAP
07E000
1FF800
3FFE00
707E00
C03F00
001F00
000F80
000F80
000F80
1C0F80
7C0F80
F80F80
F80F00
F81F00
F81E00
7C3C00
3FF800
0FE000
ENDCHAR
STARTCHAR 0256
ENCODING 598
SWIDTH 550 0
DWIDTH 22 0
BBX 27 39 1 -9
BITMAP
0001C000
003FC000
003FC000
0007C000
0007C000
0007C000
0007C000
0007C000
0007C000
0007C000
0007C000
0007C000
03F7C000
0FFFC000
1E1FC000
3C0FC000
7C07C000
7807C000
F807C000
F807C000
F807C000
F807C000
F807C000
FC07C000
FC0FC000
7E1FC000
7FFFC000
3FF7C000
1FE7C000
0787C000
0007C000
0007C000
0007C060
0007C3E0
0007C3E0
0007C3C0
0003E7C0
0003FF00
0000FC00
ENDCHAR
STARTCHAR 0257
ENCODING 599
SWIDTH 550 0
DWIDTH 22 0
BBX 26 29 1 0
BITMAP
00001F00
00007FC0
0000E7C0
0001C380
0003C200
0003C000
0007C000
0007C000
0007C000
0007C000
0007C000
03F7C000
0FFFC000
1E1FC000
3C0FC000
7C07C000
7807C000
F807C000
F807C000
F807C000
F807C000
F807C000
FC07C000
FC0FC000
7E1FC000
7FFFF800
3FF7F800
1FE7E000
07838000
ENDCHAR
STARTCHAR 0259
ENCODING 601
SWIDTH 475 0
DWIDTH 19 0
BBX 17 18 1 0
BITMAP
07F000
1FFC00
3FFE00
707F00
C01F00
001F80
000F80
000F80
3FFF80
7FFF80
F80F80
F80F80
F80F00
F81F00
7C1E00
7E3C00
1FF800
07E000
ENDCHAR
STARTCHAR 025B
ENCODING 603
SWIDTH 450 0
DWIDTH 18 0
BBX 16 18 1 0
BITMAP
07F8
1FFE
3C3E
781C
780C
7808
7C00
3F80
1FC0
1F00
3C00
7800
F800
F806
FC1F
7FFC
3FF8
0FC0
ENDCHAR
STARTCHAR 0263
ENCODING 611
SWIDTH 500 0
DWIDTH 20 0
BBX 20 27 0 -9
BITMAP
FF87F0
7F03F0
3E01C0
1F0180
1F0380
0F8700
0F8700
07CE00
07CE00
03FC00
03FC00
01F800
01F800
00F800
00F800
00FC00
00FC00
01FE00
03FE00
039F00
039F00
070F00
070F00
070F00
079E00
03FC00
00F800
ENDCHAR
STARTCHAR 0268
ENCODING 616
SWIDTH 300 0
DWIDTH 12 0
BBX 11 27 0 0
BITMAP
0F00
1F80
1F80
1F80
0F00
0000
0000
0000
0000
0700
7F00
7F00
1F00
1F00
1F00
1F00
1F00
FFE0
FFE0
1F00
1F00
1F00
1F00
1F00
1F00
7FC0
7FE0
ENDCHAR
STARTCHAR 0269
ENCODING 617
SWIDTH 325 0
DWIDTH 13 0
BBX 13 18 1 0
BITMAP
0700
FF00
FF00
1F00
1F00
1F00
1F00
1F00
1F00
1F00
1F00
1F00
1F00
1F18
1FF8
1FF0
0FC0
0F80
ENDCHAR
STARTCHAR 026B
ENCODING 619
SWIDTH 375 0
DWIDTH 15 0
BBX 15 30 0 0
BITMAP
00C0
1FC0
1FC0
07C0
07C0
07C0
07C0
07C0
07C0
07C0
07C0
07C0
1FC2
3FC6
7FFC
7FFC
E7F8
C7F0
07C0
07C0
07C0
07C0
07C0
07C0
07C0
07C0
07C0
07C0
1FF0
1FF8
ENDCHAR
STARTCHAR 0272
ENCODING 626
SWIDTH 575 0
DWIDTH 23 0
BBX 29 27 -6 -9
BITMAP
00181F00
03FC7F80
03FDFFC0
007FFFC0
007F8FC0
007E07C0
007C07C0
007C07C0
007C07C0
007C07C0
007C07C0
007C07C0
007C07C0
007C07C0
007C07C0
007C07C0
007C1FF0
007C3FF8
007C0000
007C0000
00780000
00780000
20F00000
78E00000
FFC00000
FF800000
7E000000
ENDCHAR
STARTCHAR 0275
ENCODING 629
SWIDTH 525 0
DWIDTH 21 0
BBX 19 18 1 0
BITMAP
01F800
07FE00
1E1F80
3C0F80
7C07C0
7807C0
F803E0
F803E0
FFFFE0
FFFFE0
F803E0
F803C0
7C03C0
7C0780
3E0780
3F0F00
0FFC00
03F000
ENDCHAR
STARTCHAR 0283
ENCODING 643
SWIDTH 275 0
DWIDTH 11 0
BBX 22 38 -6 -9
BITMAP
0003F0
000FFC
001C78
003C30
007800
007800
00F800
00F800
00F800
00F800
00F800
00F800
00F800
00FC00
00FC00
00FC00
007C00
007C00
007C00
007C00
007C00
007E00
007E00
003E00
003E00
003E00
003E00
003E00
003E00
003E00
003C00
003C00
003800
107800
3C7000
7FE000
FFC000
3F0000
ENDCHAR
STARTCHAR 0289
ENCODING 649
SWIDTH 575 0
DWIDTH 23 0
BBX 21 18 1 0
BITMAP
0E03C0
FE3FC0
3E0FC0
3E07C0
3E07C0
3E07C0
3E07C0
3E07C0
FFFFF8
FFFFF0
3E07C0
3E07C0
3E07C0
3E0FC0
3F1FF8
1FFFF8
1FE7E0
078380
ENDCHAR
STARTCHAR 028A
ENCODING 650
SWIDTH 500 0
DWIDTH 20 0
BBX 18 18 1 0
BITMAP
FF1FC0
FF1FC0
1F1E00
1E0E00
3C0700
7C0780
780380
F803C0
F803C0
F803C0
F803C0
F803C0
F80380
7C0780
7E0700
3F0F00
1FFC00
07F000
ENDCHAR
STARTCHAR 028C
ENCODING 652
SWIDTH 500 0
DWIDTH 20 0
BBX 20 18 0 0
BITMAP
003000
00F000
00F000
01F800
01F800
03FC00
03FC00
033E00
073E00
071F00
0E1F00
0E0F00
0C0F80
1C0F80
1C07C0
3807C0
7C0FF0
FE1FF0
ENDCHAR
STARTCHAR 0292
ENCODING 658
SWIDTH 475 0
DWIDTH 19 0
BBX 18 27 0 -9
BITMAP
3FFF80
3FFFC0
301F00
703E00
607E00
607C00
00F800
01F000
03E000
03E000
07C000
0FF800
1FFE00
083F00
001F80
000F80
0007C0
0007C0
0007C0
0007C0
0007C0
180780
780F80
FC0F00
FE1E00
7FF800
0FE000
ENDCHAR
STARTCHAR 0294
ENCODING 660
SWIDTH 475 0
DWIDTH 19 0
BBX 17 30 1 0
BITMAP
03F800
1FFE00
3E3F00
7C1F00
781F80
F80F80
F80F80
F00F80
000F80
000F00
001F00
003E00
003C00
007800
00F000
01F000
01E000
03E000
03E000
03E000
03E000
03E000
03E000
03E000
03E000
03E000
03E000
03E000
1FFC00
1FFC00
ENDCHAR
STARTCHAR 02A0
ENCODING 672
SWIDTH 550 0
DWIDTH 22 0
BBX 26 38 1 -9
BITMAP
00001F00
00007FC0
0000E7C0
0001E380
0003C200
0003C000
0007C000
0007C000
0007C000
0007C000
0007C000
01F7C000
07FFC000
0E1FC000
3C0FC000
3C07C000
7807C000
F807C000
F807C000
F807C000
F807C000
F807C000
FC07C000
7C0FC000
7F1FC000
7FFFC000
3FF7C000
1FE7C000
0787C000
0007C000
0007C000
0007C000
0007C000
0007C000
0007C000
0007C000
003FF000
003FF800
ENDCHAR
STARTCHAR 02BC
ENCODING 700
SWIDTH 250 0
DWIDTH 10 0
BBX 6 11 2 18
BITMAP
18
78
FC
FC
3C
1C
1C
18
38
30
60
ENDCHAR
STARTCHAR 02C0
ENCODING 704
SWIDTH 325 0
DWIDTH 13 0
BBX 11 14 1 16
BITMAP
0F80
3FC0
71E0
E0E0
E0E0
80E0
01C0
0180
0300
0600
0E00
0E00
0E00
0E00
ENDCHAR
STARTCHAR 02C6
ENCODING 710
SWIDTH 350 0
DWIDTH 14 0
BBX 14 9 0 20
BITMAP
0780
07C0
0FC0
1FE0
1FF0
3CF0
7878
F01C
4008
ENDCHAR
STARTCHAR 02C7
ENCODING 711
SWIDTH 350 0
DWIDTH 14 0
BBX 13 9 1 21
BITMAP
8010
E038
F0F0
79E0
3FE0
3FC0
1F80
0F80
0F00
ENDCHAR
STARTCHAR 02C9
ENCODING 713
SWIDTH 500 0
DWIDTH 20 0
BBX 16 3 2 23
BITMAP
FFFF
FFFF
FFFE
ENDCHAR
STARTCHAR 02CA
ENCODING 714
SWIDTH 225 0
DWIDTH 9 0
BBX 9 10 0 20
BITMAP
0E00
1F80
1F80
1F00
3E00
3C00
7800
7000
E000
4000
ENDCHAR
STARTCHAR 02CB
ENCODING 715
SWIDTH 225 0
DWIDTH 9 0
BBX 9 10 0 20
BITMAP
3800
FC00
FC00
7E00
3E00
1E00
0F00
0700
0380
0100
ENDCHAR
STARTCHAR 02CD
ENCODING 717
SWIDTH 500 0
DWIDTH 20 0
BBX 16 3 2 -4
BITMAP
FFFF
FFFF
FFFE
ENDCHAR
STARTCHAR 02D7
ENCODING 727
SWIDTH 350 0
DWIDTH 14 0
BBX 12 2 1 9
BITMAP
7FF0
FFF0
ENDCHAR
STARTCHAR 02D8
ENCODING 728
SWIDTH 350 0
DWIDTH 14 0
BBX 14 7 0 21
BITMAP
4008
E01C
783C
7FF8
3FF0
1FE0
07C0
ENDCHAR
STARTCHAR 02D9
ENCODING 729
SWIDTH 200 0
DWIDTH 8 0
BBX 5 6 1 21
BITMAP
70
78
F8
F8
F0
70
ENDCHAR
STARTCHAR 02DA
ENCODING 730
SWIDTH 250 0
DWIDTH 10 0
BBX 8 8 1 20
BITMAP
1C
7E
67
E7
E7
E6
FE
78
ENDCHAR
STARTCHAR 02DB
ENCODING 731
SWIDTH 250 0
DWIDTH 10 0
BBX 10 9 1 -8
BITMAP
0300
0E00
3C00
7C00
7800
F800
F880
FFC0
7E00
ENDCHAR
STARTCHAR 02DC
ENCODING 732
SWIDTH 400 0
DWIDTH 16 0
BBX 16 6 0 21
BITMAP
0F03
1FC6
3FFE
7FFC
63F8
C070
ENDCHAR
STARTCHAR 02DD
ENCODING 733
SWIDTH 375 0
DWIDTH 15 0
BBX 13 9 1 20
BITMAP
1C78
3E78
3CF8
3CF0
78E0
71C0
61C0
E380
4100
ENDCHAR
STARTCHAR 0300
ENCODING 768
SWIDTH 0 0
DWIDTH 0 0
BBX 9 10 -14 20
BITMAP
3800
F800
FC00
7C00
3E00
1E00
0E00
0700
0300
0380
ENDCHAR
STARTCHAR 0301
ENCODING 769
SWIDTH 0 0
DWIDTH 0 0
BBX 9 10 -13 20
BITMAP
1E00
1F00
1F80
3E00
3C00
7800
7800
F000
E000
C000
ENDCHAR
STARTCHAR 0302
ENCODING 770
SWIDTH 0 0
DWIDTH 0 0
BBX 14 9 -17 20
BITMAP
0780
0780
0FC0
1FE0
3FE0
3CF0
7878
E018
400C
ENDCHAR
STARTCHAR 0303
ENCODING 771
SWIDTH 0 0
DWIDTH 0 0
BBX 15 6 -18 21
BITMAP
1E06
3F8E
7FFC
7FFC
E3F8
C0F0
ENDCHAR
STARTCHAR 0304
ENCODING 772
SWIDTH 0 0
DWIDTH 0 0
BBX 16 3 -18 23
BITMAP
FFFF
FFFF
FFFE
ENDCHAR
STARTCHAR 0306
ENCODING 774
SWIDTH 0 0
DWIDTH 0 0
BBX 14 7 -17 21
BITMAP
4008
E01C
7878
7FF8
3FF0
1FE0
0F80
ENDCHAR
STARTCHAR 0307
ENCODING 775
SWIDTH 0 0
DWIDTH 0 0
BBX 5 6 -13 21
BITMAP
70
78
F8
F8
F0
70
ENDCHAR
STARTCHAR 0308
ENCODING 776
SWIDTH 0 0
DWIDTH 0 0
BBX 14 6 -17 21
BITMAP
7038
783C
F87C
F87C
F078
7038
ENDCHAR
STARTCHAR 0309
ENCODING 777
SWIDTH 0 0
DWIDTH 0 0
BBX 8 7 -14 21
BITMAP
3E
7F
E7
0E
1C
38
1C
ENDCHAR
STARTCHAR 030A
ENCODING 778
SWIDTH 0 0
DWIDTH 0 0
BBX 8 8 -14 20
BITMAP
1C
7E
67
E7
E7
E6
FE
78
ENDCHAR
STARTCHAR 030B
ENCODING 779
SWIDTH 0 0
DWIDTH 0 0
BBX 14 9 -15 20
BITMAP
1E78
1E7C
3E78
3CF0
38F0
78E0
71C0
6180
C180
ENDCHAR
STARTCHAR 030C
ENCODING 780
SWIDTH 0 0
DWIDTH 0 0
BBX 14 9 -17 21
BITMAP
4008
E01C
7878
3CF0
1FF0
1FE0
0FC0
0780
0780
ENDCHAR
STARTCHAR 031B
ENCODING 795
SWIDTH 75 0
DWIDTH 3 0
BBX 9 10 -7 13
BITMAP
0100
0780
1F80
0F80
0F80
0F00
1E00
3C00
F000
4000
ENDCHAR
STARTCHAR 0323
ENCODING 803
SWIDTH 0 0
DWIDTH 0 0
BBX 5 6 -13 -9
BITMAP
70
78
F8
F8
F0
70
ENDCHAR
STARTCHAR 0327
ENCODING 807
SWIDTH 0 0
DWIDTH 0 0
BBX 8 9 -14 -9
BITMAP
18
38
3C
3F
7F
1F
1E
FC
E0
ENDCHAR
STARTCHAR 0328
ENCODING 808
SWIDTH 0 0
DWIDTH 0 0
BBX 10 9 -15 -8
BITMAP
0300
0E00
3C00
7C00
7800
F800
F8C0
FF80
7E00
ENDCHAR
STARTCHAR 0331
ENCODING 817
SWIDTH 0 0
DWIDTH 0 0
BBX 16 3 -18 -6
BITMAP
FFFF
FFFF
FFFE
ENDCHAR
STARTCHAR 033F
ENCODING 831
SWIDTH 0 0
DWIDTH 0 0
BBX 21 6 -20 24
BITMAP
7FFFF8
FFFFF8
000000
000000
7FFFF8
FFFFF8
ENDCHAR
STARTCHAR 035E
ENCODING 862
SWIDTH 0 0
DWIDTH 0 0
BBX 28 3 -14 32
BITMAP
7FFFFFF0
FFFFFFF0
FFFFFFE0
ENDCHAR
STARTCHAR 035F
ENCODING 863
SWIDTH 0 0
DWIDTH 0 0
BBX 28 3 -14 -14
BITMAP
7FFFFFF0
FFFFFFF0
FFFFFFE0
ENDCHAR
STARTCHAR 03A0
ENCODING 928
SWIDTH 650 0
DWIDTH 26 0
BBX 24 25 1 0
BITMAP
FFFFFF
7FFFFF
1F81F8
1F00F8
1F00F8
1F00F8
1F00F8
1F00F8
1F00F8
1F00F8
1F00F8
1F00F8
1F00F8
1F00F8
1F00F8
1F00F8
1F00F8
1F00F8
1F00F8
1F00F8
1F00F8
1F00F8
1F00F8
7FE7FE
FFE7FF
ENDCHAR
STARTCHAR 03A9
ENCODING 937
SWIDTH 675 0
DWIDTH 27 0
BBX 24 25 1 0
BITMAP
007F00
03FFE0
07C3F0
0F00F8
1F00FC
3E007C
3E007C
3C003E
7C003E
7C003E
7C003E
7C003E
7C003E
7C003C
3E007C
3E0078
1F00F8
0F00F0
0F81E0
6783C3
63C383
61E707
FFE7FE
FFE7FE
FFE7FE
ENDCHAR
STARTCHAR 03C0
ENCODING 960
SWIDTH 550 0
DWIDTH 22 0
BBX 21 18 0 0
BITMAP
0FFFF0
1FFFF8
3FFFF0
7FFFE0
FFFFC0
C70600
070600
070E00
070E00
070E00
070E00
070E00
0F0E00
0F0E00
0F0F10
1F0FF0
3E07E0
300780
ENDCHAR
STARTCHAR 1E02
ENCODING 7682
SWIDTH 600 0
DWIDTH 24 0
BBX 22 32 0 0
BITMAP
007800
007800
00F800
00F800
007800
007000
000000
0FFE00
FFFF80
DF0FE0
1F03F0
1F01F0
1F01F0
1F01F0
1F01F0
1F01E0
1F03E0
1F0F80
1FFF00
1FFFE0
1F03F0
1F01F8
1F00F8
1F007C
1F007C
1F007C
1F007C
1F007C
1F00F8
1F03F0
7FFFE0
FFFF00
ENDCHAR
STARTCHAR 1E03
ENCODING 7683
SWIDTH 525 0
DWIDTH 21 0
BBX 20 30 0 0
BITMAP
060000
FE0000
FE0000
3E0E00
3E0F00
3E1F00
3E1F00
3E1E00
3E0E00
3E0000
3E0000
3E0000
3E1F00
3E7FC0
3FFFC0
3FC7E0
3F01E0
3E01F0
3E00F0
3E00F0
3E00F0
3E00F0
3E00F0
3E00E0
3E01E0
3E01C0
3F8380
3FFF00
0FFC00
01F000
ENDCHAR
STARTCHAR 1E04
ENCODING 7684
SWIDTH 600 0
DWIDTH 24 0
BBX 22 34 0 -9
BITMAP
0FFE00
FFFF80
DF0FE0
1F03F0
1F01F0
1F01F0
1F01F0
1F01F0
1F01E0
1F03E0
1F0F80
1FFF00
1FFFE0
1F03F0
1F01F8
1F00F8
1F007C
1F007C
1F007C
1F007C
1F007C
1F00F8
1F03F0
7FFFE0
FFFF00
000000
000000
000000
003800
007800
00F800
00F800
00F800
007000
ENDCHAR
STARTCHAR 1E05
ENCODING 7685
SWIDTH 525 0
DWIDTH 21 0
BBX 20 39 0 -9
BITMAP
060000
FE0000
FE0000
3E0000
3E0000
3E0000
3E0000
3E0000
3E0000
3E0000
3E0000
3E0000
3E1F00
3E7FC0
3FFFC0
3FC7E0
3F01E0
3E01F0
3E00F0
3E00F0
3E00F0
3E00F0
3E00F0
3E00E0
3E01E0
3E01C0
3F8380
3FFF00
0FFC00
01F000
000000
000000
000000
00E000
00F000
01F000
01F000
01F000
00E000
ENDCHAR
STARTCHAR 1E06
ENCODING 7686
SWIDTH 600 0
DWIDTH 24 0
BBX 22 31 0 -6
BITMAP
0FFE00
FFFF80
DF0FE0
1F03F0
1F01F0
1F01F0
1F01F0
1F01F0
1F01E0
1F03E0
1F0F80
1FFF00
1FFFE0
1F03F0
1F01F8
1F00F8
1F007C
1F007C
1F007C
1F007C
1F007C
1F00F8
1F03F0
7FFFE0
FFFF00
000000
000000
000000
0FFFF0
1FFFE0
1FFFE0
ENDCHAR
STARTCHAR 1E07
ENCODING 7687
SWIDTH 525 0
DWIDTH 21 0
BBX 20 36 0 -6
BITMAP
060000
FE0000
FE0000
3E0000
3E0000
3E0000
3E0000
3E0000
3E0000
3E0000
3E0000
3E0000
3E1F00
3E7FC0
3FFFC0
3FC7E0
3F01E0
3E01F0
3E00F0
3E00F0
3E00F0
3E00F0
3E00F0
3E00E0
3E01E0
3E01C0
3F8380
3FFF00
0FFC00
01F000
000000
000000
000000
1FFFC0
3FFFC0
3FFF80
ENDCHAR
STARTCHAR 1E08
ENCODING 7688
SWIDTH 550 0
DWIDTH 22 0
BBX 20 44 1 -9
BITMAP
000600
000F80
001FC0
003F80
007E00
00F800
01E000
008000
000000
000000
007F80
03FFF0
0787E0
0F01E0
1E00C0
3C0040
3C0000
7C0000
780000
780000
F80000
F80000
F80000
F80000
F80000
F80000
F80000
FC0000
7C0000
7E0000
7F0060
3F81E0
1FFFC0
0FFF00
07FE00
01F000
00E000
00F800
00FC00
01FC00
007C00
007800
01F000
01C000
ENDCHAR
STARTCHAR 1E09
ENCODING 7689
SWIDTH 450 0
DWIDTH 18 0
BBX 17 39 1 -9
BITMAP
003800
007E00
007E00
007C00
00F800
00F000
01E000
01C000
038000
000000
000000
000000
01FC00
07FF00
1F1F00
3C0F00
3C0700
780600
780000
F80000
F80000
F80000
F80000
F80000
FC0000
7E0100
7F0780
3FFE00
1FFC00
07F000
01C000
01C000
01F000
03F800
00F800
00F800
01F000
07E000
070000
ENDCHAR
STARTCHAR 1E0A
ENCODING 7690
SWIDTH 625 0
DWIDTH 25 0
BBX 22 32 1 0
BITMAP
007000
00F800
00F800
00F000
00F000
006000
000000
0FFC00
FFFF80
FF0FC0
1F03E0
1F01F0
1F01F8
1F00F8
1F00F8
1F007C
1F007C
1F007C
1F007C
1F007C
1F007C
1F007C
1F007C
1F0078
1F00F8
1F00F8
1F01F0
1F01F0
1F03E0
1F07C0
7FFF80
FFFC00
ENDCHAR
STARTCHAR 1E0B
ENCODING 7691
SWIDTH 550 0
DWIDTH 22 0
BBX 21 30 1 0
BITMAP
0001C0
003FC0
003FC0
0E07C0
1F07C0
1F07C0
1F07C0
1E07C0
0C07C0
0007C0
0007C0
0007C0
03F7C0
0FFFC0
1E1FC0
3C0FC0
7C07C0
7807C0
F807C0
F807C0
F807C0
F807C0
F807C0
FC07C0
FC0FC0
7E1FC0
7FFFF8
3FF7F8
1FE7E0
078380
ENDCHAR
STARTCHAR 1E0C
ENCODING 7692
SWIDTH 625 0
DWIDTH 25 0
BBX 22 34 1 -9
BITMAP
0FFC00
FFFF80
FF0FC0
1F03E0
1F01F0
1F01F8
1F00F8
1F00F8
1F007C
1F007C
1F007C
1F007C
1F007C
1F007C
1F007C
1F007C
1F0078
1F00F8
1F00F8
1F01F0
1F01F0
1F03E0
1F07C0
7FFF80
FFFC00
000000
000000
000000
007000
00F000
00F800
00F000
00F000
00E000
ENDCHAR
STARTCHAR 1E0D
ENCODING 7693
SWIDTH 550 0
DWIDTH 22 0
BBX 21 39 1 -9
BITMAP
0001C0
003FC0
003FC0
0007C0
0007C0
0007C0
0007C0
0007C0
0007C0
0007C0
0007C0
0007C0
03F7C0
0FFFC0
1E1FC0
3C0FC0
7C07C0
7807C0
F807C0
F807C0
F807C0
F807C0
F807C0
FC07C0
FC0FC0
7E1FC0
7FFFF8
3FF7F8
1FE7E0
078380
000000
000000
000000
00E000
01F000
01F000
01F000
01E000
00E000
ENDCHAR
STARTCHAR 1E0E
ENCODING 7694
SWIDTH 625 0
DWIDTH 25 0
BBX 22 31 1 -6
BITMAP
0FFC00
FFFF80
FF0FC0
1F03E0
1F01F0
1F01F8
1F00F8
1F00F8
1F007C
1F007C
1F007C
1F007C
1F007C
1F007C
1F007C
1F007C
1F0078
1F00F8
1F00F8
1F01F0
1F01F0
1F03E0
1F07C0
7FFF80
FFFC00
000000
000000
000000
1FFFE0
1FFFC0
3FFFC0
ENDCHAR
STARTCHAR 1E0F
ENCODING 7695
SWIDTH 550 0
DWIDTH 22 0
BBX 21 36 1 -6
BITMAP
0001C0
003FC0
003FC0
0007C0
0007C0
0007C0
0007C0
0007C0
0007C0
0007C0
0007C0
0007C0
03F7C0
0FFFC0
1E1FC0
3C0FC0
7C07C0
7807C0
F807C0
F807C0
F807C0
F807C0
F807C0
FC07C0
FC0FC0
7E1FC0
7FFFF8
3FF7F8
1FE7E0
078380
000000
000000
000000
3FFFC0
3FFFC0
3FFF80
ENDCHAR
STARTCHAR 1E14
ENCODING 7700
SWIDTH 525 0
DWIDTH 21 0
BBX 19 41 1 0
BITMAP
040000
0E0000
1F0000
1F8000
0FC000
03E000
00F000
003800
001000
000000
3FFFC0
3FFFC0
7FFF80
000000
000000
000000
FFFFC0
FFFFC0
3E01C0
1E01C0
1E0180
1E0180
1E0080
1E0000
1E0000
1E0000
1E0000
1FFF00
1FFE00
1E0600
1E0000
1E0000
1E0000
1E0000
1E0000
1E0060
1E0060
1E00E0
3F01E0
FFFFE0
FFFFC0
ENDCHAR
STARTCHAR 1E15
ENCODING 7701
SWIDTH 475 0
DWIDTH 19 0
BBX 18 37 1 0
BITMAP
078000
0F8000
1FC000
07C000
03C000
01E000
00E000
007000
003000
003800
000000
3FFFC0
3FFFC0
7FFF80
000000
000000
000000
000000
000000
01F000
0FFC00
1E3E00
3C1F00
780F00
780F80
F80F80
FFFF80
FFFE00
F80000
F80000
F80000
FC0000
7E0180
7F0700
3FFE00
1FFC00
07F000
ENDCHAR
STARTCHAR 1E16
ENCODING 7702
SWIDTH 525 0
DWIDTH 21 0
BBX 19 41 1 0
BITMAP
000800
000C00
001F00
007F00
00FE00
01F800
03E000
038000
020000
000000
3FFFC0
3FFFC0
7FFF80
000000
000000
000000
FFFFC0
FFFFC0
3E01C0
1E01C0
1E0180
1E0180
1E0080
1E0000
1E0000
1E0000
1E0000
1FFF00
1FFE00
1E0600
1E0000
1E0000
1E0000
1E0000
1E0000
1E0060
1E0060
1E00E0
3F01E0
FFFFE0
FFFFC0
ENDCHAR
STARTCHAR 1E17
ENCODING 7703
SWIDTH 475 0
DWIDTH 19 0
BBX 18 37 1 0
BITMAP
003C00
003F00
003E00
007C00
007800
00F000
00F000
01E000
01C000
018000
000000
3FFFC0
3FFFC0
7FFF80
000000
000000
000000
000000
000000
01F000
0FFC00
1E3E00
3C1F00
780F00
780F80
F80F80
FFFF80
FFFE00
F80000
F80000
F80000
FC0000
7E0180
7F0700
3FFE00
1FFC00
07F000
ENDCHAR
STARTCHAR 1E1C
ENCODING 7708
SWIDTH 525 0
DWIDTH 21 0
BBX 19 43 1 -9
BITMAP
100100
180300
1E0F00
0FFE00
0FFE00
07FC00
01F000
000000
000000
FFFFC0
FFFFC0
3E01C0
1E01C0
1E0180
1E0180
1E0080
1E0000
1E0000
1E0000
1E0000
1FFF00
1FFE00
1E0600
1E0000
1E0000
1E0000
1E0000
1E0000
1E0060
1E0060
1E00E0
3F01E0
FFFFE0
FFFFC0
00E000
00C000
00F000
01F800
00F800
007800
00F800
03E000
038000
ENDCHAR
STARTCHAR 1E1D
ENCODING 7709
SWIDTH 475 0
DWIDTH 19 0
BBX 17 37 1 -9
BITMAP
100100
180300
1E0F00
0FFE00
0FFE00
07FC00
01F000
000000
000000
000000
01F000
0FFC00
1E3E00
3C1F00
780F00
780F80
F80F80
FFFF80
FFFE00
F80000
F80000
F80000
FC0000
7E0380
7F0700
3FFE00
1FFC00
07F000
00C000
01C000
01F000
01F800
00F800
00F800
01F000
03E000
070000
ENDCHAR
STARTCHAR 1E1E
ENCODING 7710
SWIDTH 500 0
DWIDTH 20 0
BBX 18 32 1 0
BITMAP
01E000
03E000
03E000
03E000
03C000
018000
000000
FFFFC0
FFFFC0
3E01C0
1E01C0
1E01C0
1E00C0
1E0080
1E0000
1E0000
1E0000
1E0000
1FFE00
1FFE00
1E0400
1E0000
1E0000
1E0000
1E0000
1E0000
1E0000
1E0000
1E0000
3E0000
FFC000
FFE000
ENDCHAR
STARTCHAR 1E1F
ENCODING 7711
SWIDTH 350 0
DWIDTH 14 0
BBX 17 37 0 0
BITMAP
00E000
01E000
01E000
03E000
01E000
01C000
000000
000000
003F00
00FF80
038F00
078600
070000
0F0000
0F0000
1F0000
1F0000
1F0000
1F0000
7FFC00
FFF800
1F1000
1F0000
1F0000
1F0000
1F0000
1F0000
1F0000
1F0000
1F0000
1F0000
1F0000
1F0000
1F0000
1F0000
7FF000
FFF000
ENDCHAR
STARTCHAR 1E20
ENCODING 7712
SWIDTH 600 0
DWIDTH 24 0
BBX 22 31 1 0
BITMAP
0FFFF0
0FFFF0
0FFFE0
000000
000000
000000
007F80
01FFF0
0783F0
0F01E0
1E00E0
3C0040
3C0000
7C0000
780000
F80000
F80000
F80000
F80FFC
F80FFC
F801F0
F801F0
FC01F0
7C01F0
7C01F0
7E01F0
3F01F0
1F81F0
0FFFC0
07FF80
00FC00
ENDCHAR
STARTCHAR 1E21
ENCODING 7713
SWIDTH 525 0
DWIDTH 21 0
BBX 21 35 0 -9
BITMAP
1FFFE0
3FFFC0
3FFFC0
000000
000000
000000
000000
000000
01F818
0FFFF8
1E1FF0
3C0F80
7C07C0
7C07C0
7C07C0
7C07C0
3E0780
3F0F00
1FFE00
03F800
078000
0F8000
1FC000
1FFF00
1FFFE0
07FFF0
1EFFF8
7C03F8
7800F8
F800F8
F800F0
FC01E0
7F03C0
1FFF00
03F800
ENDCHAR
STARTCHAR 1E22
ENCODING 7714
SWIDTH 675 0
DWIDTH 27 0
BBX 25 32 1 0
BITMAP
001C0000
003C0000
003E0000
003C0000
003C0000
00180000
00000000
FFE3FF80
7FE3FF80
1F007C00
1F007C00
1F007C00
1F007C00
1F007C00
1F007C00
1F007C00
1F007C00
1F007C00
1FFFFC00
1FFFFC00
1F007C00
1F007C00
1F007C00
1F007C00
1F007C00
1F007C00
1F007C00
1F007C00
1F007C00
1F007C00
7FC3FF80
FFE3FF80
ENDCHAR
STARTCHAR 1E23
ENCODING 7715
SWIDTH 575 0
DWIDTH 23 0
BBX 22 37 1 0
BITMAP
007000
00F800
00F800
00F800
00F000
006000
000000
060000
FE0000
FE0000
3E0000
3E0000
3E0000
3E0000
3E0000
3E0000
3E0000
3E0000
3E0000
3E0F80
3E3FC0
3E7FE0
3EFFE0
3FC7E0
3F03E0
3E03E0
3E03E0
3E03E0
3E03E0
3E03E0
3E03E0
3E03E0
3E03E0
3E03E0
3E03E0
FF8FF8
FFDFFC
ENDCHAR
STARTCHAR 1E24
ENCODING 7716
SWIDTH 675 0
DWIDTH 27 0
BBX 25 34 1 -9
BITMAP
FFE3FF80
7FE3FF80
1F007C00
1F007C00
1F007C00
1F007C00
1F007C00
1F007C00
1F007C00
1F007C00
1F007C00
1FFFFC00
1FFFFC00
1F007C00
1F007C00
1F007C00
1F007C00
1F007C00
1F007C00
1F007C00
1F007C00
1F007C00
1F007C00
7FC3FF80
FFE3FF80
00000000
00000000
00000000
001C0000
003C0000
003E0000
003C0000
003C0000
00380000
ENDCHAR
STARTCHAR 1E25
ENCODING 7717
SWIDTH 575 0
DWIDTH 23 0
BBX 22 39 1 -9
BITMAP
060000
FE0000
FE0000
3E0000
3E0000
3E0000
3E0000
3E0000
3E0000
3E0000
3E0000
3E0000
3E0F80
3E3FC0
3E7FE0
3EFFE0
3FC7E0
3F03E0
3E03E0
3E03E0
3E03E0
3E03E0
3E03E0
3E03E0
3E03E0
3E03E0
3E03E0
3E03E0
FF8FF8
FFDFFC
000000
000000
000000
007000
00F800
00F800
00F800
00F000
007000
ENDCHAR
STARTCHAR 1E26
ENCODING 7718
SWIDTH 675 0
DWIDTH 27 0
BBX 25 32 1 0
BITMAP
01C0E000
03C1E000
03E1F000
03C1E000
03C1E000
0180C000
00000000
FFE3FF80
7FE3FF80
1F007C00
1F007C00
1F007C00
1F007C00
1F007C00
1F007C00
1F007C00
1F007C00
1F007C00
1FFFFC00
1FFFFC00
1F007C00
1F007C00
1F007C00
1F007C00
1F007C00
1F007C00
1F007C00
1F007C00
1F007C00
1F007C00
7FC3FF80
FFE3FF80
ENDCHAR
STARTCHAR 1E27
ENCODING 7719
SWIDTH 575 0
DWIDTH 23 0
BBX 22 37 1 0
BITMAP
070380
0F87C0
0F87C0
0F87C0
0F0780
060300
000000
060000
FE0000
FE0000
3E0000
3E0000
3E0000
3E0000
3E0000
3E0000
3E0000
3E0000
3E0000
3E0F80
3E3FC0
3E7FE0
3EFFE0
3FC7E0
3F03E0
3E03E0
3E03E0
3E03E0
3E03E0
3E03E0
3E03E0
3E03E0
3E03E0
3E03E0
3E03E0
FF8FF8
FFDFFC
ENDCHAR
STARTCHAR 1E2E
ENCODING 7726
SWIDTH 325 0
DWIDTH 13 0
BBX 14 41 -1 0
BITMAP
0020
0078
00FC
01FC
03F0
07C0
0F00
1C00
0000
381C
783C
F87C
F87C
783C
7038
0000
3FF8
1FF8
07C0
07C0
07C0
07C0
07C0
07C0
07C0
07C0
07C0
07C0
07C0
07C0
07C0
07C0
07C0
07C0
07C0
07C0
07C0
07C0
07C0
1FF0
3FF8
ENDCHAR
STARTCHAR 1E2F
ENCODING 7727
SWIDTH 300 0
DWIDTH 12 0
BBX 14 37 -1 0
BITMAP
00F0
00F8
01F8
01F0
03E0
03C0
0780
0700
0E00
0400
3018
783C
F87C
F87C
F87C
7038
0000
0000
0000
0380
3F80
3F80
0F80
0F80
0F80
0F80
0F80
0F80
0F80
0F80
0F80
0F80
0F80
0F80
0F80
3FE0
3FF0
ENDCHAR
STARTCHAR 1E30
ENCODING 7728
SWIDTH 625 0
DWIDTH 25 0
BBX 24 34 0 0
BITMAP
000180
0003C0
0007E0
001FC0
003F00
007C00
00F000
004000
000000
FFE3FE
7FC1FE
1F00F0
1F01E0
1F03C0
1F0780
1F0F00
1F0E00
1F1C00
1F3C00
1F7800
1FF000
1FF800
1F7C00
1F3C00
1F3E00
1F1F00
1F0F80
1F07C0
1F03E0
1F03F0
1F01F8
1F00FF
7FE07F
FFE03C
ENDCHAR
STARTCHAR 1E31
ENCODING 7729
SWIDTH 550 0
DWIDTH 22 0
BBX 21 39 1 0
BITMAP
000600
000F80
001F80
003F80
007E00
00F800
01E000
018000
000000
060000
FE0000
FE0000
3E0000
3E0000
3E0000
3E0000
3E0000
3E0000
3E0000
3E0000
3E0000
3E0FF0
3E07F0
3E0780
3E0F00
3E3E00
3E7800
3EF000
3FE000
3FF000
3EF800
3E7C00
3E3E00
3E1F00
3E1F80
3E0FC0
3E07E0
FF83F8
FF81E0
ENDCHAR
STARTCHAR 1E32
ENCODING 7730
SWIDTH 625 0
DWIDTH 25 0
BBX 24 34 0 -9
BITMAP
FFE3FE
7FC1FE
1F00F0
1F01E0
1F03C0
1F0780
1F0F00
1F0E00
1F1C00
1F3C00
1F7800
1FF000
1FF800
1F7C00
1F3C00
1F3E00
1F1F00
1F0F80
1F07C0
1F03E0
1F03F0
1F01F8
1F00FF
7FE07F
FFE03C
000000
000000
000000
001C00
003E00
003E00
003E00
003C00
001800
ENDCHAR
STARTCHAR 1E33
ENCODING 7731
SWIDTH 550 0
DWIDTH 22 0
BBX 21 39 1 -9
BITMAP
060000
FE0000
FE0000
3E0000
3E0000
3E0000
3E0000
3E0000
3E0000
3E0000
3E0000
3E0000
3E0FF0
3E07F0
3E0780
3E0F00
3E3E00
3E7800
3EF000
3FE000
3FF000
3EF800
3E7C00
3E3E00
3E1F00
3E1F80
3E0FC0
3E07E0
FF83F8
FF81E0
000000
000000
000000
007000
00F800
00F800
00F800
00F000
00E000
ENDCHAR
STARTCHAR 1E34
ENCODING 7732
SWIDTH 625 0
DWIDTH 25 0
BBX 24 31 0 -6
BITMAP
FFE3FE
7FC1FE
1F00F0
1F01E0
1F03C0
1F0780
1F0F00
1F0E00
1F1C00
1F3C00
1F7800
1FF000
1FF800
1F7C00
1F3C00
1F3E00
1F1F00
1F0F80
1F07C0
1F03E0
1F03F0
1F01F8
1F00FF
7FE07F
FFE03C
000000
000000
000000
07FFF8
07FFF8
0FFFF0
ENDCHAR
STARTCHAR 1E35
ENCODING 7733
SWIDTH 550 0
DWIDTH 22 0
BBX 21 36 1 -6
BITMAP
060000
FE0000
FE0000
3E0000
3E0000
3E0000
3E0000
3E0000
3E0000
3E0000
3E0000
3E0000
3E0FF0
3E07F0
3E0780
3E0F00
3E3E00
3E7800
3EF000
3FE000
3FF000
3EF800
3E7C00
3E3E00
3E1F00
3E1F80
3E0FC0
3E07E0
FF83F8
FF81E0
000000
000000
000000
1FFFE0
1FFFE0
3FFFC0
ENDCHAR
STARTCHAR 1E36
ENCODING 7734
SWIDTH 500 0
DWIDTH 20 0
BBX 20 34 0 -9
BITMAP
FFE000
7FE000
1F0000
1F0000
1F0000
1F0000
1F0000
1F0000
1F0000
1F0000
1F0000
1F0000
1F0000
1F0000
1F0000
1F0000
1F0000
1F0000
1F0000
1F0030
1F0060
1F0060
1F80E0
7FFFE0
FFFFE0
000000
000000
000000
007000
00F000
00F000
01F000
00F000
00E000
ENDCHAR
STARTCHAR 1E37
ENCODING 7735
SWIDTH 300 0
DWIDTH 12 0
BBX 10 39 1 -9
BITMAP
0600
FE00
FE00
3E00
3E00
3E00
3E00
3E00
3E00
3E00
3E00
3E00
3E00
3E00
3E00
3E00
3E00
3E00
3E00
3E00
3E00
3E00
3E00
3E00
3E00
3E00
3E00
3E00
FF80
FFC0
0000
0000
0000
0C00
1E00
3E00
3E00
3E00
1C00
ENDCHAR
STARTCHAR 1E38
ENCODING 7736
SWIDTH 500 0
DWIDTH 20 0
BBX 20 40 0 -9
BITMAP
3FFFC0
3FFFC0
3FFF80
000000
000000
000000
FFE000
7FE000
1F0000
1F0000
1F0000
1F0000
1F0000
1F0000
1F0000
1F0000
1F0000
1F0000
1F0000
1F0000
1F0000
1F0000
1F0000
1F0000
1F0000
1F0030
1F0060
1F0060
1F80E0
7FFFE0
FFFFE0
000000
000000
000000
007000
00F000
00F000
01F000
00F000
00E000
ENDCHAR
STARTCHAR 1E39
ENCODING 7737
SWIDTH 300 0
DWIDTH 12 0
BBX 17 47 -2 -9
BITMAP
7FFF00
7FFF80
FFFF00
7FFF00
000000
000000
000000
000000
00C000
1FC000
1FC000
07C000
07C000
07C000
07C000
07C000
07C000
07C000
07C000
07C000
07C000
07C000
07C000
07C000
07C000
07C000
07C000
07C000
07C000
07C000
07C000
07C000
07C000
07C000
07C000
07C000
1FF000
1FF800
000000
000000
000000
018000
03C000
07C000
07C000
07C000
038000
ENDCHAR
STARTCHAR 1E3A
ENCODING 7738
SWIDTH 500 0
DWIDTH 20 0
BBX 20 31 0 -6
BITMAP
FFE000
7FE000
1F0000
1F0000
1F0000
1F0000
1F0000
1F0000
1F0000
1F0000
1F0000
1F0000
1F0000
1F0000
1F0000
1F0000
1F0000
1F0000
1F0000
1F0030
1F0060
1F0060
1F80E0
7FFFE0
FFFFE0
000000
000000
000000
1FFFE0
3FFFC0
3FFFC0
ENDCHAR
STARTCHAR 1E3B
ENCODING 7739
SWIDTH 300 0
DWIDTH 12 0
BBX 16 36 -2 -6
BITMAP
00C0
1FC0
1FC0
07C0
07C0
07C0
07C0
07C0
07C0
07C0
07C0
07C0
07C0
07C0
07C0
07C0
07C0
07C0
07C0
07C0
07C0
07C0
07C0
07C0
07C0
07C0
07C0
07C0
1FF0
1FF8
0000
0000
0000
7FFF
FFFF
FFFF
ENDCHAR
STARTCHAR 1E3E
ENCODING 7742
SWIDTH 850 0
DWIDTH 34 0
BBX 31 34 1 0
BITMAP
00003000
00007C00
0000FE00
0001FC00
0003F000
0007C000
000F0000
00040000
00000000
FF0001FE
7F0001FE
1F8001F0
1F8003F0
1FC003F0
1FC007F0
1FC007F0
1FE00EF0
1DE00EF0
1DF01EF0
1CF01CF0
1CF81CF0
1CF838F0
1C7C38F8
1C7C70F8
1C3C70F8
1C3EE0F8
1C1EE0F8
1C1FE0F8
1C1FC0F8
1C0FC0F8
1C0F80F8
1C0780F8
FF0707FE
FF0307FE
ENDCHAR
STARTCHAR 1E3F
ENCODING 7743
SWIDTH 850 0
DWIDTH 34 0
BBX 34 30 0 0
BITMAP
0000380000
00003E0000
00007E0000
00007C0000
0000F80000
0000F00000
0001E00000
0001C00000
0003800000
0001000000
0000000000
0000000000
060FC0F800
FF3FE3FC00
FF7FFFFE00
1FE3FC7E00
1F81F83E00
1F01F03E00
1F01F03E00
1F01F03E00
1F01F03E00
1F01F03E00
1F01F03E00
1F01F03E00
1F01F03E00
1F01F03E00
1F01F03E00
1F01F03E00
7FC7FCFF80
FFC7FCFFC0
ENDCHAR
STARTCHAR 1E40
ENCODING 7744
SWIDTH 850 0
DWIDTH 34 0
BBX 31 32 1 0
BITMAP
00038000
0007C000
0007C000
0007C000
00078000
00030000
00000000
FF0001FE
7F0001FE
1F8001F0
1F8003F0
1FC003F0
1FC007F0
1FC007F0
1FE00EF0
1DE00EF0
1DF01EF0
1CF01CF0
1CF81CF0
1CF838F0
1C7C38F8
1C7C70F8
1C3C70F8
1C3EE0F8
1C1EE0F8
1C1FE0F8
1C1FC0F8
1C0FC0F8
1C0F80F8
1C0780F8
FF0707FE
FF0307FE
ENDCHAR
STARTCHAR 1E41
ENCODING 7745
SWIDTH 850 0
DWIDTH 34 0
BBX 34 27 0 0
BITMAP
0000C00000
0001E00000
0003E00000
0003E00000
0003E00000
0001C00000
0000000000
0000000000
0000000000
060FC0F800
FF3FE3FC00
FF7FFFFE00
1FE3FC7E00
1F81F83E00
1F01F03E00
1F01F03E00
1F01F03E00
1F01F03E00
1F01F03E00
1F01F03E00
1F01F03E00
1F01F03E00
1F01F03E00
1F01F03E00
1F01F03E00
7FC7FCFF80
FFC7FCFFC0
ENDCHAR
STARTCHAR 1E42
ENCODING 7746
SWIDTH 850 0
DWIDTH 34 0
BBX 31 34 1 -9
BITMAP
FF0001FE
7F0001FE
1F8001F0
1F8003F0
1FC003F0
1FC007F0
1FC007F0
1FE00EF0
1DE00EF0
1DF01EF0
1CF01CF0
1CF81CF0
1CF838F0
1C7C38F8
1C7C70F8
1C3C70F8
1C3EE0F8
1C1EE0F8
1C1FE0F8
1C1FC0F8
1C0FC0F8
1C0F80F8
1C0780F8
FF0707FE
FF0307FE
00000000
00000000
00000000
00038000
0007C000
0007C000
0007C000
00078000
00070000
ENDCHAR
STARTCHAR 1E43
ENCODING 7747
SWIDTH 850 0
DWIDTH 34 0
BBX 34 27 0 -9
BITMAP
060FC0F800
FF3FE3FC00
FF7FFFFE00
1FE3FC7E00
1F81F83E00
1F01F03E00
1F01F03E00
1F01F03E00
1F01F03E00
1F01F03E00
1F01F03E00
1F01F03E00
1F01F03E00
1F01F03E00
1F01F03E00
1F01F03E00
7FC7FCFF80
FFC7FCFFC0
0000000000
0000000000
0000000000
0000C00000
0001E00000
0003E00000
0003E00000
0003E00000
0001C00000
ENDCHAR
STARTCHAR 1E44
ENCODING 7748
SWIDTH 675 0
DWIDTH 27 0
BBX 25 32 1 0
BITMAP
003C0000
003C0000
007C0000
007C0000
003C0000
00380000
00000000
FE00FF80
FF007F00
1F001C00
1F801C00
1FC01C00
1FC01C00
1FE01C00
1DF01C00
1DF81C00
1CF81C00
1C7C1C00
1C7E1C00
1C3E1C00
1C1F1C00
1C0F9C00
1C0F9C00
1C07DC00
1C03FC00
1C03FC00
1C01FC00
1C00FC00
1C00FC00
1C007C00
7F003C00
FF800C00
ENDCHAR
STARTCHAR 1E45
ENCODING 7749
SWIDTH 575 0
DWIDTH 23 0
BBX 22 27 1 0
BITMAP
007000
00F800
00F800
00F800
00F000
007000
000000
000000
000000
0E0F80
FE3FC0
FEFFE0
3FFFE0
3FC7E0
3F03E0
3E03E0
3E03E0
3E03E0
3E03E0
3E03E0
3E03E0
3E03E0
3E03E0
3E03E0
3E03E0
FF8FF8
FFDFFC
ENDCHAR
STARTCHAR 1E46
ENCODING 7750
SWIDTH 675 0
DWIDTH 27 0
BBX 25 34 1 -9
BITMAP
FE00FF80
FF007F00
1F001C00
1F801C00
1FC01C00
1FC01C00
1FE01C00
1DF01C00
1DF81C00
1CF81C00
1C7C1C00
1C7E1C00
1C3E1C00
1C1F1C00
1C0F9C00
1C0F9C00
1C07DC00
1C03FC00
1C03FC00
1C01FC00
1C00FC00
1C00FC00
1C007C00
7F003C00
FF800C00
00000000
00000000
00000000
001C0000
003C0000
007C0000
007C0000
007C0000
00380000
ENDCHAR
STARTCHAR 1E47
ENCODING 7751
SWIDTH 575 0
DWIDTH 23 0
BBX 22 27 1 -9
BITMAP
0E0F80
FE3FC0
FEFFE0
3FFFE0
3FC7E0
3F03E0
3E03E0
3E03E0
3E03E0
3E03E0
3E03E0
3E03E0
3E03E0
3E03E0
3E03E0
3E03E0
FF8FF8
FFDFFC
000000
000000
000000
007000
00F800
00F800
00F800
00F000
007000
ENDCHAR
STARTCHAR 1E48
ENCODING 7752
SWIDTH 675 0
DWIDTH 27 0
BBX 25 31 1 -6
BITMAP
FE00FF80
FF007F00
1F001C00
1F801C00
1FC01C00
1FC01C00
1FE01C00
1DF01C00
1DF81C00
1CF81C00
1C7C1C00
1C7E1C00
1C3E1C00
1C1F1C00
1C0F9C00
1C0F9C00
1C07DC00
1C03FC00
1C03FC00
1C01FC00
1C00FC00
1C00FC00
1C007C00
7F003C00
FF800C00
00000000
00000000
00000000
07FFF800
0FFFF000
0FFFF000
ENDCHAR
STARTCHAR 1E49
ENCODING 7753
SWIDTH 575 0
DWIDTH 23 0
BBX 22 24 1 -6
BITMAP
0E0F80
FE3FC0
FEFFE0
3FFFE0
3FC7E0
3F03E0
3E03E0
3E03E0
3E03E0
3E03E0
3E03E0
3E03E0
3E03E0
3E03E0
3E03E0
3E03E0
FF8FF8
FFDFFC
000000
000000
000000
1FFFE0
1FFFE0
1FFFC0
ENDCHAR
STARTCHAR 1E4C
ENCODING 7756
SWIDTH 625 0
DWIDTH 25 0
BBX 23 41 1 0
BITMAP
000300
0007C0
000FC0
001F80
003E00
007800
00E000
008000
01F060
03FCE0
07FFC0
07FF80
0E3F80
0C0600
080000
000000
007E00
03FFC0
0787E0
0E01F0
1E00F8
3C00F8
3C007C
7C007C
78007E
F8003E
F8003E
F8003E
F8003E
F8003E
F8003E
F8003E
FC003C
7C007C
7C0078
3E0078
3E00F0
1F01E0
0FC3C0
07FF00
00FC00
ENDCHAR
STARTCHAR 1E4D
ENCODING 7757
SWIDTH 525 0
DWIDTH 21 0
BBX 19 38 1 0
BITMAP
001000
001F00
003F00
003E00
007C00
007800
007800
00F000
00E000
01C000
000000
038080
07F1C0
0FFF80
1FFF00
18FE00
303C00
000000
000000
000000
01F800
07FE00
1E1F80
3C0F80
7C07C0
7807C0
F803E0
F803E0
F803E0
F803E0
F803E0
F803C0
7C03C0
7C0780
3E0780
3F0F00
0FFC00
03F000
ENDCHAR
STARTCHAR 1E4E
ENCODING 7758
SWIDTH 625 0
DWIDTH 25 0
BBX 23 39 1 0
BITMAP
0381C0
0783C0
07C3E0
0783C0
0783C0
030180
01F060
03FCE0
07FFC0
07FF80
0E3F80
0C0600
080000
000000
007E00
03FFC0
0787E0
0E01F0
1E00F8
3C00F8
3C007C
7C007C
78007E
F8003E
F8003E
F8003E
F8003E
F8003E
F8003E
F8003E
FC003C
7C007C
7C0078
3E0078
3E00F0
1F01E0
0FC3C0
07FF00
00FC00
ENDCHAR
STARTCHAR 1E4F
ENCODING 7759
SWIDTH 525 0
DWIDTH 21 0
BBX 19 35 1 0
BITMAP
020300
0F0780
1F0F80
1F0F80
1F0F80
0E0700
000000
000000
038080
07F1C0
0FFF80
1FFF00
18FE00
303C00
000000
000000
000000
01F800
07FE00
1E1F80
3C0F80
7C07C0
7807C0
F803E0
F803E0
F803E0
F803E0
F803E0
F803C0
7C03C0
7C0780
3E0780
3F0F00
0FFC00
03F000
ENDCHAR
STARTCHAR 1E50
ENCODING 7760
SWIDTH 625 0
DWIDTH 25 0
BBX 23 41 1 0
BITMAP
010000
038000
07C000
07E000
03F000
00F800
003C00
000E00
000400
000000
0FFFF0
0FFFF0
1FFFE0
000000
000000
000000
007E00
03FFC0
0787E0
0E01F0
1E00F8
3C00F8
3C007C
7C007C
78007E
F8003E
F8003E
F8003E
F8003E
F8003E
F8003E
F8003E
FC003C
7C007C
7C0078
3E0078
3E00F0
1F01E0
0FC3C0
07FF00
00FC00
ENDCHAR
STARTCHAR 1E51
ENCODING 7761
SWIDTH 525 0
DWIDTH 21 0
BBX 19 37 1 0
BITMAP
038000
0FC000
0FC000
07C000
03E000
01E000
00F000
007000
003800
001000
000000
1FFFC0
3FFFC0
3FFFC0
000000
000000
000000
000000
000000
01F800
07FE00
1E1F80
3C0F80
7C07C0
7807C0
F803E0
F803E0
F803E0
F803E0
F803E0
F803C0
7C03C0
7C0780
3E0780
3F0F00
0FFC00
03F000
ENDCHAR
STARTCHAR 1E52
ENCODING 7762
SWIDTH 625 0
DWIDTH 25 0
BBX 23 41 1 0
BITMAP
000200
000300
0007C0
001FC0
003F80
007E00
00F800
00E000
008000
000000
0FFFF0
0FFFF0
1FFFE0
000000
000000
000000
007E00
03FFC0
0787E0
0E01F0
1E00F8
3C00F8
3C007C
7C007C
78007E
F8003E
F8003E
F8003E
F8003E
F8003E
F8003E
F8003E
FC003C
7C007C
7C0078
3E0078
3E00F0
1F01E0
0FC3C0
07FF00
00FC00
ENDCHAR
STARTCHAR 1E53
ENCODING 7763
SWIDTH 525 0
DWIDTH 21 0
BBX 19 37 1 0
BITMAP
001C00
003F00
003F00
003E00
007C00
007800
00F000
00E000
01C000
008000
000000
1FFFC0
3FFFC0
3FFFC0
000000
000000
000000
000000
000000
01F800
07FE00
1E1F80
3C0F80
7C07C0
7807C0
F803E0
F803E0
F803E0
F803E0
F803E0
F803C0
7C03C0
7C0780
3E0780
3F0F00
0FFC00
03F000
ENDCHAR
STARTCHAR 1E54
ENCODING 7764
SWIDTH 575 0
DWIDTH 23 0
BBX 21 34 1 0
BITMAP
000C00
001F00
003F80
007F00
00FC00
01F000
03C000
010000
000000
0FFE00
FFFFC0
FF07E0
1F03F0
1F01F8
1F00F8
1F00F8
1F00F8
1F00F8
1F00F8
1F01F0
1F01F0
1F87E0
1F7F80
1F3E00
1F0000
1F0000
1F0000
1F0000
1F0000
1F0000
1F0000
1F0000
7FE000
FFE000
ENDCHAR
STARTCHAR 1E55
ENCODING 7765
SWIDTH 550 0
DWIDTH 22 0
BBX 20 39 1 -9
BITMAP
001C00
001F00
003F00
003E00
007C00
007800
00F000
00E000
01C000
008000
000000
000000
0E1F00
FE7F80
FEFFC0
3F87E0
3F03E0
3E01F0
3E00F0
3E00F0
3E00F0
3E00F0
3E00F0
3E00E0
3E00E0
3E01C0
3FC3C0
3FFF80
3EFF00
3E3C00
3E0000
3E0000
3E0000
3E0000
3E0000
3E0000
3E0000
FFC000
FFC000
ENDCHAR
STARTCHAR 1E56
ENCODING 7766
SWIDTH 575 0
DWIDTH 23 0
BBX 21 32 1 0
BITMAP
00E000
01F000
01F000
01F000
01E000
00C000
000000
0FFE00
FFFFC0
FF07E0
1F03F0
1F01F8
1F00F8
1F00F8
1F00F8
1F00F8
1F00F8
1F01F0
1F01F0
1F87E0
1F7F80
1F3E00
1F0000
1F0000
1F0000
1F0000
1F0000
1F0000
1F0000
1F0000
7FE000
FFE000
ENDCHAR
STARTCHAR 1E57
ENCODING 7767
SWIDTH 550 0
DWIDTH 22 0
BBX 20 36 1 -9
BITMAP
00E000
00F000
01F000
01F000
01F000
00E000
000000
000000
000000
0E1F00
FE7F80
FEFFC0
3F87E0
3F03E0
3E01F0
3E00F0
3E00F0
3E00F0
3E00F0
3E00F0
3E00E0
3E00E0
3E01C0
3FC3C0
3FFF80
3EFF00
3E3C00
3E0000
3E0000
3E0000
3E0000
3E0000
3E0000
3E0000
FFC000
FFC000
ENDCHAR
STARTCHAR 1E58
ENCODING 7768
SWIDTH 600 0
DWIDTH 24 0
BBX 23 32 1 0
BITMAP
00F000
01F000
01F000
01F000
01E000
00C000
000000
0FFC00
FFFF80
FF0FC0
1F07C0
1F03E0
1F03E0
1F03E0
1F03E0
1F03E0
1F07C0
1F0780
1FFF00
1FFE00
1F7C00
1F1E00
1F0F00
1F0F00
1F0780
1F07C0
1F03E0
1F03E0
1F01F0
1F01FE
7FC0FE
FFE0F8
ENDCHAR
STARTCHAR 1E59
ENCODING 7769
SWIDTH 450 0
DWIDTH 18 0
BBX 16 27 1 0
BITMAP
01C0
03E0
03E0
03E0
03C0
0180
0000
0000
0000
0E1E
FE7F
FEFF
3FFF
3FCF
1F87
1F06
1E06
1E00
1E00
1E00
1E00
1E00
1E00
1E00
3E00
FFC0
FFE0
ENDCHAR
STARTCHAR 1E5A
ENCODING 7770
SWIDTH 600 0
DWIDTH 24 0
BBX 23 34 1 -9
BITMAP
0FFC00
FFFF80
FF0FC0
1F07C0
1F03E0
1F03E0
1F03E0
1F03E0
1F03E0
1F07C0
1F0780
1FFF00
1FFE00
1F7C00
1F1E00
1F0F00
1F0F00
1F0780
1F07C0
1F03E0
1F03E0
1F01F0
1F01FE
7FC0FE
FFE0F8
000000
000000
000000
00E000
00F000
01F000
01F000
01E000
00E000
ENDCHAR
STARTCHAR 1E5B
ENCODING 7771
SWIDTH 450 0
DWIDTH 18 0
BBX 16 27 1 -9
BITMAP
0E1E
FE7F
FEFF
3FFF
3FCF
1F87
1F06
1E06
1E00
1E00
1E00
1E00
1E00
1E00
1E00
3E00
FFC0
FFE0
0000
0000
0000
1C00
3E00
3E00
3E00
3C00
1800
ENDCHAR
STARTCHAR 1E5C
ENCODING 7772
SWIDTH 600 0
DWIDTH 24 0
BBX 23 40 1 -9
BITMAP
3FFFC0
3FFFC0
3FFF80
000000
000000
000000
0FFC00
FFFF80
FF0FC0
1F07C0
1F03E0
1F03E0
1F03E0
1F03E0
1F03E0
1F07C0
1F0780
1FFF00
1FFE00
1F7C00
1F1E00
1F0F00
1F0F00
1F0780
1F07C0
1F03E0
1F03E0
1F01F0
1F01FE
7FC0FE
FFE0F8
000000
000000
000000
00E000
00F000
01F000
01F000
01E000
00E000
ENDCHAR
STARTCHAR 1E5D
ENCODING 7773
SWIDTH 450 0
DWIDTH 18 0
BBX 17 35 1 -9
BITMAP
3FFF80
7FFF80
7FFF80
000000
000000
000000
000000
000000
0E1E00
FE7F00
FEFF00
3FFF00
3FCF00
1F8700
1F0600
1E0600
1E0000
1E0000
1E0000
1E0000
1E0000
1E0000
1E0000
3E0000
FFC000
FFE000
000000
000000
000000
1C0000
3E0000
3E0000
3E0000
3C0000
180000
ENDCHAR
STARTCHAR 1E5E
ENCODING 7774
SWIDTH 600 0
DWIDTH 24 0
BBX 23 31 1 -6
BITMAP
0FFC00
FFFF80
FF0FC0
1F07C0
1F03E0
1F03E0
1F03E0
1F03E0
1F03E0
1F07C0
1F0780
1FFF00
1FFE00
1F7C00
1F1E00
1F0F00
1F0F00
1F0780
1F07C0
1F03E0
1F03E0
1F01F0
1F01FE
7FC0FE
FFE0F8
000000
000000
000000
3FFFC0
3FFFC0
3FFF80
ENDCHAR
STARTCHAR 1E5F
ENCODING 7775
SWIDTH 450 0
DWIDTH 18 0
BBX 20 24 -3 -6
BITMAP
00E1E0
0FE7F0
0FEFF0
03FFF0
03FCF0
01F870
01F060
01E060
01E000
01E000
01E000
01E000
01E000
01E000
01E000
03E000
0FFC00
0FFE00
000000
000000
000000
7FFF80
7FFF80
FFFF00
ENDCHAR
STARTCHAR 1E60
ENCODING 7776
SWIDTH 525 0
DWIDTH 21 0
BBX 17 32 2 0
BITMAP
01C000
03C000
03E000
03C000
03C000
018000
000000
03FC00
1FFF00
3C3F00
700E00
F00600
F00000
F80000
FC0000
FE0000
7F8000
3FE000
1FF800
07FE00
01FF00
007F00
001F80
000F80
000780
C00780
C00780
E00700
F00E00
FC1C00
FFF800
1FE000
ENDCHAR
STARTCHAR 1E61
ENCODING 7777
SWIDTH 425 0
DWIDTH 17 0
BBX 14 27 2 0
BITMAP
0700
0F00
0F00
1F00
0F00
0E00
0000
0000
0000
0FC0
3FF8
78F8
F070
F030
F830
FE00
7F80
3FE0
0FF8
03F8
C0FC
C07C
E03C
E03C
F878
FFF0
3FC0
ENDCHAR
STARTCHAR 1E62
ENCODING 7778
SWIDTH 525 0
DWIDTH 21 0
BBX 17 34 2 -9
BITMAP
03FC00
1FFF00
3C3F00
700E00
F00600
F00000
F80000
FC0000
FE0000
7F8000
3FE000
1FF800
07FE00
01FF00
007F00
001F80
000F80
000780
C00780
C00780
E00700
F00E00
FC1C00
FFF800
1FE000
000000
000000
000000
01C000
03C000
03E000
03C000
03C000
038000
ENDCHAR
STARTCHAR 1E63
ENCODING 7779
SWIDTH 425 0
DWIDTH 17 0
BBX 14 27 2 -9
BITMAP
0FC0
3FF8
78F8
F070
F030
F830
FE00
7F80
3FE0
0FF8
03F8
C0FC
C07C
E03C
E03C
F878
FFF0
3FC0
0000
0000
0000
0700
0F00
0F00
1F00
0F00
0E00
ENDCHAR
STARTCHAR 1E64
ENCODING 7780
SWIDTH 525 0
DWIDTH 21 0
BBX 17 39 2 0
BITMAP
018000
03C000
07C000
07C000
07C000
039800
003E00
007E00
00FC00
01F000
03C000
070000
040000
000000
03FC00
1FFF00
3C3F00
700E00
F00600
F00000
F80000
FC0000
FE0000
7F8000
3FE000
1FF800
07FE00
01FF00
007F00
001F80
000F80
000780
C00780
C00780
E00700
F00E00
FC1C00
FFF800
1FE000
ENDCHAR
STARTCHAR 1E65
ENCODING 7781
SWIDTH 425 0
DWIDTH 17 0
BBX 14 34 2 0
BITMAP
1E00
3E00
3E00
3E00
3DE0
11F0
03F8
03E0
03C0
0780
0700
0F00
0E00
0C00
0000
0000
0FC0
3FF8
78F8
F070
F030
F830
FE00
7F80
3FE0
0FF8
03F8
C0FC
C07C
E03C
E03C
F878
FFF0
3FC0
ENDCHAR
STARTCHAR 1E66
ENCODING 7782
SWIDTH 525 0
DWIDTH 21 0
BBX 17 39 2 0
BITMAP
01C000
03C000
03E000
03C000
03C000
338600
3C1C00
1E3C00
0FF800
07F000
03E000
01C000
000000
000000
03FC00
1FFF00
3C3F00
700E00
F00600
F00000
F80000
FC0000
FE0000
7F8000
3FE000
1FF800
07FE00
01FF00
007F00
001F80
000F80
000780
C00780
C00780
E00700
F00E00
FC1C00
FFF800
1FE000
ENDCHAR
STARTCHAR 1E67
ENCODING 7783
SWIDTH 425 0
DWIDTH 17 0
BBX 14 35 2 0
BITMAP
0700
0F00
0F00
1F00
0F00
8E10
E038
F070
79F0
3FE0
1FC0
1F80
0F80
0700
0000
0000
0000
0FC0
3FF8
78F8
F070
F030
F830
FE00
7F80
3FE0
0FF8
03F8
C0FC
C07C
E03C
E03C
F878
FFF0
3FC0
ENDCHAR
STARTCHAR 1E68
ENCODING 7784
SWIDTH 525 0
DWIDTH 21 0
BBX 17 41 2 -9
BITMAP
01C000
03C000
03E000
03C000
03C000
018000
000000
03FC00
1FFF00
3C3F00
700E00
F00600
F00000
F80000
FC0000
FE0000
7F8000
3FE000
1FF800
07FE00
01FF00
007F00
001F80
000F80
000780
C00780
C00780
E00700
F00E00
FC1C00
FFF800
1FE000
000000
000000
000000
01C000
03C000
03E000
03C000
03C000
038000
ENDCHAR
STARTCHAR 1E69
ENCODING 7785
SWIDTH 425 0
DWIDTH 17 0
BBX 14 36 2 -9
BITMAP
0700
0F00
0F00
1F00
0F00
0E00
0000
0000
0000
0FC0
3FF8
78F8
F070
F030
F830
FE00
7F80
3FE0
0FF8
03F8
C0FC
C07C
E03C
E03C
F878
FFF0
3FC0
0000
0000
0000
0700
0F00
0F00
1F00
0F00
0E00
ENDCHAR
STARTCHAR 1E6A
ENCODING 7786
SWIDTH 575 0
DWIDTH 23 0
BBX 23 32 0 0
BITMAP
007800
007800
00F800
00F800
00F800
006000
000000
7FFFFC
7FFFFE
607C0E
E07C0C
C07C0C
C07C0C
C07C0C
007C00
007C00
007C00
007C00
007C00
007C00
007C00
007C00
007C00
007C00
007C00
007C00
007C00
007C00
007C00
007C00
03FF80
03FF80
ENDCHAR
STARTCHAR 1E6B
ENCODING 7787
SWIDTH 375 0
DWIDTH 15 0
BBX 15 32 0 0
BITMAP
0780
0780
0F80
0F80
0780
0600
0000
0300
0700
0F00
1F00
1F00
1F00
1F00
7FFE
FFFC
1F08
1F00
1F00
1F00
1F00
1F00
1F00
1F00
1F00
1F00
1F00
1F8C
1FFE
1FF8
0FE0
0780
ENDCHAR
STARTCHAR 1E6C
ENCODING 7788
SWIDTH 575 0
DWIDTH 23 0
BBX 23 34 0 -9
BITMAP
7FFFFC
7FFFFE
607C0E
E07C0C
C07C0C
C07C0C
C07C0C
007C00
007C00
007C00
007C00
007C00
007C00
007C00
007C00
007C00
007C00
007C00
007C00
007C00
007C00
007C00
007C00
03FF80
03FF80
000000
000000
000000
003800
007800
00F800
00F800
00F800
007000
ENDCHAR
STARTCHAR 1E6D
ENCODING 7789
SWIDTH 375 0
DWIDTH 15 0
BBX 15 34 0 -9
BITMAP
0300
0700
0F00
1F00
1F00
1F00
1F00
7FFE
FFFC
1F08
1F00
1F00
1F00
1F00
1F00
1F00
1F00
1F00
1F00
1F00
1F8C
1FFE
1FF8
0FE0
0780
0000
0000
0000
0380
0780
0F80
0F80
0F80
0700
ENDCHAR
STARTCHAR 1E6E
ENCODING 7790
SWIDTH 575 0
DWIDTH 23 0
BBX 23 31 0 -6
BITMAP
7FFFFC
7FFFFE
607C0E
E07C0C
C07C0C
C07C0C
C07C0C
007C00
007C00
007C00
007C00
007C00
007C00
007C00
007C00
007C00
007C00
007C00
007C00
007C00
007C00
007C00
007C00
03FF80
03FF80
000000
000000
000000
0FFFE0
1FFFF0
1FFFE0
ENDCHAR
STARTCHAR 1E6F
ENCODING 7791
SWIDTH 375 0
DWIDTH 15 0
BBX 17 31 -1 -6
BITMAP
018000
038000
078000
0F8000
0F8000
0F8000
0F8000
3FFF00
7FFE00
0F8400
0F8000
0F8000
0F8000
0F8000
0F8000
0F8000
0F8000
0F8000
0F8000
0F8000
0FC600
0FFF00
0FFC00
07F000
03C000
000000
000000
000000
7FFF00
FFFF80
FFFF00
ENDCHAR
STARTCHAR 1E78
ENCODING 7800
SWIDTH 675 0
DWIDTH 27 0
BBX 25 41 1 0
BITMAP
00018000
0003E000
0007E000
000FC000
001F0000
003C0000
00700000
00400000
00F83000
01FE7000
03FFE000
03FFC000
071FC000
06030000
04000000
00000000
FFE0FF80
7FE0FF00
1F001C00
1F001C00
1F001C00
1F001C00
1F001C00
1F001C00
1F001C00
1F001C00
1F001C00
1F001C00
1F001C00
1F001C00
1F001C00
1F001C00
1F001C00
1F001C00
1F001800
0F803800
0F803800
07C07000
03E0E000
01FFC000
007F0000
ENDCHAR
STARTCHAR 1E79
ENCODING 7801
SWIDTH 575 0
DWIDTH 23 0
BBX 22 38 1 0
BITMAP
000800
001F00
001F80
003F00
003E00
007C00
007800
00F000
00E000
00C000
000000
03C0C0
07F1C0
0FFF80
0FFF00
187F00
101C00
000000
000000
000000
0E00E0
FE1FE0
7E07E0
3E03E0
3E03E0
3E03E0
3E03E0
3E03E0
3E03E0
3E03E0
3E03E0
3E03E0
3E03E0
3E07E0
3F1FFC
1FFBFC
1FF3F0
0FC1C0
ENDCHAR
STARTCHAR 1E7A
ENCODING 7802
SWIDTH 675 0
DWIDTH 27 0
BBX 25 39 1 0
BITMAP
01008000
03C1E000
03E1F000
03E1F000
03C1E000
03C1E000
01008000
00000000
07FFF800
07FFF800
0FFFF000
00000000
00000000
00000000
FFE0FF80
7FE0FF00
1F001C00
1F001C00
1F001C00
1F001C00
1F001C00
1F001C00
1F001C00
1F001C00
1F001C00
1F001C00
1F001C00
1F001C00
1F001C00
1F001C00
1F001C00
1F001C00
1F001800
0F803800
0F803800
07C07000
03E0E000
01FFC000
007F0000
ENDCHAR
STARTCHAR 1E7B
ENCODING 7803
SWIDTH 575 0
DWIDTH 23 0
BBX 22 34 1 0
BITMAP
070380
0F0780
1F0F80
1F0F80
1F0F80
0E0700
000000
000000
1FFFE0
3FFFC0
3FFFC0
000000
000000
000000
000000
000000
0E00E0
FE1FE0
7E07E0
3E03E0
3E03E0
3E03E0
3E03E0
3E03E0
3E03E0
3E03E0
3E03E0
3E03E0
3E03E0
3E07E0
3F1FFC
1FFBFC
1FF3F0
0FC1C0
ENDCHAR
STARTCHAR 1E7C
ENCODING 7804
SWIDTH 675 0
DWIDTH 27 0
BBX 26 33 0 0
BITMAP
00781800
00FF7000
01FFF000
01FFE000
030FC000
03018000
02000000
00000000
FFC03FC0
7FC03FC0
1F000E00
1F000E00
0F801C00
0F801C00
0F801C00
07C03800
07C03800
03E03000
03E07000
03E07000
01F0E000
01F0E000
00F0E000
00F9C000
00F9C000
007DC000
007F8000
003F8000
003F0000
003F0000
001F0000
001E0000
00080000
ENDCHAR
STARTCHAR 1E7D
ENCODING 7805
SWIDTH 500 0
DWIDTH 20 0
BBX 20 27 0 0
BITMAP
01C040
07F0C0
07FFC0
0FFF80
0C7F00
181E00
000000
000000
000000
FF83F0
7F03F0
3E01C0
1F01C0
1F0180
0F0380
0F8300
0F8700
07C700
07CE00
03EE00
03EC00
01FC00
01FC00
00F800
00F800
00F000
006000
ENDCHAR
STARTCHAR 1E7E
ENCODING 7806
SWIDTH 675 0
DWIDTH 27 0
BBX 26 34 0 -9
BITMAP
FFC03FC0
7FC03FC0
1F000E00
1F000E00
0F801C00
0F801C00
0F801C00
07C03800
07C03800
03E03000
03E07000
03E07000
01F0E000
01F0E000
00F0E000
00F9C000
00F9C000
007DC000
007F8000
003F8000
003F0000
003F0000
001F0000
001E0000
00080000
00000000
00000000
00000000
000C0000
001E0000
003E0000
003E0000
003E0000
001C0000
ENDCHAR
STARTCHAR 1E7F
ENCODING 7807
SWIDTH 500 0
DWIDTH 20 0
BBX 20 27 0 -9
BITMAP
FF83F0
7F03F0
3E01C0
1F01C0
1F0180
0F0380
0F8300
0F8700
07C700
07CE00
03EE00
03EC00
01FC00
01FC00
00F800
00F800
00F000
006000
000000
000000
000000
007000
00F000
00F000
01F000
00F000
00E000
ENDCHAR
STARTCHAR 1E80
ENCODING 7808
SWIDTH 850 0
DWIDTH 34 0
BBX 34 34 0 0
BITMAP
000E000000
001F000000
003F800000
001FC00000
0007E00000
0001F00000
0000780000
0000100000
0000000000
FFC0E07FC0
7F80E03FC0
1E00E00E00
1F01F00E00
1F01F00C00
0F01F81C00
0F03F81C00
0F83F81C00
0F83FC1C00
07873C1800
07873C3800
07863E3800
07CE1E3800
03CE1F3800
03CC0F3000
03DC0F7000
03FC0FF000
03F807F000
01F807E000
01F807E000
01F003E000
01F003E000
00F001E000
00E001C000
00C0018000
ENDCHAR
STARTCHAR 1E81
ENCODING 7809
SWIDTH 725 0
DWIDTH 29 0
BBX 28 30 0 0
BITMAP
001C0000
007C0000
007E0000
003E0000
001F0000
000F0000
00078000
00038000
0001C000
00008000
00000000
00000000
FF8303F0
7F0381F0
3E0380C0
1E07C1C0
1F07C1C0
1F0FC1C0
0F0FE380
0F9DE380
0F9DF380
0799F300
07F8FF00
07F0FF00
03F07E00
03F07E00
03E03E00
01E03C00
01C01C00
01801800
ENDCHAR
STARTCHAR 1E82
ENCODING 7810
SWIDTH 850 0
DWIDTH 34 0
BBX 34 34 0 0
BITMAP
00000C0000
00003E0000
00007F0000
0000FE0000
0001F80000
0003E00000
0007800000
0002000000
0000000000
FFC0E07FC0
7F80E03FC0
1E00E00E00
1F01F00E00
1F01F00C00
0F01F81C00
0F03F81C00
0F83F81C00
0F83FC1C00
07873C1800
07873C3800
07863E3800
07CE1E3800
03CE1F3800
03CC0F3000
03DC0F7000
03FC0FF000
03F807F000
01F807E000
01F807E000
01F003E000
01F003E000
00F001E000
00E001C000
00C0018000
ENDCHAR
STARTCHAR 1E83
ENCODING 7811
SWIDTH 725 0
DWIDTH 29 0
BBX 28 30 0 0
BITMAP
0000E000
0001F800
0001F800
0001F000
0003E000
0003C000
00078000
00070000
000E0000
00040000
00000000
00000000
FF8303F0
7F0381F0
3E0380C0
1E07C1C0
1F07C1C0
1F0FC1C0
0F0FE380
0F9DE380
0F9DF380
0799F300
07F8FF00
07F0FF00
03F07E00
03F07E00
03E03E00
01E03C00
01C01C00
01801800
ENDCHAR
STARTCHAR 1E84
ENCODING 7812
SWIDTH 850 0
DWIDTH 34 0
BBX 34 32 0 0
BITMAP
001E0F0000
001E0F0000
003E1F0000
003E1F0000
003C1E0000
00180C0000
0000000000
FFC0E07FC0
7F80E03FC0
1E00E00E00
1F01F00E00
1F01F00C00
0F01F81C00
0F03F81C00
0F83F81C00
0F83FC1C00
07873C1800
07873C3800
07863E3800
07CE1E3800
03CE1F3800
03CC0F3000
03DC0F7000
03FC0FF000
03F807F000
01F807E000
01F807E000
01F003E000
01F003E000
00F001E000
00E001C000
00C0018000
ENDCHAR
STARTCHAR 1E85
ENCODING 7813
SWIDTH 725 0
DWIDTH 29 0
BBX 28 27 0 0
BITMAP
00703800
00F87C00
00F87C00
00F87C00
00F07800
00703000
00000000
00000000
00000000
FF8303F0
7F0381F0
3E0380C0
1E07C1C0
1F07C1C0
1F0FC1C0
0F0FE380
0F9DE380
0F9DF380
0799F300
07F8FF00
07F0FF00
03F07E00
03F07E00
03E03E00
01E03C00
01C01C00
01801800
ENDCHAR
STARTCHAR 1E86
ENCODING 7814
SWIDTH 850 0
DWIDTH 34 0
BBX 34 32 0 0
BITMAP
0001E00000
0001E00000
0003E00000
0003E00000
0003C00000
0001800000
0000000000
FFC0E07FC0
7F80E03FC0
1E00E00E00
1F01F00E00
1F01F00C00
0F01F81C00
0F03F81C00
0F83F81C00
0F83FC1C00
07873C1800
07873C3800
07863E3800
07CE1E3800
03CE1F3800
03CC0F3000
03DC0F7000
03FC0FF000
03F807F000
01F807E000
01F807E000
01F003E000
01F003E000
00F001E000
00E001C000
00C0018000
ENDCHAR
STARTCHAR 1E87
ENCODING 7815
SWIDTH 725 0
DWIDTH 29 0
BBX 28 27 0 0
BITMAP
00070000
000F8000
000F8000
000F8000
000F0000
00070000
00000000
00000000
00000000
FF8303F0
7F0381F0
3E0380C0
1E07C1C0
1F07C1C0
1F0FC1C0
0F0FE380
0F9DE380
0F9DF380
0799F300
07F8FF00
07F0FF00
03F07E00
03F07E00
03E03E00
01E03C00
01C01C00
01801800
ENDCHAR
STARTCHAR 1E88
ENCODING 7816
SWIDTH 850 0
DWIDTH 34 0
BBX 34 34 0 -9
BITMAP
FFC0E07FC0
7F80E03FC0
1E00E00E00
1F01F00E00
1F01F00C00
0F01F81C00
0F03F81C00
0F83F81C00
0F83FC1C00
07873C1800
07873C3800
07863E3800
07CE1E3800
03CE1F3800
03CC0F3000
03DC0F7000
03FC0FF000
03F807F000
01F807E000
01F807E000
01F003E000
01F003E000
00F001E000
00E001C000
00C0018000
0000000000
0000000000
0000000000
0000C00000
0001E00000
0003E00000
0003E00000
0003E00000
0001C00000
ENDCHAR
STARTCHAR 1E89
ENCODING 7817
SWIDTH 725 0
DWIDTH 29 0
BBX 28 27 0 -9
BITMAP
FF8303F0
7F0381F0
3E0380C0
1E07C1C0
1F07C1C0
1F0FC1C0
0F0FE380
0F9DE380
0F9DF380
0799F300
07F8FF00
07F0FF00
03F07E00
03F07E00
03E03E00
01E03C00
01C01C00
01801800
00000000
00000000
00000000
00070000
000F0000
000F8000
000F0000
000F0000
000E0000
ENDCHAR
STARTCHAR 1E8A
ENCODING 7818
SWIDTH 625 0
DWIDTH 25 0
BBX 25 32 0 0
BITMAP
001C0000
003E0000
003E0000
003C0000
003C0000
00180000
00000000
7FE1FF00
7FE1FF00
1F807C00
0F807000
0FC0F000
07E0E000
03E1C000
01F3C000
01FB8000
00FF0000
007F0000
007E0000
003E0000
007F0000
007F8000
00EFC000
01E7C000
01C3E000
0383F000
0781F000
0700F800
0E00FC00
1E00FE00
FF83FF80
FF83FF80
ENDCHAR
STARTCHAR 1E8B
ENCODING 7819
SWIDTH 525 0
DWIDTH 21 0
BBX 21 27 0 0
BITMAP
007000
00F000
00F000
01F000
00F000
00E000
000000
000000
000000
FFC7F0
FFC7F0
3F83C0
0F8380
0FC700
07EE00
03FC00
01F800
01F800
00FC00
01FE00
03BE00
071F00
061F80
0C0FC0
1C07E0
7F1FF8
FF1FF8
ENDCHAR
STARTCHAR 1E8C
ENCODING 7820
SWIDTH 625 0
DWIDTH 25 0
BBX 25 32 0 0
BITMAP
01C0E000
03E1F000
03E1F000
03C1E000
03C1E000
0180C000
00000000
7FE1FF00
7FE1FF00
1F807C00
0F807000
0FC0F000
07E0E000
03E1C000
01F3C000
01FB8000
00FF0000
007F0000
007E0000
003E0000
007F0000
007F8000
00EFC000
01E7C000
01C3E000
0383F000
0781F000
0700F800
0E00FC00
1E00FE00
FF83FF80
FF83FF80
ENDCHAR
STARTCHAR 1E8D
ENCODING 7821
SWIDTH 525 0
DWIDTH 21 0
BBX 21 27 0 0
BITMAP
070380
0F0780
0F0780
1F0F80
0F0780
0E0700
000000
000000
000000
FFC7F0
FFC7F0
3F83C0
0F8380
0FC700
07EE00
03FC00
01F800
01F800
00FC00
01FE00
03BE00
071F00
061F80
0C0FC0
1C07E0
7F1FF8
FF1FF8
ENDCHAR
STARTCHAR 1E8E
ENCODING 7822
SWIDTH 625 0
DWIDTH 25 0
BBX 24 32 0 0
BITMAP
003C00
003C00
007C00
007C00
007C00
003000
000000
7E00FF
FF00FF
1F0038
0F8038
0FC070
07C070
03E0E0
03E0E0
01F1C0
01F1C0
00FB80
00FB80
007F00
007F00
003E00
003E00
003E00
003E00
003E00
003E00
003E00
003E00
003E00
01FFC0
01FFC0
ENDCHAR
STARTCHAR 1E8F
ENCODING 7823
SWIDTH 500 0
DWIDTH 20 0
BBX 21 36 -1 -9
BITMAP
003800
007C00
007C00
007C00
007800
007000
000000
000000
000000
7FC1F8
3F81F8
1F00E0
0F80E0
0F81C0
07C1C0
07C180
07C380
03E380
03E700
01F700
01F600
00FE00
00FE00
00FC00
007C00
007800
003800
003800
007000
007000
00E000
21E000
7FC000
7F8000
FF0000
7C0000
ENDCHAR
STARTCHAR 1E90
ENCODING 7824
SWIDTH 550 0
DWIDTH 22 0
BBX 19 34 1 0
BITMAP
00F000
00F800
01FC00
03FC00
07FE00
0F8F00
0E0380
080100
000000
3FFFE0
3FFFE0
7807C0
700FC0
600F80
601F80
203F00
003E00
007E00
007C00
00FC00
01F800
01F000
03F000
03E000
07E000
0FC000
0F8000
1F8020
1F0060
3F0060
7E0060
7C00E0
FFFFE0
FFFFE0
ENDCHAR
STARTCHAR 1E91
ENCODING 7825
SWIDTH 475 0
DWIDTH 19 0
BBX 16 29 1 0
BITMAP
01E0
01E0
03F0
07F8
0FF8
0F3C
1E1E
3806
1003
0000
0000
3FFF
3FFF
703E
707E
607C
60F8
01F8
01F0
03E0
07E0
07C0
0F80
1F81
1F03
3E03
7C03
7FFF
FFFF
ENDCHAR
STARTCHAR 1E92
ENCODING 7826
SWIDTH 550 0
DWIDTH 22 0
BBX 19 34 1 -9
BITMAP
3FFFE0
3FFFE0
7807C0
700FC0
600F80
601F80
203F00
003E00
007E00
007C00
00FC00
01F800
01F000
03F000
03E000
07E000
0FC000
0F8000
1F8020
1F0060
3F0060
7E0060
7C00E0
FFFFE0
FFFFE0
000000
000000
000000
00E000
01F000
01F000
01F000
01E000
00E000
ENDCHAR
STARTCHAR 1E93
ENCODING 7827
SWIDTH 475 0
DWIDTH 19 0
BBX 16 27 1 -9
BITMAP
3FFF
3FFF
703E
707E
607C
60F8
01F8
01F0
03E0
07E0
07C0
0F80
1F81
1F03
3E03
7C03
7FFF
FFFF
0000
0000
0000
01C0
03C0
03C0
07C0
07C0
0380
ENDCHAR
STARTCHAR 1E94
ENCODING 7828
SWIDTH 550 0
DWIDTH 22 0
BBX 19 31 1 -6
BITMAP
3FFFE0
3FFFE0
7807C0
700FC0
600F80
601F80
203F00
003E00
007E00
007C00
00FC00
01F800
01F000
03F000
03E000
07E000
0FC000
0F8000
1F8020
1F0060
3F0060
7E0060
7C00E0
FFFFE0
FFFFE0
000000
000000
000000
3FFFC0
3FFFC0
3FFF80
ENDCHAR
STARTCHAR 1E95
ENCODING 7829
SWIDTH 475 0
DWIDTH 19 0
BBX 17 24 1 -6
BITMAP
3FFF00
3FFF00
703E00
707E00
607C00
60F800
01F800
01F000
03E000
07E000
07C000
0F8000
1F8100
1F0300
3E0300
7C0300
7FFF00
FFFF00
000000
000000
000000
7FFF80
FFFF00
FFFF00
ENDCHAR
STARTCHAR 1E96
ENCODING 7830
SWIDTH 575 0
DWIDTH 23 0
BBX 22 36 1 -6
BITMAP
060000
FE0000
FE0000
3E0000
3E0000
3E0000
3E0000
3E0000
3E0000
3E0000
3E0000
3E0000
3E0F80
3E3FC0
3E7FE0
3EFFE0
3FC7E0
3F03E0
3E03E0
3E03E0
3E03E0
3E03E0
3E03E0
3E03E0
3E03E0
3E03E0
3E03E0
3E03E0
FF8FF8
FFDFFC
000000
000000
000000
1FFFE0
1FFFE0
1FFFC0
ENDCHAR
STARTCHAR 1E97
ENCODING 7831
SWIDTH 375 0
DWIDTH 15 0
BBX 15 32 0 0
BITMAP
783C
783C
F87C
F87C
783C
6030
0000
0300
0700
0F00
1F00
1F00
1F00
1F00
7FFE
FFFC
1F08
1F00
1F00
1F00
1F00
1F00
1F00
1F00
1F00
1F00
1F00
1F8C
1FFE
1FF8
0FE0
0780
ENDCHAR
STARTCHAR 1E98
ENCODING 7832
SWIDTH 725 0
DWIDTH 29 0
BBX 28 28 0 0
BITMAP
00038000
000FC000
001CE000
001CE000
001CE000
001CC000
001FC000
000F0000
00000000
00000000
FF8303F0
7F0381F0
3E0380C0
1E07C1C0
1F07C1C0
1F0FC1C0
0F0FE380
0F9DE380
0F9DF380
0799F300
07F8FF00
07F0FF00
03F07E00
03F07E00
03E03E00
01E03C00
01C01C00
01801800
ENDCHAR
STARTCHAR 1E99
ENCODING 7833
SWIDTH 500 0
DWIDTH 20 0
BBX 21 37 -1 -9
BITMAP
003C00
007E00
00EF00
00E700
00E700
00EE00
00FC00
007800
000000
000000
7FC1F8
3F81F8
1F00E0
0F80E0
0F81C0
07C1C0
07C180
07C380
03E380
03E700
01F700
01F600
00FE00
00FE00
00FC00
007C00
007800
003800
003800
007000
007000
00E000
21E000
7FC000
7F8000
FF0000
7C0000
ENDCHAR
STARTCHAR 1EA0
ENCODING 7840
SWIDTH 625 0
DWIDTH 25 0
BBX 25 34 0 -9
BITMAP
00040000
001E0000
003E0000
007E0000
007F0000
006F0000
00EF8000
00EF8000
00C78000
01C7C000
01C7C000
0183C000
0383E000
0383E000
03FFE000
07FFF000
0700F000
0600F800
0E00F800
0E007800
0C007C00
1C007C00
1C007C00
FF81FF00
FF81FF80
00000000
00000000
00000000
001C0000
003C0000
003C0000
007C0000
003C0000
00380000
ENDCHAR
STARTCHAR 1EA1
ENCODING 7841
SWIDTH 500 0
DWIDTH 20 0
BBX 19 27 1 -9
BITMAP
01F800
0FFE00
3E3F00
7C1F00
7C1F00
701F00
001F00
01FF00
0FFF00
3F1F00
7C1F00
781F00
F81F00
F81F20
F87FE0
FFDFC0
7F9F80
3E0E00
000000
000000
000000
01C000
03E000
03E000
03E000
03C000
038000
ENDCHAR
STARTCHAR 1EA2
ENCODING 7842
SWIDTH 625 0
DWIDTH 25 0
BBX 25 34 0 0
BITMAP
003F0000
00770000
00770000
000E0000
001C0000
003C0000
000C0000
00000000
00000000
00040000
001E0000
003E0000
007E0000
007F0000
006F0000
00EF8000
00EF8000
00C78000
01C7C000
01C7C000
0183C000
0383E000
0383E000
03FFE000
07FFF000
0700F000
0600F800
0E00F800
0E007800
0C007C00
1C007C00
1C007C00
FF81FF00
FF81FF80
ENDCHAR
STARTCHAR 1EA3
ENCODING 7843
SWIDTH 500 0
DWIDTH 20 0
BBX 19 28 1 0
BITMAP
00F000
03B800
07B800
007000
00E000
01C000
00E000
000000
000000
000000
01F800
0FFE00
3E3F00
7C1F00
7C1F00
701F00
001F00
01FF00
0FFF00
3F1F00
7C1F00
781F00
F81F00
F81F20
F87FE0
FFDFC0
7F9F80
3E0E00
ENDCHAR
STARTCHAR 1EA4
ENCODING 7844
SWIDTH 625 0
DWIDTH 25 0
BBX 25 42 0 0
BITMAP
00018000
0003C000
0007E000
000FE000
001F8000
003E0000
00780000
00E00000
001C0000
003E0000
007F0000
00FF8000
01FF8000
01E3C000
0380E000
02004000
00000000
00040000
001E0000
003E0000
007E0000
007F0000
006F0000
00EF8000
00EF8000
00C78000
01C7C000
01C7C000
0183C000
0383E000
0383E000
03FFE000
07FFF000
0700F000
0600F800
0E00F800
0E007800
0C007C00
1C007C00
1C007C00
FF81FF00
FF81FF80
ENDCHAR
STARTCHAR 1EA5
ENCODING 7845
SWIDTH 500 0
DWIDTH 20 0
BBX 19 39 1 0
BITMAP
003C00
003E00
007E00
007C00
00F800
00F000
01E000
01C000
038000
010000
01E000
01E000
03F000
07F800
07FC00
0F3C00
1E1E00
380700
100200
000000
000000
01F800
0FFE00
3E3F00
7C1F00
7C1F00
701F00
001F00
01FF00
0FFF00
3F1F00
7C1F00
781F00
F81F00
F81F20
F87FE0
FFDFC0
7F9F80
3E0E00
ENDCHAR
STARTCHAR 1EA6
ENCODING 7846
SWIDTH 625 0
DWIDTH 25 0
BBX 25 42 0 0
BITMAP
00C00000
01E00000
03F00000
03F80000
00FC0000
003E0000
000F0000
00030000
001C0000
003E0000
007F0000
00FF8000
01FF8000
01E3C000
0380E000
02004000
00000000
00040000
001E0000
003E0000
007E0000
007F0000
006F0000
00EF8000
00EF8000
00C78000
01C7C000
01C7C000
0183C000
0383E000
0383E000
03FFE000
07FFF000
0700F000
0600F800
0E00F800
0E007800
0C007C00
1C007C00
1C007C00
FF81FF00
FF81FF80
ENDCHAR
STARTCHAR 1EA7
ENCODING 7847
SWIDTH 500 0
DWIDTH 20 0
BBX 19 39 1 0
BITMAP
0F0000
1F8000
0F8000
07C000
03C000
01E000
01E000
00F000
007000
002000
01E000
01E000
03F000
07F800
07FC00
0F3C00
1E1E00
380700
100200
000000
000000
01F800
0FFE00
3E3F00
7C1F00
7C1F00
701F00
001F00
01FF00
0FFF00
3F1F00
7C1F00
781F00
F81F00
F81F20
F87FE0
FFDFC0
7F9F80
3E0E00
ENDCHAR
STARTCHAR 1EA8
ENCODING 7848
SWIDTH 625 0
DWIDTH 25 0
BBX 25 42 0 0
BITMAP
001E0000
00770000
00770000
00070000
001C0000
00380000
001C0000
00000000
001C0000
003E0000
007F0000
00FF8000
01FF8000
01E3C000
0380E000
02004000
00000000
00040000
001E0000
003E0000
007E0000
007F0000
006F0000
00EF8000
00EF8000
00C78000
01C7C000
01C7C000
0183C000
0383E000
0383E000
03FFE000
07FFF000
0700F000
0600F800
0E00F800
0E007800
0C007C00
1C007C00
1C007C00
FF81FF00
FF81FF80
ENDCHAR
STARTCHAR 1EA9
ENCODING 7849
SWIDTH 500 0
DWIDTH 20 0
BBX 19 37 1 0
BITMAP
01F000
03B800
07B800
007000
00E000
01C000
006000
000000
01E000
01E000
03F000
07F800
07FC00
0F3C00
1E1E00
380700
100200
000000
000000
01F800
0FFE00
3E3F00
7C1F00
7C1F00
701F00
001F00
01FF00
0FFF00
3F1F00
7C1F00
781F00
F81F00
F81F20
F87FE0
FFDFC0
7F9F80
3E0E00
ENDCHAR
STARTCHAR 1EAA
ENCODING 7850
SWIDTH 625 0
DWIDTH 25 0
BBX 25 41 0 0
BITMAP
00F03000
01FC7000
03FFE000
03FFC000
071FC000
06070000
04000000
001C0000
003E0000
007F0000
00FF8000
01FF8000
01E3C000
0380E000
02004000
00000000
00040000
001E0000
003E0000
007E0000
007F0000
006F0000
00EF8000
00EF8000
00C78000
01C7C000
01C7C000
0183C000
0383E000
0383E000
03FFE000
07FFF000
0700F000
0600F800
0E00F800
0E007800
0C007C00
1C007C00
1C007C00
FF81FF00
FF81FF80
ENDCHAR
STARTCHAR 1EAB
ENCODING 7851
SWIDTH 500 0
DWIDTH 20 0
BBX 19 36 1 0
BITMAP
078180
0FE700
1FFF00
3FFE00
30FC00
603800
000000
01E000
01E000
03F000
07F800
07FC00
0F3C00
1E1E00
380700
100200
000000
000000
01F800
0FFE00
3E3F00
7C1F00
7C1F00
701F00
001F00
01FF00
0FFF00
3F1F00
7C1F00
781F00
F81F00
F81F20
F87FE0
FFDFC0
7F9F80
3E0E00
ENDCHAR
STARTCHAR 1EAC
ENCODING 7852
SWIDTH 625 0
DWIDTH 25 0
BBX 25 43 0 -9
BITMAP
001C0000
003E0000
007F0000
00FF8000
01FF8000
01E3C000
0380E000
02004000
00000000
00040000
001E0000
003E0000
007E0000
007F0000
006F0000
00EF8000
00EF8000
00C78000
01C7C000
01C7C000
0183C000
0383E000
0383E000
03FFE000
07FFF000
0700F000
0600F800
0E00F800
0E007800
0C007C00
1C007C00
1C007C00
FF81FF00
FF81FF80
00000000
00000000
00000000
001C0000
003C0000
003C0000
007C0000
003C0000
00380000
ENDCHAR
STARTCHAR 1EAD
ENCODING 7853
SWIDTH 500 0
DWIDTH 20 0
BBX 19 38 1 -9
BITMAP
01E000
01E000
03F000
07F800
07FC00
0F3C00
1E1E00
380700
100200
000000
000000
01F800
0FFE00
3E3F00
7C1F00
7C1F00
701F00
001F00
01FF00
0FFF00
3F1F00
7C1F00
781F00
F81F00
F81F20
F87FE0
FFDFC0
7F9F80
3E0E00
000000
000000
000000
01C000
03E000
03E000
03E000
03C000
038000
ENDCHAR
STARTCHAR 1EAE
ENCODING 7854
SWIDTH 625 0
DWIDTH 25 0
BBX 25 41 0 0
BITMAP
00010000
0003C000
0007E000
000FE000
001F8000
003E0000
00780000
02E06000
0780E000
03E3E000
01FFC000
01FF8000
007F0000
001C0000
00000000
00000000
00040000
001E0000
003E0000
007E0000
007F0000
006F0000
00EF8000
00EF8000
00C78000
01C7C000
01C7C000
0183C000
0383E000
0383E000
03FFE000
07FFF000
0700F000
0600F800
0E00F800
0E007800
0C007C00
1C007C00
1C007C00
FF81FF00
FF81FF80
ENDCHAR
STARTCHAR 1EAF
ENCODING 7855
SWIDTH 500 0
DWIDTH 20 0
BBX 19 37 1 0
BITMAP
003000
003E00
007E00
007C00
00F800
00F000
01E000
01C000
01C000
138200
380700
1E1E00
1FFE00
0FFC00
07F800
01E000
000000
000000
000000
01F800
0FFE00
3E3F00
7C1F00
7C1F00
701F00
001F00
01FF00
0FFF00
3F1F00
7C1F00
781F00
F81F00
F81F20
F87FE0
FFDFC0
7F9F80
3E0E00
ENDCHAR
STARTCHAR 1EB0
ENCODING 7856
SWIDTH 625 0
DWIDTH 25 0
BBX 25 41 0 0
BITMAP
00800000
01C00000
03F00000
03F80000
00FC0000
003E0000
000F0000
02036000
0780E000
03E3E000
01FFC000
01FF8000
007F0000
001C0000
00000000
00000000
00040000
001E0000
003E0000
007E0000
007F0000
006F0000
00EF8000
00EF8000
00C78000
01C7C000
01C7C000
0183C000
0383E000
0383E000
03FFE000
07FFF000
0700F000
0600F800
0E00F800
0E007800
0C007C00
1C007C00
1C007C00
FF81FF00
FF81FF80
ENDCHAR
STARTCHAR 1EB1
ENCODING 7857
SWIDTH 500 0
DWIDTH 20 0
BBX 19 37 1 0
BITMAP
010000
1F8000
1F8000
0F8000
07C000
03C000
01E000
00E000
007000
103200
380700
1E1E00
1FFE00
0FFC00
07F800
01E000
000000
000000
000000
01F800
0FFE00
3E3F00
7C1F00
7C1F00
701F00
001F00
01FF00
0FFF00
3F1F00
7C1F00
781F00
F81F00
F81F20
F87FE0
FFDFC0
7F9F80
3E0E00
ENDCHAR
STARTCHAR 1EB2
ENCODING 7858
SWIDTH 625 0
DWIDTH 25 0
BBX 25 41 0 0
BITMAP
001E0000
00770000
00770000
00070000
001C0000
00380000
001C0000
02006000
0780E000
03E3E000
01FFC000
01FF8000
007F0000
001C0000
00000000
00000000
00040000
001E0000
003E0000
007E0000
007F0000
006F0000
00EF8000
00EF8000
00C78000
01C7C000
01C7C000
0183C000
0383E000
0383E000
03FFE000
07FFF000
0700F000
0600F800
0E00F800
0E007800
0C007C00
1C007C00
1C007C00
FF81FF00
FF81FF80
ENDCHAR
STARTCHAR 1EB3
ENCODING 7859
SWIDTH 500 0
DWIDTH 20 0
BBX 19 35 1 0
BITMAP
006000
03F800
033800
06B800
00E000
01C000
00E000
100200
380700
1E1E00
1FFE00
0FFC00
07F800
01E000
000000
000000
000000
01F800
0FFE00
3E3F00
7C1F00
7C1F00
701F00
001F00
01FF00
0FFF00
3F1F00
7C1F00
781F00
F81F00
F81F20
F87FE0
FFDFC0
7F9F80
3E0E00
ENDCHAR
STARTCHAR 1EB4
ENCODING 7860
SWIDTH 625 0
DWIDTH 25 0
BBX 25 41 0 0
BITMAP
00003000
00F03000
01FE6000
03FFE000
03FFC000
061F8000
06034000
07006000
0380E000
03E3C000
01FFC000
00FF8000
007F0000
001C0000
00000000
00000000
00040000
001E0000
003E0000
007E0000
007F0000
006F0000
00EF8000
00EF8000
00C78000
01C7C000
01C7C000
0183C000
0383E000
0383E000
03FFE000
07FFF000
0700F000
0600F800
0E00F800
0E007800
0C007C00
1C007C00
1C007C00
FF81FF00
FF81FF80
ENDCHAR
STARTCHAR 1EB5
ENCODING 7861
SWIDTH 500 0
DWIDTH 20 0
BBX 19 34 1 0
BITMAP
070100
0FC380
1FFF00
3FFE00
39FE00
607C00
100200
380700
1E1E00
1FFE00
0FFC00
07F800
01E000
000000
000000
000000
01F800
0FFE00
3E3F00
7C1F00
7C1F00
701F00
001F00
01FF00
0FFF00
3F1F00
7C1F00
781F00
F81F00
F81F20
F87FE0
FFDFC0
7F9F80
3E0E00
ENDCHAR
STARTCHAR 1EB6
ENCODING 7862
SWIDTH 625 0
DWIDTH 25 0
BBX 25 43 0 -9
BITMAP
02006000
0780E000
03E3E000
01FFC000
01FF8000
007F0000
001C0000
00000000
00000000
00040000
001E0000
003E0000
007E0000
007F0000
006F0000
00EF8000
00EF8000
00C78000
01C7C000
01C7C000
0183C000
0383E000
0383E000
03FFE000
07FFF000
0700F000
0600F800
0E00F800
0E007800
0C007C00
1C007C00
1C007C00
FF81FF00
FF81FF80
00000000
00000000
00000000
001C0000
003C0000
003C0000
007C0000
003C0000
00380000
ENDCHAR
STARTCHAR 1EB7
ENCODING 7863
SWIDTH 500 0
DWIDTH 20 0
BBX 19 37 1 -9
BITMAP
100200
380700
1E1E00
1FFE00
0FFC00
07F800
01E000
000000
000000
000000
01F800
0FFE00
3E3F00
7C1F00
7C1F00
701F00
001F00
01FF00
0FFF00
3F1F00
7C1F00
781F00
F81F00
F81F20
F87FE0
FFDFC0
7F9F80
3E0E00
000000
000000
000000
01C000
03E000
03E000
03E000
03C000
038000
ENDCHAR
STARTCHAR 1EB8
ENCODING 7864
SWIDTH 525 0
DWIDTH 21 0
BBX 19 34 1 -9
BITMAP
FFFFC0
FFFFC0
3E01C0
1E01C0
1E0180
1E0180
1E0080
1E0000
1E0000
1E0000
1E0000
1FFF00
1FFE00
1E0600
1E0000
1E0000
1E0000
1E0000
1E0000
1E0060
1E0060
1E00E0
3F01E0
FFFFE0
FFFFC0
000000
000000
000000
00E000
01E000
01F000
01E000
01E000
01C000
ENDCHAR
STARTCHAR 1EB9
ENCODING 7865
SWIDTH 475 0
DWIDTH 19 0
BBX 17 27 1 -9
BITMAP
01F000
0FFC00
1E3E00
3C1F00
780F00
780F80
F80F80
FFFF80
FFFE00
F80000
F80000
F80000
FC0000
7E0180
7F0700
3FFE00
1FFC00
07F000
000000
000000
000000
00E000
01E000
03E000
03E000
03E000
01C000
ENDCHAR
STARTCHAR 1EBA
ENCODING 7866
SWIDTH 525 0
DWIDTH 21 0
BBX 19 34 1 0
BITMAP
01F800
03BC00
03B800
007000
00E000
01E000
006000
000000
000000
FFFFC0
FFFFC0
3E01C0
1E01C0
1E0180
1E0180
1E0080
1E0000
1E0000
1E0000
1E0000
1FFF00
1FFE00
1E0600
1E0000
1E0000
1E0000
1E0000
1E0000
1E0060
1E0060
1E00E0
3F01E0
FFFFE0
FFFFC0
ENDCHAR
STARTCHAR 1EBB
ENCODING 7867
SWIDTH 475 0
DWIDTH 19 0
BBX 17 28 1 0
BITMAP
00F000
03B800
039C00
003800
00E000
01E000
00E000
000000
000000
000000
01F000
0FFC00
1E3E00
3C1F00
780F00
780F80
F80F80
FFFF80
FFFE00
F80000
F80000
F80000
FC0000
7E0180
7F0700
3FFE00
1FFC00
07F000
ENDCHAR
STARTCHAR 1EBC
ENCODING 7868
SWIDTH 525 0
DWIDTH 21 0
BBX 19 33 1 0
BITMAP
07C180
0FF380
1FFF00
1FFE00
38FE00
301800
200000
000000
FFFFC0
FFFFC0
3E01C0
1E01C0
1E0180
1E0180
1E0080
1E0000
1E0000
1E0000
1E0000
1FFF00
1FFE00
1E0600
1E0000
1E0000
1E0000
1E0000
1E0000
1E0060
1E0060
1E00E0
3F01E0
FFFFE0
FFFFC0
ENDCHAR
STARTCHAR 1EBD
ENCODING 7869
SWIDTH 475 0
DWIDTH 19 0
BBX 17 27 1 0
BITMAP
078180
0FE380
1FFF00
1FFF00
38FE00
303C00
000000
000000
000000
01F000
0FFC00
1E3E00
3C1F00
780F00
780F80
F80F80
FFFF80
FFFE00
F80000
F80000
F80000
FC0000
7E0180
7F0700
3FFE00
1FFC00
07F000
ENDCHAR
STARTCHAR 1EBE
ENCODING 7870
SWIDTH 525 0
DWIDTH 21 0
BBX 19 42 1 0
BITMAP
000C00
001E00
003F00
007F00
00FC00
01F000
03C000
030000
00E000
01F000
03F800
07FC00
0FFC00
0F1E00
1C0700
100200
000000
FFFFC0
FFFFC0
3E01C0
1E01C0
1E0180
1E0180
1E0080
1E0000
1E0000
1E0000
1E0000
1FFF00
1FFE00
1E0600
1E0000
1E0000
1E0000
1E0000
1E0000
1E0060
1E0060
1E00E0
3F01E0
FFFFE0
FFFFC0
ENDCHAR
STARTCHAR 1EBF
ENCODING 7871
SWIDTH 475 0
DWIDTH 19 0
BBX 17 39 1 0
BITMAP
003E00
003F00
007E00
007C00
007800
00F000
00E000
01C000
018000
008000
00E000
01F000
03F800
03F800
07FC00
0F1E00
0E0E00
1C0700
180300
000000
000000
01F000
0FFC00
1E3E00
3C1F00
780F00
780F80
F80F80
FFFF80
FFFE00
F80000
F80000
F80000
FC0000
7E0180
7F0700
3FFE00
1FFC00
07F000
ENDCHAR
STARTCHAR 1EC0
ENCODING 7872
SWIDTH 525 0
DWIDTH 21 0
BBX 19 42 1 0
BITMAP
060000
0F0000
1F8000
1FC000
07E000
01F000
007800
001800
00E000
01F000
03F800
07FC00
0FFC00
0F1E00
1C0700
100200
000000
FFFFC0
FFFFC0
3E01C0
1E01C0
1E0180
1E0180
1E0080
1E0000
1E0000
1E0000
1E0000
1FFF00
1FFE00
1E0600
1E0000
1E0000
1E0000
1E0000
1E0000
1E0060
1E0060
1E00E0
3F01E0
FFFFE0
FFFFC0
ENDCHAR
STARTCHAR 1EC1
ENCODING 7873
SWIDTH 475 0
DWIDTH 19 0
BBX 17 39 1 0
BITMAP
0F8000
0F8000
1FC000
07C000
03E000
01E000
00F000
007000
003000
001800
00E000
01F000
03F800
03F800
07FC00
0F1E00
0E0E00
1C0700
180300
000000
000000
01F000
0FFC00
1E3E00
3C1F00
780F00
780F80
F80F80
FFFF80
FFFE00
F80000
F80000
F80000
FC0000
7E0180
7F0700
3FFE00
1FFC00
07F000
ENDCHAR
STARTCHAR 1EC2
ENCODING 7874
SWIDTH 525 0
DWIDTH 21 0
BBX 19 42 1 0
BITMAP
00F800
03B800
039C00
003800
00E000
01E000
006000
000000
00E000
01F000
03F800
07FC00
0FFC00
0F1E00
1C0700
100200
000000
FFFFC0
FFFFC0
3E01C0
1E01C0
1E0180
1E0180
1E0080
1E0000
1E0000
1E0000
1E0000
1FFF00
1FFE00
1E0600
1E0000
1E0000
1E0000
1E0000
1E0000
1E0060
1E0060
1E00E0
3F01E0
FFFFE0
FFFFC0
ENDCHAR
STARTCHAR 1EC3
ENCODING 7875
SWIDTH 475 0
DWIDTH 19 0
BBX 17 37 1 0
BITMAP
01F800
03B800
03BC00
007000
00E000
01E000
006000
000000
00E000
01F000
03F800
03F800
07FC00
0F1E00
0E0E00
1C0700
180300
000000
000000
01F000
0FFC00
1E3E00
3C1F00
780F00
780F80
F80F80
FFFF80
FFFE00
F80000
F80000
F80000
FC0000
7E0180
7F0700
3FFE00
1FFC00
07F000
ENDCHAR
STARTCHAR 1EC4
ENCODING 7876
SWIDTH 525 0
DWIDTH 21 0
BBX 19 41 1 0
BITMAP
078180
0FE380
0FFF00
1FFF00
18FE00
303C00
200000
00E000
01F000
03F800
07FC00
0FFC00
0F1E00
1C0700
100200
000000
FFFFC0
FFFFC0
3E01C0
1E01C0
1E0180
1E0180
1E0080
1E0000
1E0000
1E0000
1E0000
1FFF00
1FFE00
1E0600
1E0000
1E0000
1E0000
1E0000
1E0000
1E0060
1E0060
1E00E0
3F01E0
FFFFE0
FFFFC0
ENDCHAR
STARTCHAR 1EC5
ENCODING 7877
SWIDTH 475 0
DWIDTH 19 0
BBX 17 36 1 0
BITMAP
07C180
0FF380
1FFF00
1FFE00
30FE00
201800
000000
00E000
01F000
03F800
03F800
07FC00
0F1E00
0E0E00
1C0700
180300
000000
000000
01F000
0FFC00
1E3E00
3C1F00
780F00
780F80
F80F80
FFFF80
FFFE00
F80000
F80000
F80000
FC0000
7E0180
7F0700
3FFE00
1FFC00
07F000
ENDCHAR
STARTCHAR 1EC6
ENCODING 7878
SWIDTH 525 0
DWIDTH 21 0
BBX 19 43 1 -9
BITMAP
00E000
01F000
03F800
07FC00
0FFC00
0F1E00
1C0700
100200
000000
FFFFC0
FFFFC0
3E01C0
1E01C0
1E0180
1E0180
1E0080
1E0000
1E0000
1E0000
1E0000
1FFF00
1FFE00
1E0600
1E0000
1E0000
1E0000
1E0000
1E0000
1E0060
1E0060
1E00E0
3F01E0
FFFFE0
FFFFC0
000000
000000
000000
00E000
01E000
01F000
01E000
01E000
01C000
ENDCHAR
STARTCHAR 1EC7
ENCODING 7879
SWIDTH 475 0
DWIDTH 19 0
BBX 17 38 1 -9
BITMAP
00E000
01F000
03F800
03F800
07FC00
0F1E00
0E0E00
1C0700
180300
000000
000000
01F000
0FFC00
1E3E00
3C1F00
780F00
780F80
F80F80
FFFF80
FFFE00
F80000
F80000
F80000
FC0000
7E0180
7F0700
3FFE00
1FFC00
07F000
000000
000000
000000
00E000
01E000
03E000
03E000
03E000
01C000
ENDCHAR
STARTCHAR 1EC8
ENCODING 7880
SWIDTH 325 0
DWIDTH 13 0
BBX 11 34 1 0
BITMAP
1F80
3B80
3B80
0700
0E00
1E00
0600
0000
0000
FFE0
7FE0
1F00
1F00
1F00
1F00
1F00
1F00
1F00
1F00
1F00
1F00
1F00
1F00
1F00
1F00
1F00
1F00
1F00
1F00
1F00
1F00
1F00
7FC0
FFE0
ENDCHAR
STARTCHAR 1EC9
ENCODING 7881
SWIDTH 300 0
DWIDTH 12 0
BBX 10 28 1 0
BITMAP
0F00
3B80
7B80
0700
0E00
1C00
0E00
0000
0000
0000
0E00
FE00
FE00
3E00
3E00
3E00
3E00
3E00
3E00
3E00
3E00
3E00
3E00
3E00
3E00
3E00
FF80
FFC0
ENDCHAR
STARTCHAR 1ECA
ENCODING 7882
SWIDTH 325 0
DWIDTH 13 0
BBX 11 34 1 -9
BITMAP
FFE0
7FE0
1F00
1F00
1F00
1F00
1F00
1F00
1F00
1F00
1F00
1F00
1F00
1F00
1F00
1F00
1F00
1F00
1F00
1F00
1F00
1F00
1F00
7FC0
FFE0
0000
0000
0000
0E00
1E00
1E00
3E00
1E00
1C00
ENDCHAR
STARTCHAR 1ECB
ENCODING 7883
SWIDTH 300 0
DWIDTH 12 0
BBX 10 36 1 -9
BITMAP
1E00
3F00
3F00
3F00
1E00
0000
0000
0000
0000
0E00
FE00
FE00
3E00
3E00
3E00
3E00
3E00
3E00
3E00
3E00
3E00
3E00
3E00
3E00
3E00
FF80
FFC0
0000
0000
0000
0C00
1E00
3E00
3E00
3E00
1C00
ENDCHAR
STARTCHAR 1ECC
ENCODING 7884
SWIDTH 625 0
DWIDTH 25 0
BBX 23 34 1 -9
BITMAP
007E00
03FFC0
0787E0
0E01F0
1E00F8
3C00F8
3C007C
7C007C
78007E
F8003E
F8003E
F8003E
F8003E
F8003E
F8003E
F8003E
FC003C
7C007C
7C0078
3E0078
3E00F0
1F01E0
0FC3C0
07FF00
00FC00
000000
000000
000000
003800
007800
007C00
007800
007800
007000
ENDCHAR
STARTCHAR 1ECD
ENCODING 7885
SWIDTH 525 0
DWIDTH 21 0
BBX 19 27 1 -9
BITMAP
01F800
07FE00
1E1F80
3C0F80
7C07C0
7807C0
F803E0
F803E0
F803E0
F803E0
F803E0
F803C0
7C03C0
7C0780
3E0780
3F0F00
0FFC00
03F000
000000
000000
000000
00E000
00F000
01F000
01F000
01E000
00E000
ENDCHAR
STARTCHAR 1ECE
ENCODING 7886
SWIDTH 625 0
DWIDTH 25 0
BBX 23 34 1 0
BITMAP
007E00
00EF00
00EE00
001C00
003800
007800
001800
000000
000000
007E00
03FFC0
0787E0
0E01F0
1E00F8
3C00F8
3C007C
7C007C
78007E
F8003E
F8003E
F8003E
F8003E
F8003E
F8003E
F8003E
FC003C
7C007C
7C0078
3E0078
3E00F0
1F01E0
0FC3C0
07FF00
00FC00
ENDCHAR
STARTCHAR 1ECF
ENCODING 7887
SWIDTH 525 0
DWIDTH 21 0
BBX 19 28 1 0
BITMAP
00F800
01FC00
039C00
003800
007000
00E000
007000
000000
000000
000000
01F800
07FE00
1E1F80
3C0F80
7C07C0
7807C0
F803E0
F803E0
F803E0
F803E0
F803E0
F803C0
7C03C0
7C0780
3E0780
3F0F00
0FFC00
03F000
ENDCHAR
STARTCHAR 1ED0
ENCODING 7888
SWIDTH 625 0
DWIDTH 25 0
BBX 23 42 1 0
BITMAP
000300
000780
000FC0
001FC0
003F00
007C00
00F000
00C000
003800
007C00
00FE00
01FF00
03FF00
03C780
0701C0
040080
000000
007E00
03FFC0
0787E0
0E01F0
1E00F8
3C00F8
3C007C
7C007C
78007E
F8003E
F8003E
F8003E
F8003E
F8003E
F8003E
F8003E
FC003C
7C007C
7C0078
3E0078
3E00F0
1F01E0
0FC3C0
07FF00
00FC00
ENDCHAR
STARTCHAR 1ED1
ENCODING 7889
SWIDTH 525 0
DWIDTH 21 0
BBX 19 39 1 0
BITMAP
001E00
003F00
003E00
007E00
007C00
007800
00F000
00E000
01C000
008000
00F000
00F000
01F800
03FC00
07FC00
079E00
0F0F00
1C0300
080180
000000
000000
01F800
07FE00
1E1F80
3C0F80
7C07C0
7807C0
F803E0
F803E0
F803E0
F803E0
F803E0
F803C0
7C03C0
7C0780
3E0780
3F0F00
0FFC00
03F000
ENDCHAR
STARTCHAR 1ED2
ENCODING 7890
SWIDTH 625 0
DWIDTH 25 0
BBX 23 42 1 0
BITMAP
018000
03C000
07E000
07F000
01F800
007C00
001E00
000600
003800
007C00
00FE00
01FF00
03FF00
03C780
0701C0
040080
000000
007E00
03FFC0
0787E0
0E01F0
1E00F8
3C00F8
3C007C
7C007C
78007E
F8003E
F8003E
F8003E
F8003E
F8003E
F8003E
F8003E
FC003C
7C007C
7C0078
3E0078
3E00F0
1F01E0
0FC3C0
07FF00
00FC00
ENDCHAR
STARTCHAR 1ED3
ENCODING 7891
SWIDTH 525 0
DWIDTH 21 0
BBX 19 39 1 0
BITMAP
078000
0FC000
07C000
03E000
03E000
01F000
00F000
007000
003800
001000
00F000
00F000
01F800
03FC00
07FC00
079E00
0F0F00
1C0300
080180
000000
000000
01F800
07FE00
1E1F80
3C0F80
7C07C0
7807C0
F803E0
F803E0
F803E0
F803E0
F803E0
F803C0
7C03C0
7C0780
3E0780
3F0F00
0FFC00
03F000
ENDCHAR
STARTCHAR 1ED4
ENCODING 7892
SWIDTH 625 0
DWIDTH 25 0
BBX 23 42 1 0
BITMAP
003E00
00EE00
00E700
000E00
003800
007800
001800
000000
003800
007C00
00FE00
01FF00
03FF00
03C780
0701C0
040080
000000
007E00
03FFC0
0787E0
0E01F0
1E00F8
3C00F8
3C007C
7C007C
78007E
F8003E
F8003E
F8003E
F8003E
F8003E
F8003E
F8003E
FC003C
7C007C
7C0078
3E0078
3E00F0
1F01E0
0FC3C0
07FF00
00FC00
ENDCHAR
STARTCHAR 1ED5
ENCODING 7893
SWIDTH 525 0
DWIDTH 21 0
BBX 19 37 1 0
BITMAP
00F800
019C00
039C00
003800
00E000
00E000
007000
000000
00F000
00F000
01F800
03FC00
07FC00
079E00
0F0F00
1C0300
080180
000000
000000
01F800
07FE00
1E1F80
3C0F80
7C07C0
7807C0
F803E0
F803E0
F803E0
F803E0
F803E0
F803C0
7C03C0
7C0780
3E0780
3F0F00
0FFC00
03F000
ENDCHAR
STARTCHAR 1ED6
ENCODING 7894
SWIDTH 625 0
DWIDTH 25 0
BBX 23 41 1 0
BITMAP
01E060
03F8E0
03FFC0
07FFC0
063F80
0C0F00
080000
003800
007C00
00FE00
01FF00
03FF00
03C780
0701C0
040080
000000
007E00
03FFC0
0787E0
0E01F0
1E00F8
3C00F8
3C007C
7C007C
78007E
F8003E
F8003E
F8003E
F8003E
F8003E
F8003E
F8003E
FC003C
7C007C
7C0078
3E0078
3E00F0
1F01E0
0FC3C0
07FF00
00FC00
ENDCHAR
STARTCHAR 1ED7
ENCODING 7895
SWIDTH 525 0
DWIDTH 21 0
BBX 19 36 1 0
BITMAP
07C0C0
0FF380
0FFF80
1FFF00
187E00
301C00
000000
00F000
00F000
01F800
03FC00
07FC00
079E00
0F0F00
1C0300
080180
000000
000000
01F800
07FE00
1E1F80
3C0F80
7C07C0
7807C0
F803E0
F803E0
F803E0
F803E0
F803E0
F803C0
7C03C0
7C0780
3E0780
3F0F00
0FFC00
03F000
ENDCHAR
STARTCHAR 1ED8
ENCODING 7896
SWIDTH 625 0
DWIDTH 25 0
BBX 23 43 1 -9
BITMAP
003800
007C00
00FE00
01FF00
03FF00
03C780
0701C0
040080
000000
007E00
03FFC0
0787E0
0E01F0
1E00F8
3C00F8
3C007C
7C007C
78007E
F8003E
F8003E
F8003E
F8003E
F8003E
F8003E
F8003E
FC003C
7C007C
7C0078
3E0078
3E00F0
1F01E0
0FC3C0
07FF00
00FC00
000000
000000
000000
003800
007800
007C00
007800
007800
007000
ENDCHAR
STARTCHAR 1ED9
ENCODING 7897
SWIDTH 525 0
DWIDTH 21 0
BBX 19 38 1 -9
BITMAP
00F000
00F000
01F800
03FC00
07FC00
079E00
0F0F00
1C0300
080180
000000
000000
01F800
07FE00
1E1F80
3C0F80
7C07C0
7807C0
F803E0
F803E0
F803E0
F803E0
F803E0
F803C0
7C03C0
7C0780
3E0780
3F0F00
0FFC00
03F000
000000
000000
000000
00E000
00F000
01F000
01F000
01E000
00E000
ENDCHAR
STARTCHAR 1EDA
ENCODING 7898
SWIDTH 625 0
DWIDTH 25 0
BBX 24 34 1 0
BITMAP
000300
000780
000FC0
003F80
007E02
00F80F
01E03F
00801F
00001F
007E1E
03FFFC
0787F8
0E01F0
1E00F8
3C00FC
3C007C
7C007C
78007E
F8003E
F8003E
F8003E
F8003E
F8003E
F8003E
F8003E
FC003C
7C007C
7C0078
3E0078
3E00F0
1F01E0
0FC3C0
07FF00
00FC00
ENDCHAR
STARTCHAR 1EDB
ENCODING 7899
SWIDTH 600 0
DWIDTH 24 0
BBX 23 30 1 0
BITMAP
001C00
001F00
003F00
003E00
007C00
007800
00F000
00E00C
00C03E
01C0FE
00007E
00003C
01F83C
07FE70
1E1FE0
3C0FC0
7C07C0
7807E0
F803E0
F803E0
F803E0
F803E0
F803E0
F803C0
7C03C0
7C0780
3E0780
3F0F00
0FFC00
03F000
ENDCHAR
STARTCHAR 1EDC
ENCODING 7900
SWIDTH 625 0
DWIDTH 25 0
BBX 24 34 1 0
BITMAP
018000
07C000
07E000
0FF000
01F802
007C0F
001E3F
00041F
00001F
007E1E
03FFFC
0787F8
0E01F0
1E00F8
3C00FC
3C007C
7C007C
78007E
F8003E
F8003E
F8003E
F8003E
F8003E
F8003E
F8003E
FC003C
7C007C
7C0078
3E0078
3E00F0
1F01E0
0FC3C0
07FF00
00FC00
ENDCHAR
STARTCHAR 1EDD
ENCODING 7901
SWIDTH 600 0
DWIDTH 24 0
BBX 23 30 1 0
BITMAP
038000
0FC000
07C000
03E000
01E000
01F000
00F000
00780C
00383E
0018FE
00007E
00003C
01F83C
07FE70
1E1FE0
3C0FC0
7C07C0
7807E0
F803E0
F803E0
F803E0
F803E0
F803E0
F803C0
7C03C0
7C0780
3E0780
3F0F00
0FFC00
03F000
ENDCHAR
STARTCHAR 1EDE
ENCODING 7902
SWIDTH 625 0
DWIDTH 25 0
BBX 24 34 1 0
BITMAP
007E00
00EE00
00EE00
001C00
003802
00700F
00183F
00001F
00001F
007E1E
03FFFC
0787F8
0E01F0
1E00F8
3C00FC
3C007C
7C007C
78007E
F8003E
F8003E
F8003E
F8003E
F8003E
F8003E
F8003E
FC003C
7C007C
7C0078
3E0078
3E00F0
1F01E0
0FC3C0
07FF00
00FC00
ENDCHAR
STARTCHAR 1EDF
ENCODING 7903
SWIDTH 600 0
DWIDTH 24 0
BBX 23 28 1 0
BITMAP
007800
01DC00
01DC00
001800
007000
00E00C
00703E
0000FE
00007E
00003C
01F83C
07FE70
1E1FE0
3C0FC0
7C07C0
7807E0
F803E0
F803E0
F803E0
F803E0
F803E0
F803C0
7C03C0
7C0780
3E0780
3F0F00
0FFC00
03F000
ENDCHAR
STARTCHAR 1EE0
ENCODING 7904
SWIDTH 625 0
DWIDTH 25 0
BBX 24 33 1 0
BITMAP
01E060
03FDC0
07FFC0
07FF82
0C3F0F
0C063F
08001F
00001F
007E1E
03FFFC
0787F8
0E01F0
1E00F8
3C00FC
3C007C
7C007C
78007E
F8003E
F8003E
F8003E
F8003E
F8003E
F8003E
F8003E
FC003C
7C007C
7C0078
3E0078
3E00F0
1F01E0
0FC3C0
07FF00
00FC00
ENDCHAR
STARTCHAR 1EE1
ENCODING 7905
SWIDTH 600 0
DWIDTH 24 0
BBX 23 27 1 0
BITMAP
03C0C0
07F180
0FFF80
1FFF00
187F0C
101C3E
0000FE
00007E
00003C
01F83C
07FE70
1E1FE0
3C0FC0
7C07C0
7807E0
F803E0
F803E0
F803E0
F803E0
F803E0
F803C0
7C03C0
7C0780
3E0780
3F0F00
0FFC00
03F000
ENDCHAR
STARTCHAR 1EE2
ENCODING 7906
SWIDTH 625 0
DWIDTH 25 0
BBX 24 39 1 -9
BITMAP
000002
00000F
00003F
00001F
00001F
007E1E
03FFFC
0787F8
0E01F0
1E00F8
3C00FC
3C007C
7C007C
78007E
F8003E
F8003E
F8003E
F8003E
F8003E
F8003E
F8003E
FC003C
7C007C
7C0078
3E0078
3E00F0
1F01E0
0FC3C0
07FF00
00FC00
000000
000000
000000
003800
007800
00F800
00F800
00F800
007000
ENDCHAR
STARTCHAR 1EE3
ENCODING 7907
SWIDTH 600 0
DWIDTH 24 0
BBX 23 32 1 -9
BITMAP
00000C
00003E
0000FE
00007E
00003C
01F83C
07FE70
1E1FE0
3C0FC0
7C07C0
7807E0
F803E0
F803E0
F803E0
F803E0
F803E0
F803C0
7C03C0
7C0780
3E0780
3F0F00
0FFC00
03F000
000000
000000
000000
007000
00F000
01F000
01F000
01F000
00E000
ENDCHAR
STARTCHAR 1EE4
ENCODING 7908
SWIDTH 675 0
DWIDTH 27 0
BBX 25 34 1 -9
BITMAP
FFE0FF80
7FE0FF00
1F001C00
1F001C00
1F001C00
1F001C00
1F001C00
1F001C00
1F001C00
1F001C00
1F001C00
1F001C00
1F001C00
1F001C00
1F001C00
1F001C00
1F001C00
1F001C00
1F001800
0F803800
0F803800
07C07000
03E0E000
01FFC000
007F0000
00000000
00000000
00000000
001C0000
003C0000
003E0000
003C0000
003C0000
00380000
ENDCHAR
STARTCHAR 1EE5
ENCODING 7909
SWIDTH 575 0
DWIDTH 23 0
BBX 22 27 1 -9
BITMAP
0E00E0
FE1FE0
7E07E0
3E03E0
3E03E0
3E03E0
3E03E0
3E03E0
3E03E0
3E03E0
3E03E0
3E03E0
3E03E0
3E07E0
3F1FFC
1FFBFC
1FF3F0
0FC1C0
000000
000000
000000
007000
00F000
01F000
01F000
01F000
00E000
ENDCHAR
STARTCHAR 1EE6
ENCODING 7910
SWIDTH 675 0
DWIDTH 27 0
BBX 25 34 1 0
BITMAP
003F0000
00778000
00730000
000E0000
001C0000
001C0000
000C0000
00000000
00000000
FFE0FF80
7FE0FF00
1F001C00
1F001C00
1F001C00
1F001C00
1F001C00
1F001C00
1F001C00
1F001C00
1F001C00
1F001C00
1F001C00
1F001C00
1F001C00
1F001C00
1F001C00
1F001C00
1F001800
0F803800
0F803800
07C07000
03E0E000
01FFC000
007F0000
ENDCHAR
STARTCHAR 1EE7
ENCODING 7911
SWIDTH 575 0
DWIDTH 23 0
BBX 22 28 1 0
BITMAP
007800
01DC00
01DC00
001C00
007000
00E000
007000
000000
000000
000000
0E00E0
FE1FE0
7E07E0
3E03E0
3E03E0
3E03E0
3E03E0
3E03E0
3E03E0
3E03E0
3E03E0
3E03E0
3E03E0
3E07E0
3F1FFC
1FFBFC
1FF3F0
0FC1C0
ENDCHAR
STARTCHAR 1EE8
ENCODING 7912
SWIDTH 725 0
DWIDTH 29 0
BBX 28 34 1 0
BITMAP
0001C000
0003E000
0007F000
000FE000
001F8020
003E00F0
007803F0
002001F0
000001F0
FFE0FFE0
7FE0FFC0
1F001F00
1F001E00
1F001C00
1F001C00
1F001C00
1F001C00
1F001C00
1F001C00
1F001C00
1F001C00
1F001C00
1F001C00
1F001C00
1F001C00
1F001C00
1F001C00
1F001800
0F803800
0F803800
07C07000
03E0E000
01FFC000
007F0000
ENDCHAR
STARTCHAR 1EE9
ENCODING 7913
SWIDTH 675 0
DWIDTH 27 0
BBX 26 30 1 0
BITMAP
001E0000
001F0000
003F8000
003E0000
007C0000
00780000
00700000
00E00080
00E007C0
01C00FC0
000007C0
06006780
FE1FE780
FE1FEF00
3E03FC00
3E03F800
3E03E000
3E03E000
3E03E000
3E03E000
3E03E000
3E03E000
3E03E000
3E03E000
3E03E000
3E07E000
3F1FFC00
1FFFFC00
1FF3F000
07C1C000
ENDCHAR
STARTCHAR 1EEA
ENCODING 7914
SWIDTH 725 0
DWIDTH 29 0
BBX 28 34 1 0
BITMAP
00C00000
01E00000
03F80000
01FC0000
007E0020
001F00F0
000783F0
000101F0
000001F0
FFE0FFE0
7FE0FFC0
1F001F00
1F001E00
1F001C00
1F001C00
1F001C00
1F001C00
1F001C00
1F001C00
1F001C00
1F001C00
1F001C00
1F001C00
1F001C00
1F001C00
1F001C00
1F001C00
1F001800
0F803800
0F803800
07C07000
03E0E000
01FFC000
007F0000
ENDCHAR
STARTCHAR 1EEB
ENCODING 7915
SWIDTH 675 0
DWIDTH 27 0
BBX 26 30 1 0
BITMAP
03800000
07C00000
0FC00000
03E00000
01E00000
00F00000
00F00000
00780080
003807C0
00180FC0
000007C0
06006780
FE1FE780
FE1FEF00
3E03FC00
3E03F800
3E03E000
3E03E000
3E03E000
3E03E000
3E03E000
3E03E000
3E03E000
3E03E000
3E03E000
3E07E000
3F1FFC00
1FFFFC00
1FF3F000
07C1C000
ENDCHAR
STARTCHAR 1EEC
ENCODING 7916
SWIDTH 725 0
DWIDTH 29 0
BBX 28 34 1 0
BITMAP
001F0000
003B8000
007B8000
00070000
001E0020
001C00F0
000603F0
000001F0
000001F0
FFE0FFE0
7FE0FFC0
1F001F00
1F001E00
1F001C00
1F001C00
1F001C00
1F001C00
1F001C00
1F001C00
1F001C00
1F001C00
1F001C00
1F001C00
1F001C00
1F001C00
1F001C00
1F001C00
1F001800
0F803800
0F803800
07C07000
03E0E000
01FFC000
007F0000
ENDCHAR
STARTCHAR 1EED
ENCODING 7917
SWIDTH 675 0
DWIDTH 27 0
BBX 26 28 1 0
BITMAP
00780000
01DC0000
01DC0000
001C0000
00700000
00E00080
007007C0
00000FC0
000007C0
06006780
FE1FE780
FE1FEF00
3E03FC00
3E03F800
3E03E000
3E03E000
3E03E000
3E03E000
3E03E000
3E03E000
3E03E000
3E03E000
3E03E000
3E07E000
3F1FFC00
1FFFFC00
1FF3F000
07C1C000
ENDCHAR
STARTCHAR 1EEE
ENCODING 7918
SWIDTH 725 0
DWIDTH 29 0
BBX 28 33 1 0
BITMAP
00781800
00FE7000
01FFF000
03FFE020
030FC0F0
020383F0
060001F0
000001F0
FFE0FFE0
7FE0FFC0
1F001F00
1F001E00
1F001C00
1F001C00
1F001C00
1F001C00
1F001C00
1F001C00
1F001C00
1F001C00
1F001C00
1F001C00
1F001C00
1F001C00
1F001C00
1F001C00
1F001800
0F803800
0F803800
07C07000
03E0E000
01FFC000
007F0000
ENDCHAR
STARTCHAR 1EEF
ENCODING 7919
SWIDTH 675 0
DWIDTH 27 0
BBX 26 27 1 0
BITMAP
03C0C000
07F1C000
0FFF8000
0FFF0000
187F0080
101C07C0
00000FC0
000007C0
06006780
FE1FE780
FE1FEF00
3E03FC00
3E03F800
3E03E000
3E03E000
3E03E000
3E03E000
3E03E000
3E03E000
3E03E000
3E03E000
3E03E000
3E07E000
3F1FFC00
1FFFFC00
1FF3F000
07C1C000
ENDCHAR
STARTCHAR 1EF0
ENCODING 7920
SWIDTH 725 0
DWIDTH 29 0
BBX 28 39 1 -9
BITMAP
00000020
000000F0
000003F0
000001F0
000001F0
FFE0FFE0
7FE0FFC0
1F001F00
1F001E00
1F001C00
1F001C00
1F001C00
1F001C00
1F001C00
1F001C00
1F001C00
1F001C00
1F001C00
1F001C00
1F001C00
1F001C00
1F001C00
1F001C00
1F001800
0F803800
0F803800
07C07000
03E0E000
01FFC000
007F0000
00000000
00000000
00000000
001C0000
001E0000
003E0000
003E0000
003E0000
001C0000
ENDCHAR
STARTCHAR 1EF1
ENCODING 7921
SWIDTH 675 0
DWIDTH 27 0
BBX 26 32 1 -9
BITMAP
00000080
000007C0
00000FC0
000007C0
06006780
FE1FE780
FE1FEF00
3E03FC00
3E03F800
3E03E000
3E03E000
3E03E000
3E03E000
3E03E000
3E03E000
3E03E000
3E03E000
3E03E000
3E07E000
3F1FFC00
1FFFFC00
1FF3F000
0FC1C000
00000000
00000000
00000000
00700000
00F00000
01F00000
01F00000
01F00000
00E00000
ENDCHAR
STARTCHAR 1EF2
ENCODING 7922
SWIDTH 625 0
DWIDTH 25 0
BBX 24 34 0 0
BITMAP
00C000
03E000
03F000
07F800
00FC00
003E00
000F00
000200
000000
7E00FF
FF00FF
1F0038
0F8038
0FC070
07C070
03E0E0
03E0E0
01F1C0
01F1C0
00FB80
00FB80
007F00
007F00
003E00
003E00
003E00
003E00
003E00
003E00
003E00
003E00
003E00
01FFC0
01FFC0
ENDCHAR
STARTCHAR 1EF3
ENCODING 7923
SWIDTH 500 0
DWIDTH 20 0
BBX 21 39 -1 -9
BITMAP
00E000
03E000
03F000
01F000
00F800
007800
003C00
001C00
000E00
000400
000000
000000
7FC1F8
3F81F8
1F00E0
0F80E0
0F81C0
07C1C0
07C180
07C380
03E380
03E700
01F700
01F600
00FE00
00FE00
00FC00
007C00
007800
003800
003800
007000
007000
00E000
21E000
7FC000
7F8000
FF0000
7C0000
ENDCHAR
STARTCHAR 1EF4
ENCODING 7924
SWIDTH 625 0
DWIDTH 25 0
BBX 24 34 0 -9
BITMAP
7E00FF
FF00FF
1F0038
0F8038
0FC070
07C070
03E0E0
03E0E0
01F1C0
01F1C0
00FB80
00FB80
007F00
007F00
003E00
003E00
003E00
003E00
003E00
003E00
003E00
003E00
003E00
01FFC0
01FFC0
000000
000000
000000
001C00
003C00
007C00
007C00
007C00
003800
ENDCHAR
STARTCHAR 1EF5
ENCODING 7925
SWIDTH 500 0
DWIDTH 20 0
BBX 21 27 -1 -9
BITMAP
7FC1F8
3F81F8
1F00E0
0F80E0
0F81C0
07C1C0
07C180
07C380
03E380
03E700
01F700
01F600
00FE00
00FE00
00FC00
007C00
007800
003800
003800
007000
007000
00E1C0
21E1E0
7FC3E0
7F83E0
FF03C0
7C01C0
ENDCHAR
STARTCHAR 1EF6
ENCODING 7926
SWIDTH 625 0
DWIDTH 25 0
BBX 24 34 0 0
BITMAP
003F00
007700
007700
000E00
001C00
003800
000C00
000000
000000
7E00FF
FF00FF
1F0038
0F8038
0FC070
07C070
03E0E0
03E0E0
01F1C0
01F1C0
00FB80
00FB80
007F00
007F00
003E00
003E00
003E00
003E00
003E00
003E00
003E00
003E00
003E00
01FFC0
01FFC0
ENDCHAR
STARTCHAR 1EF7
ENCODING 7927
SWIDTH 500 0
DWIDTH 20 0
BBX 21 37 -1 -9
BITMAP
003E00
007F00
00E700
000E00
003800
003800
001C00
000000
000000
000000
7FC1F8
3F81F8
1F00E0
0F80E0
0F81C0
07C1C0
07C180
07C380
03E380
03E700
01F700
01F600
00FE00
00FE00
00FC00
007C00
007800
003800
003800
007000
007000
00E000
21E000
7FC000
7F8000
FF0000
7C0000
ENDCHAR
STARTCHAR 1EF8
ENCODING 7928
SWIDTH 625 0
DWIDTH 25 0
BBX 24 33 0 0
BITMAP
00F030
01FEE0
03FFE0
03FFC0
061F80
060300
040000
000000
7E00FF
FF00FF
1F0038
0F8038
0FC070
07C070
03E0E0
03E0E0
01F1C0
01F1C0
00FB80
00FB80
007F00
007F00
003E00
003E00
003E00
003E00
003E00
003E00
003E00
003E00
003E00
01FFC0
01FFC0
ENDCHAR
STARTCHAR 1EF9
ENCODING 7929
SWIDTH 500 0
DWIDTH 20 0
BBX 21 36 -1 -9
BITMAP
01E060
03F860
03FFC0
07FFC0
0E3F80
0C0F00
000000
000000
000000
7FC1F8
3F81F8
1F00E0
0F80E0
0F81C0
07C1C0
07C180
07C380
03E380
03E700
01F700
01F600
00FE00
00FE00
00FC00
007C00
007800
003800
003800
007000
007000
00E000
21E000
7FC000
7F8000
FF0000
7C0000
ENDCHAR
STARTCHAR 2011
ENCODING 8209
SWIDTH 350 0
DWIDTH 14 0
BBX 12 2 1 9
BITMAP
7FF0
FFF0
ENDCHAR
STARTCHAR 2013
ENCODING 8211
SWIDTH 475 0
DWIDTH 19 0
BBX 17 2 1 9
BITMAP
7FFF80
FFFF80
ENDCHAR
STARTCHAR 2014
ENCODING 8212
SWIDTH 800 0
DWIDTH 32 0
BBX 30 2 1 9
BITMAP
7FFFFFFC
FFFFFFFC
ENDCHAR
STARTCHAR 2018
ENCODING 8216
SWIDTH 250 0
DWIDTH 10 0
BBX 7 12 2 16
BITMAP
08
1C
38
70
70
F0
F0
F8
FE
FE
78
20
ENDCHAR
STARTCHAR 2019
ENCODING 8217
SWIDTH 250 0
DWIDTH 10 0
BBX 7 12 2 17
BITMAP
08
3C
FE
FE
3E
1E
1E
1C
1C
38
30
60
ENDCHAR
STARTCHAR 201A
ENCODING 8218
SWIDTH 250 0
DWIDTH 10 0
BBX 7 12 2 -7
BITMAP
08
3C
FE
FE
3E
1E
1E
1C
1C
38
30
60
ENDCHAR
STARTCHAR 201C
ENCODING 8220
SWIDTH 500 0
DWIDTH 20 0
BBX 16 12 2 16
BITMAP
0804
1C0E
381C
7038
7038
F078
F078
F87C
FE7F
FE7F
783C
2010
ENDCHAR
STARTCHAR 201D
ENCODING 8221
SWIDTH 500 0
DWIDTH 20 0
BBX 16 12 2 17
BITMAP
0804
3C1E
FE7F
FE7F
3E1F
1E0F
1E0F
1C0E
1C0E
381C
3018
6030
ENDCHAR
STARTCHAR 201E
ENCODING 8222
SWIDTH 500 0
DWIDTH 20 0
BBX 16 12 2 -7
BITMAP
0804
3C1E
FE7F
FE7F
3E1F
1E0F
1E0F
1C0E
1C0E
381C
3018
6030
ENDCHAR
STARTCHAR 2020
ENCODING 8224
SWIDTH 500 0
DWIDTH 20 0
BBX 19 30 0 -1
BITMAP
003800
00F000
03F000
01F000
01F000
00E000
20E040
3CE3E0
3FFFC0
7FFFC0
7CEF80
C0E180
00E000
01F000
01F000
01F000
01F000
01F000
01F000
00E000
00E000
00E000
00E000
00E000
00E000
00E000
00E000
00F000
01F000
018000
ENDCHAR
STARTCHAR 2021
ENCODING 8225
SWIDTH 500 0
DWIDTH 20 0
BBX 19 30 0 -1
BITMAP
003000
00F800
03F000
01F000
01F000
00E000
20E040
3CE3E0
3FFFC0
7FFFC0
7CEF80
C0E100
00E000
01F000
01F000
01F000
01F000
00E000
10E040
3EE7E0
7FFFC0
7FFF80
F8E780
40E100
00E000
01F000
01F000
01F800
01E000
038000
ENDCHAR
STARTCHAR 2022
ENCODING 8226
SWIDTH 275 0
DWIDTH 11 0
BBX 9 9 1 8
BITMAP
1E00
3F00
7F80
7F80
FF80
FF80
7F00
7F00
3C00
ENDCHAR
STARTCHAR 2026
ENCODING 8230
SWIDTH 825 0
DWIDTH 33 0
BBX 28 6 3 -1
BITMAP
380700E0
7C0F81F0
FC1F83F0
FC1F83F0
FC1F83F0
780F01E0
ENDCHAR
STARTCHAR 2030
ENCODING 8240
SWIDTH 1050 0
DWIDTH 42 0
BBX 40 25 1 0
BITMAP
0000030000
0F800F0000
3FC00E0000
71E01C0000
70E0380000
E070780000
E070700000
E070E00000
E071C00000
E073C00000
6067800000
7067000000
30CE3E00F8
1F1C63030C
003CC3860E
0038C18606
0071C1CE07
00E1C1CE07
01E1C1CE07
01C1C1CE07
0381C1CE07
0700E1870E
0F00E3878E
0E007F03FC
1C003E01F0
ENDCHAR
STARTCHAR 2039
ENCODING 8249
SWIDTH 325 0
DWIDTH 13 0
BBX 9 18 1 0
BITMAP
0080
0180
0300
0700
0E00
1E00
3C00
7C00
F800
FC00
7C00
3C00
1E00
0E00
0700
0300
0180
0080
ENDCHAR
STARTCHAR 203A
ENCODING 8250
SWIDTH 325 0
DWIDTH 13 0
BBX 9 18 2 0
BITMAP
4000
E000
7000
3800
3C00
1E00
1F00
0F80
0F80
0F80
0F80
1F00
1E00
3C00
3800
7000
6000
C000
ENDCHAR
STARTCHAR 2044
ENCODING 8260
SWIDTH 625 0
DWIDTH 25 0
BBX 20 24 3 0
BITMAP
000030
000070
0000E0
0001C0
000380
000380
000700
000E00
001C00
001C00
003800
007000
00E000
00E000
01C000
038000
070000
0E0000
0E0000
1C0000
380000
700000
700000
E00000
ENDCHAR
STARTCHAR 20AC
ENCODING 8364
SWIDTH 500 0
DWIDTH 20 0
BBX 19 24 0 0
BITMAP
003F80
01FFE0
03C3E0
0781C0
0F80C0
0F0000
1F0000
1F0000
1F0000
7FFE00
7FFE00
3E0000
3E0000
7FFC00
FFFC00
1F0000
1F0000
1F0000
0F0000
0F8040
07C060
03E1C0
01FF80
007E00
ENDCHAR
STARTCHAR 2122
ENCODING 8482
SWIDTH 600 0
DWIDTH 24 0
BBX 23 9 0 16
BITMAP
7FF80E
7FFC1C
8E5C1C
0E162C
0E166C
0E134C
0E13CC
0E118C
1F399E
ENDCHAR
STARTCHAR 2126
ENCODING 8486
SWIDTH 675 0
DWIDTH 27 0
BBX 24 25 1 0
BITMAP
007F00
03FFE0
07C3F0
0F00F8
1F00FC
3E007C
3E007C
3C003E
7C003E
7C003E
7C003E
7C003E
7C003E
7C003C
3E007C
3E0078
1F00F8
0F00F0
0F81E0
6783C3
63C383
61E707
FFE7FE
FFE7FE
FFE7FE
ENDCHAR
STARTCHAR 2202
ENCODING 8706
SWIDTH 525 0
DWIDTH 21 0
BBX 19 27 1 0
BITMAP
07F000
0FFC00
1C3F00
300F00
000F80
0007C0
0007C0
0003C0
0003E0
03F3E0
0FFBE0
1E1FE0
3C0FE0
7C07E0
7803E0
F803E0
F803E0
F803E0
F803C0
F803C0
F803C0
7C0780
7C0780
3E0F00
3F1E00
0FFC00
03F000
ENDCHAR
STARTCHAR 2205
ENCODING 8709
SWIDTH 650 0
DWIDTH 26 0
BBX 22 29 2 -2
BITMAP
00000C
00001C
00FC38
03FF70
0F83F0
1E00E0
1C01F0
3803F0
7003F8
700738
700F3C
E01E1C
E01C1C
E0381C
E0781C
E0701C
E0E01C
E1E01C
F3C038
738038
7F0038
3F0070
3E00E0
1C01E0
3F07C0
3BFF00
70FC00
E00000
C00000
ENDCHAR
STARTCHAR 2206
ENCODING 8710
SWIDTH 600 0
DWIDTH 24 0
BBX 22 25 1 0
BITMAP
001800
007800
00F800
00FC00
01FC00
01FE00
03FE00
03BE00
039F00
071F00
070F80
070F80
0E0F80
0E07C0
1E07C0
1C03E0
1C03E0
3C03E0
3801F0
3801F0
7001F8
7000F8
F000FC
FFFFFC
FFFFFC
ENDCHAR
STARTCHAR 220F
ENCODING 8719
SWIDTH 650 0
DWIDTH 26 0
BBX 24 25 1 0
BITMAP
FFFFFF
7FFFFF
1F81F8
1F00F8
1F00F8
1F00F8
1F00F8
1F00F8
1F00F8
1F00F8
1F00F8
1F00F8
1F00F8
1F00F8
1F00F8
1F00F8
1F00F8
1F00F8
1F00F8
1F00F8
1F00F8
1F00F8
1F00F8
7FE7FE
FFE7FF
ENDCHAR
STARTCHAR 2211
ENCODING 8721
SWIDTH 550 0
DWIDTH 22 0
BBX 20 25 1 0
BITMAP
FFFFE0
7FFFE0
7E00E0
3E00E0
1F0060
1F8060
0F8000
07C000
07E000
03E000
03F000
01F000
00E000
01E000
01C000
038000
078000
070030
0E0070
1E0060
3C00E0
3FFFE0
7FFFE0
FFFFE0
FFFFE0
ENDCHAR
STARTCHAR 2212
ENCODING 8722
SWIDTH 425 0
DWIDTH 17 0
BBX 15 2 1 10
BITMAP
7FFE
FFFC
ENDCHAR
STARTCHAR 2219
ENCODING 8729
SWIDTH 200 0
DWIDTH 8 0
BBX 6 6 1 11
BITMAP
38
7C
FC
FC
FC
78
ENDCHAR
STARTCHAR 221A
ENCODING 8730
SWIDTH 625 0
DWIDTH 25 0
BBX 26 28 0 0
BITMAP
00001F80
00001FC0
00001F80
00003800
00003800
00003800
00003000
00007000
00007000
00006000
7E00E000
FE00E000
1F00E000
0F00C000
0F81C000
0781C000
07C18000
03C38000
03E38000
01E38000
01F30000
00F70000
00FF0000
007F0000
007E0000
003E0000
003C0000
00100000
ENDCHAR
STARTCHAR 221E
ENCODING 8734
SWIDTH 675 0
DWIDTH 27 0
BBX 25 11 1 6
BITMAP
07C03C00
1FE0FF00
3FF1FF00
71FF8780
E0FF0380
E07F0380
E07F8380
F0FFC700
FFCFFE00
7F83FC00
1E01F000
ENDCHAR
STARTCHAR 222B
ENCODING 8747
SWIDTH 300 0
DWIDTH 12 0
BBX 22 38 -5 -9
BITMAP
0003F0
000FFC
001C78
003C30
007800
007800
00F800
00F800
00F800
00F800
00F800
00F800
00F800
00F800
00F800
00F800
00F800
00FC00
00FC00
007C00
007C00
007C00
007C00
007C00
007C00
007C00
007C00
007C00
007C00
007C00
007C00
007800
007800
20F000
78E000
FFC000
FF8000
3E0000
ENDCHAR
STARTCHAR 2248
ENCODING 8776
SWIDTH 450 0
DWIDTH 18 0
BBX 16 10 1 6
BITMAP
1FFF
7FFC
E000
4000
0000
1E00
3F02
63C7
C0FE
4078
ENDCHAR
STARTCHAR 2260
ENCODING 8800
SWIDTH 450 0
DWIDTH 18 0
BBX 16 18 1 2
BITMAP
0006
001E
003C
003C
0078
7FFF
FFFF
01E0
03C0
03C0
0380
7FFF
FFFF
1E00
1C00
3C00
7800
6000
ENDCHAR
STARTCHAR 2264
ENCODING 8804
SWIDTH 450 0
DWIDTH 18 0
BBX 16 16 1 4
BITMAP
0003
001F
007F
03FC
1FF0
7F80
FC00
FE00
7FC0
0FF8
03FE
007F
000E
0000
7FFF
FFFF
ENDCHAR
STARTCHAR 2265
ENCODING 8805
SWIDTH 450 0
DWIDTH 18 0
BBX 16 16 1 4
BITMAP
7000
FC00
FF80
1FF0
03FE
00FF
001F
00FF
07FC
3FE0
7F00
FC00
E000
0000
7FFF
FFFF
ENDCHAR
STARTCHAR 25CA
ENCODING 9674
SWIDTH 350 0
DWIDTH 14 0
BBX 14 25 0 0
BITMAP
0180
0380
07C0
0FC0
0FE0
0DE0
1DF0
18F0
38F8
3078
707C
703C
F03C
F81C
7818
7C38
3C30
3E70
1E60
1FE0
0FC0
0FC0
0780
0780
0200
ENDCHAR
STARTCHAR 25CC
ENCODING 9676
SWIDTH 525 0
DWIDTH 21 0
BBX 18 18 1 0
BITMAP
00C000
06D800
061800
180300
180300
6000C0
6000C0
000000
400040
C000C0
000000
6000C0
6000C0
180300
180300
061800
06D800
00C000
ENDCHAR
STARTCHAR 2C60
ENCODING 11360
SWIDTH 500 0
DWIDTH 20 0
BBX 20 25 0 0
BITMAP
FFE000
FFE000
1F0000
1F0000
1F0000
1F0000
1F0000
1F0000
1F0000
1F0000
7FFC00
FFFC00
1F0000
1F0000
7FFC00
FFFC00
1F0000
1F0000
1F0000
1F0030
1F0060
1F0060
1F80E0
FFFFE0
FFFFE0
ENDCHAR
STARTCHAR 2C61
ENCODING 11361
SWIDTH 350 0
DWIDTH 14 0
BBX 13 30 0 0
BITMAP
0180
3F80
3F80
0F80
0F80
0F80
0F80
0F80
0F80
0F80
0F80
7FF8
FFF0
0F80
0F80
0F80
7FF8
FFF0
0F80
0F80
0F80
0F80
0F80
0F80
0F80
0F80
0F80
0F80
3FF0
3FF0
ENDCHAR
STARTCHAR 2C62
ENCODING 11362
SWIDTH 500 0
DWIDTH 20 0
BBX 22 25 -2 0
BITMAP
3FF800
3FF800
0FC000
07C000
07C000
07C000
07C000
07C000
07C000
07C000
07C000
1FC600
7FCE00
E7FC00
C7F000
07C000
07C000
07C000
07C000
07C00C
07C018
07C018
07E038
1FFFF8
3FFFF8
ENDCHAR
STARTCHAR A789
ENCODING 42889
SWIDTH 250 0
DWIDTH 10 0
BBX 6 16 2 1
BITMAP
38
7C
FC
FC
FC
78
00
00
00
00
38
7C
FC
FC
FC
78
ENDCHAR
STARTCHAR A78A
ENCODING 42890
SWIDTH 350 0
DWIDTH 14 0
BBX 12 8 1 5
BITMAP
FFF0
FFF0
0000
0000
0000
0000
FFF0
FFF0
ENDCHAR
STARTCHAR A78B
ENCODING 42891
SWIDTH 275 0
DWIDTH 11 0
BBX 5 18 3 13
BITMAP
18
F8
F8
F8
F8
F8
F8
F8
F8
F8
F0
70
70
70
70
70
70
70
ENDCHAR
STARTCHAR A78C
ENCODING 42892
SWIDTH 275 0
DWIDTH 11 0
BBX 5 17 3 12
BITMAP
18
F8
F8
F8
F8
F8
F8
F8
F8
78
70
70
70
70
70
70
70
ENDCHAR
STARTCHAR F130
ENCODING 61744
SWIDTH 175 0
DWIDTH 7 0
BBX 6 6 1 -6
BITMAP
FC
04
04
04
04
04
ENDCHAR
STARTCHAR F131
ENCODING 61745
SWIDTH 175 0
DWIDTH 7 0
BBX 6 6 0 -6
BITMAP
FC
80
80
80
80
80
ENDCHAR
STARTCHAR F195
ENCODING 61845
SWIDTH 225 0
DWIDTH 9 0
BBX 9 10 0 20
BITMAP
3800
FC00
FC00
7E00
3E00
1E00
0F00
0700
0380
0100
ENDCHAR
STARTCHAR F197
ENCODING 61847
SWIDTH 225 0
DWIDTH 9 0
BBX 9 10 0 20
BITMAP
0E00
1F80
1F80
1F00
3E00
3C00
7800
7000
E000
4000
ENDCHAR
STARTCHAR F1C8
ENCODING 61896
SWIDTH 325 0
DWIDTH 13 0
BBX 11 14 1 16
BITMAP
0F80
3FC0
71E0
E0E0
E0E0
80E0
01C0
0180
0300
0600
0E00
0E00
0E00
0E00
ENDCHAR
STARTCHAR F1E9
ENCODING 61929
SWIDTH 250 0
DWIDTH 10 0
BBX 6 16 2 1
BITMAP
38
7C
FC
FC
FC
78
00
00
00
00
38
7C
FC
FC
FC
78
ENDCHAR
STARTCHAR F1EA
ENCODING 61930
SWIDTH 350 0
DWIDTH 14 0
BBX 12 8 1 5
BITMAP
FFF0
FFF0
0000
0000
0000
0000
FFF0
FFF0
ENDCHAR
STARTCHAR F20E
ENCODING 61966
SWIDTH 350 0
DWIDTH 14 0
BBX 13 30 0 0
BITMAP
0180
3F80
3F80
0F80
0F80
0F80
0F80
0F80
0F80
0F80
0F80
7FF8
FFF0
0F80
0F80
0F80
7FF8
FFF0
0F80
0F80
0F80
0F80
0F80
0F80
0F80
0F80
0F80
0F80
3FF0
3FF0
ENDCHAR
STARTCHAR F20F
ENCODING 61967
SWIDTH 500 0
DWIDTH 20 0
BBX 20 25 0 0
BITMAP
FFE000
FFE000
1F0000
1F0000
1F0000
1F0000
1F0000
1F0000
1F0000
1F0000
7FFC00
FFFC00
1F0000
1F0000
7FFC00
FFFC00
1F0000
1F0000
1F0000
1F0030
1F0060
1F0060
1F80E0
FFFFE0
FFFFE0
ENDCHAR
STARTCHAR F211
ENCODING 61969
SWIDTH 550 0
DWIDTH 22 0
BBX 27 27 1 -9
BITMAP
01F04000
07FCE000
0E1FC000
3C0FC000
3C07C000
7807C000
F807C000
F807C000
F807C000
F807C000
F807C000
FC07C000
FC0FC000
7E1FC000
7FFFC000
3FF7C000
1FE7C000
0787C000
0007C000
0007C000
0007C060
0007C3E0
0007C3E0
0007C3C0
0003E7C0
0003FF00
0000FC00
ENDCHAR
STARTCHAR F212
ENCODING 61970
SWIDTH 650 0
DWIDTH 26 0
BBX 30 34 1 -9
BITMAP
007E0800
01FF9C00
0787F800
0F01F800
1E00F800
1C00F800
3C00F800
7C00F800
7800F800
7800F800
F800F800
F800F800
F800F800
F800F800
F800F800
F800F800
FC00F800
7C00F800
7E01F800
7F03F800
3F8FF800
3FFEF800
1FFCF800
0FF8F800
03E0F800
0000F800
0000F800
0000F80C
0000F87C
0000F87C
0000F878
00007CF0
00007FE0
00001F80
ENDCHAR
STARTCHAR F218
ENCODING 61976
SWIDTH 675 0
DWIDTH 27 0
BBX 25 25 1 0
BITMAP
FFE0FF80
FFE0FF80
1F001C00
1F001C00
1F001C00
1F001C00
1F001C00
1F001C00
1F001C00
1F001C00
1F001C00
7FFFFF80
FFFFFF00
1F001C00
1F001C00
1F001C00
1F001C00
1F001C00
1F001800
0F803800
0F803800
07C07000
07E0E000
01FFC000
007F0000
ENDCHAR
STARTCHAR F219
ENCODING 61977
SWIDTH 675 0
DWIDTH 27 0
BBX 26 25 0 0
BITMAP
00060000
001E0000
003E0000
003F0000
003F0000
007F8000
007F8000
00678000
00E7C000
00E7C000
00C3E000
01C3E000
01C3E000
0381F000
0381F000
0380F800
0700F800
0700F800
07007C00
0E007C00
0E003E00
0C003E00
1C003E00
7F00FFC0
FF80FFC0
ENDCHAR
STARTCHAR F21D
ENCODING 61981
SWIDTH 275 0
DWIDTH 11 0
BBX 5 17 3 12
BITMAP
18
F8
F8
F8
F8
F8
F8
F8
F8
78
70
70
70
70
70
70
70
ENDCHAR
STARTCHAR F21E
ENCODING 61982
SWIDTH 425 0
DWIDTH 17 0
BBX 15 18 1 0
BITMAP
07F0
3FFC
7C7C
783E
F83E
F83E
F03C
007C
00F0
01E0
03C0
07C0
07C0
07C0
07C0
07C0
3FF0
3FF8
ENDCHAR
STARTCHAR F21F
ENCODING 61983
SWIDTH 500 0
DWIDTH 20 0
BBX 20 25 0 0
BITMAP
FFE000
7FE000
1F0000
1F0000
1F0000
1F0000
1F0000
1F0000
1F0000
1F0000
1F0000
1F0000
7FFC00
FFFC00
1F0000
1F0000
1F0000
1F0000
1F0000
1F0030
1F0060
1F0060
1F80E0
FFFFE0
FFFFE0
ENDCHAR
STARTCHAR F242
ENCODING 62018
SWIDTH 500 0
DWIDTH 20 0
BBX 22 25 -2 0
BITMAP
3FF800
3FF800
0FC000
07C000
07C000
07C000
07C000
07C000
07C000
07C000
07C000
1FC600
7FCE00
E7FC00
C7F000
07C000
07C000
07C000
07C000
07C00C
07C018
07C018
07E038
1FFFF8
3FFFF8
ENDCHAR
STARTCHAR F26A
ENCODING 62058
SWIDTH 275 0
DWIDTH 11 0
BBX 5 18 3 13
BITMAP
18
F8
F8
F8
F8
F8
F8
F8
F8
F8
F0
70
70
70
70
70
70
70
ENDCHAR
STARTCHAR FB01
ENCODING 64257
SWIDTH 650 0
DWIDTH 26 0
BBX 25 29 0 0
BITMAP
003E0000
00FF8000
038F3C00
07867E00
07007E00
0F007E00
0F003C00
1F000000
1F000000
1F000000
1F000000
7FF81C00
FFFDFC00
1F307C00
1F007C00
1F007C00
1F007C00
1F007C00
1F007C00
1F007C00
1F007C00
1F007C00
1F007C00
1F007C00
1F007C00
1F007C00
1F007C00
7FF1FF00
FFF1FF80
ENDCHAR
STARTCHAR FB02
ENCODING 64258
SWIDTH 650 0
DWIDTH 26 0
BBX 24 29 1 0
BITMAP
007C18
01FFF8
038EF8
0784F8
0F00F8
0F00F8
0F00F8
1F00F8
1F00F8
1F00F8
1F00F8
7FFCF8
FFF8F8
1F10F8
1F00F8
1F00F8
1F00F8
1F00F8
1F00F8
1F00F8
1F00F8
1F00F8
1F00F8
1F00F8
1F00F8
1F00F8
1F00F8
7FF3FE
FFF7FF
ENDCHAR
ENDFONT
